<svg width="22" height="14" viewBox="0 0 22 14" fill="none" xmlns="http://www.w3.org/2000/svg">
<path d="M3.06066 0.93934C2.47487 0.353553 1.52513 0.353553 0.93934 0.93934C0.353553 1.52513 0.353553 2.47487 0.93934 3.06066L3.06066 0.93934ZM9.93934 12.0607L11 13.1213L13.1213 11L12.0607 9.93934L9.93934 12.0607ZM0.93934 3.06066L9.93934 12.0607L12.0607 9.93934L3.06066 0.93934L0.93934 3.06066Z" fill="#0F3979"/>
<path d="M21.0607 3.06066C21.6464 2.47487 21.6464 1.52513 21.0607 0.93934C20.4749 0.353553 19.5251 0.353553 18.9393 0.93934L21.0607 3.06066ZM9.93934 9.93934L8.87868 11L11 13.1213L12.0607 12.0607L9.93934 9.93934ZM18.9393 0.93934L9.93934 9.93934L12.0607 12.0607L21.0607 3.06066L18.9393 0.93934Z" fill="#0F3979"/>
</svg>
