<svg width="22" height="23" viewBox="0 0 22 23" fill="none" xmlns="http://www.w3.org/2000/svg">
<path d="M7.8668 1.28765C4.94847 2.0587 2.43889 4.08455 1.15423 6.73016C0.216625 8.65051 -0.0859578 10.1017 0.0202117 12.0824C0.186102 14.8488 1.12371 16.9503 3.07391 18.9012C5.14555 20.9721 7.59474 22 10.4972 22C14.7001 22 18.2382 19.793 20.0219 16.0286C20.7631 14.4713 21.0351 13.2463 21.0351 11.4925C21.0351 5.58154 16.3935 0.955205 10.4972 1.00033C9.49916 1.00033 8.57747 1.10583 7.8668 1.28765ZM12.4474 2.11909C15.9702 2.85962 19.0246 5.82308 19.8407 9.30013C20.5667 12.3392 19.7047 15.59 17.5879 17.8727C16.3484 19.2184 15.2297 19.9742 13.5814 20.5488C12.4175 20.9569 12.1149 21.0027 10.4819 21.0027C8.90992 21.0027 8.51709 20.9569 7.56422 20.6092C6.05263 20.0651 4.94847 19.3696 3.84497 18.296C0.866914 15.3783 0.110456 10.9935 1.93989 7.27428C3.86023 3.38914 8.24437 1.24186 12.4474 2.11909Z" fill="#8DA0BF"/>
<path d="M5.008 16V8.468H7.192V16H5.008ZM6.1 7.418C5.69867 7.418 5.372 7.30133 5.12 7.068C4.868 6.83467 4.742 6.54533 4.742 6.2C4.742 5.85467 4.868 5.56533 5.12 5.332C5.372 5.09867 5.69867 4.982 6.1 4.982C6.50133 4.982 6.828 5.094 7.08 5.318C7.332 5.53267 7.458 5.81267 7.458 6.158C7.458 6.522 7.332 6.82533 7.08 7.068C6.83733 7.30133 6.51067 7.418 6.1 7.418ZM13.7969 8.356C14.3943 8.356 14.9263 8.47733 15.3929 8.72C15.8689 8.95333 16.2423 9.31733 16.5129 9.812C16.7836 10.2973 16.9189 10.9227 16.9189 11.688V16H14.7349V12.024C14.7349 11.4173 14.5996 10.9693 14.3289 10.68C14.0676 10.3907 13.6943 10.246 13.2089 10.246C12.8636 10.246 12.5509 10.3207 12.2709 10.47C12.0003 10.61 11.7856 10.8293 11.6269 11.128C11.4776 11.4267 11.4029 11.8093 11.4029 12.276V16H9.21894V8.468H11.3049V10.554L10.9129 9.924C11.1836 9.42 11.5709 9.03267 12.0749 8.762C12.5789 8.49133 13.1529 8.356 13.7969 8.356Z" fill="#8DA0BF"/>
</svg>
