<svg width="22" height="21" viewBox="0 0 22 21" fill="none" xmlns="http://www.w3.org/2000/svg">
<path d="M7.86676 0.287271C4.94883 1.05833 2.43911 3.08425 1.15402 5.73003C0.216653 7.65012 -0.0857222 9.10152 0.0201093 11.0821C0.186416 13.8488 1.12378 15.9503 3.0741 17.9006C5.14538 19.9719 7.59462 21 10.4974 21C14.7004 21 18.2382 18.7927 20.0223 15.0281C20.7631 13.4708 21.0352 12.2462 21.0352 10.4924C21.0352 4.581 16.3937 -0.0453425 10.4974 1.38218e-05C9.49959 1.38218e-05 8.57734 0.105845 7.86676 0.287271ZM12.4477 1.1188C15.9704 1.85962 19.0244 4.8229 19.8408 8.30022C20.5665 11.3391 19.7048 14.5896 17.5881 16.8726C16.3484 18.2181 15.2296 18.9741 13.5817 19.5486C12.4175 19.9568 12.1151 20.0022 10.4823 20.0022C8.90995 20.0022 8.51686 19.9568 7.56438 19.6091C6.0525 19.0648 4.94883 18.3693 3.84516 17.2959C0.866761 14.378 0.110822 9.99353 1.94019 6.27431C3.86028 2.38878 8.24473 0.241914 12.4477 1.1188Z" fill="#91A4C1"/>
<path d="M6.91419 5.18601C5.94658 5.85124 5.58373 7.06074 5.93147 8.43655C6.38503 10.2357 7.89691 12.6245 9.65069 14.3631C11.1474 15.8448 12.6593 16.4344 13.8991 16.0262C14.5794 15.7994 15.2446 15.1795 15.2446 14.7562C15.2446 14.2875 13.6723 12.1407 13.249 12.0348C13.0373 11.9743 12.7047 12.0651 12.3872 12.2465C12.0999 12.4128 11.7824 12.5186 11.6766 12.4733C11.4045 12.3674 9.04593 9.20761 9.04593 8.93547C9.04593 8.82964 9.2576 8.52726 9.4995 8.30048C9.75652 8.0737 9.95306 7.74109 9.95306 7.57478C9.95306 7.40847 9.54485 6.71301 9.04593 6.04778C8.03298 4.67197 7.80619 4.58126 6.91419 5.18601ZM8.4563 6.53158L9.15177 7.48407L8.72844 7.96787C7.98762 8.7994 8.09345 9.19249 9.6658 11.294C11.3138 13.5013 11.3893 13.5316 12.8407 12.9268C13.0222 12.8512 13.2792 13.0629 13.7932 13.7281C14.1712 14.2422 14.4887 14.6806 14.4887 14.726C14.4887 14.9225 13.4606 15.4063 13.0373 15.4063C11.8278 15.4063 9.65069 13.5618 8.07833 11.1882C6.5211 8.84476 6.18848 7.15145 7.09561 6.10826C7.35263 5.821 7.60965 5.5791 7.67013 5.5791C7.71548 5.59422 8.07833 6.01754 8.4563 6.53158Z" fill="#91A4C1"/>
</svg>
