<svg width="23" height="23" viewBox="0 0 23 23" fill="none" xmlns="http://www.w3.org/2000/svg">
<path d="M8.54703 0.312521C5.37635 1.15025 2.64977 3.35127 1.25404 6.22564C0.235356 8.31203 -0.0933904 9.88872 0.0219594 12.0407C0.202193 15.0463 1.22088 17.3295 3.33971 19.449C5.59047 21.6991 8.25144 22.8158 11.4048 22.8158C15.9712 22.8158 19.8153 20.418 21.7531 16.3281C22.5584 14.6361 22.854 13.3052 22.854 11.3998C22.854 4.9777 17.8111 -0.0486681 11.4048 0.000355559C10.3205 0.000355559 9.31915 0.114984 8.54703 0.312521ZM13.5237 1.21585C17.3511 2.02042 20.6696 5.24012 21.5563 9.01783C22.345 12.3197 21.4085 15.8516 19.1087 18.3316C17.762 19.7937 16.5465 20.6148 14.7557 21.2391C13.4912 21.6825 13.1625 21.7323 11.3882 21.7323C9.68034 21.7323 9.25354 21.6825 8.21828 21.3047C6.57599 20.7136 5.37635 19.958 4.17743 18.7916C0.941874 15.6216 0.120007 10.8577 2.10763 6.81681C4.19402 2.59573 8.95724 0.262776 13.5237 1.21585Z" fill="#8DA0BF"/>
<path d="M9.60166 16.3892C8.25065 16.3892 6.93189 16.3896 5.61306 16.3891C4.97353 16.3888 4.7117 16.1256 4.71151 15.4828C4.71112 13.5314 4.71788 11.58 4.70463 9.62863C4.70257 9.32209 4.78975 9.09521 5.0194 8.90507C5.67045 8.36617 6.31082 7.81408 6.96927 7.28445C7.74869 6.6576 8.54233 6.04844 9.33031 5.4322C9.81972 5.04947 10.3095 4.66713 10.8004 4.28639C10.9423 4.17643 11.0608 4.12514 11.2428 4.27365C11.8866 4.7991 12.5555 5.29347 13.2076 5.80894C14.2658 6.64544 15.3191 7.48811 16.372 8.33117C16.5539 8.47678 16.7162 8.6471 16.9008 8.78886C17.2304 9.04206 17.3401 9.35195 17.3344 9.77817C17.3087 11.7078 17.3047 13.6382 17.3359 15.5677C17.3438 16.0567 16.9739 16.4011 16.4851 16.3973C14.2015 16.3792 11.9176 16.3892 9.60166 16.3892ZM16.3862 8.98691C16.1105 8.75669 15.8388 8.52157 15.5584 8.29706C14.7364 7.639 13.9138 6.98152 13.086 6.33066C12.4011 5.79215 11.7084 5.26336 11.0068 4.72066C9.10793 6.23517 7.22415 7.73771 5.33895 9.24134C5.92024 9.71743 6.45747 10.1595 6.99688 10.5988C7.79798 11.2514 8.5987 11.9045 9.40701 12.548C9.46164 12.5915 9.60365 12.5927 9.66259 12.5521C10.0085 12.3137 10.3356 12.0479 10.682 11.8101C10.8466 11.697 11.0227 11.5423 11.2504 11.708C11.5561 11.9305 11.8763 12.1342 12.1709 12.3701C12.4169 12.5671 12.6311 12.7547 12.8793 12.3795C12.8891 12.3648 13.031 12.2694 13.1043 12.2101C13.7762 11.6665 14.4493 11.1242 15.1177 10.5763C15.6381 10.1497 16.1524 9.71557 16.7025 9.2573C16.5997 9.17036 16.5096 9.09418 16.3862 8.98691ZM15.0388 15.9388H16.3431C14.5187 14.6404 12.7827 13.4048 11.0406 12.1649C9.29556 13.4023 7.53963 14.6475 5.71852 15.9388H15.0388ZM6.74799 11.0442C6.23592 10.6196 5.72386 10.1951 5.19751 9.75868V15.7031C6.52085 14.7665 7.79502 13.8647 9.08863 12.9492C8.31725 12.3119 7.55533 11.6825 6.74799 11.0442ZM16.8727 15.7072V9.75565C15.5543 10.8379 14.2813 11.8829 12.9832 12.9484C14.2912 13.8762 15.5603 14.7763 16.8727 15.7072Z" fill="#8DA0BF"/>
</svg>
