<svg width="44" height="44" viewBox="0 0 44 44" fill="none" xmlns="http://www.w3.org/2000/svg">
<path d="M18.0306 6.60741C13.6218 7.77227 9.8305 10.8328 7.88974 14.8296C6.47326 17.7307 6.01614 19.9231 6.17653 22.9155C6.42715 27.0947 7.84362 30.2695 10.7899 33.2168C13.9195 36.3454 17.6196 37.8983 22.0044 37.8983C28.354 37.8983 33.6991 34.5641 36.3937 28.8771C37.5135 26.5243 37.9245 24.6738 37.9245 22.0243C37.9245 13.0943 30.9123 6.10518 22.0044 6.17335C20.4967 6.17335 19.1043 6.33274 18.0306 6.60741ZM24.9506 7.8635C30.2727 8.98224 34.887 13.4592 36.1201 18.7121C37.2168 23.3034 35.9146 28.2145 32.7167 31.6629C30.8441 33.6959 29.154 34.8377 26.6638 35.7059C24.9055 36.3224 24.4484 36.3916 21.9813 36.3916C19.6065 36.3916 19.0131 36.3224 17.5735 35.7971C15.2899 34.9751 13.6218 33.9245 11.9547 32.3025C7.45567 27.8947 6.31287 21.2704 9.07665 15.6516C11.9778 9.78221 18.601 6.53824 24.9506 7.8635Z" fill="#8DA0BF"/>
<path d="M20.0628 29.4659C18.1842 29.4659 16.3505 29.4664 14.5166 29.4656C13.6274 29.4653 13.2633 29.0992 13.263 28.2055C13.2625 25.492 13.2719 22.7786 13.2535 20.0653C13.2506 19.639 13.3718 19.3235 13.6912 19.0591C14.5965 18.3098 15.4869 17.5421 16.4025 16.8057C17.4862 15.934 18.5898 15.087 19.6855 14.2301C20.366 13.6979 21.047 13.1663 21.7297 12.6369C21.927 12.484 22.0917 12.4127 22.3448 12.6192C23.24 13.3498 24.1701 14.0372 25.0768 14.754C26.5482 15.9171 28.0129 17.0889 29.477 18.2611C29.7299 18.4636 29.9556 18.7004 30.2122 18.8975C30.6705 19.2496 30.823 19.6805 30.8152 20.2732C30.7794 22.9563 30.7739 25.6406 30.8173 28.3235C30.8282 29.0035 30.3139 29.4824 29.6342 29.4771C26.4588 29.4519 23.2831 29.4659 20.0628 29.4659ZM29.4967 19.1729C29.1134 18.8528 28.7355 18.5259 28.3456 18.2137C27.2026 17.2987 26.0588 16.3844 24.9078 15.4794C23.9554 14.7306 22.9922 13.9953 22.0166 13.2407C19.3763 15.3466 16.7569 17.4359 14.1355 19.5267C14.9438 20.1887 15.6908 20.8034 16.4408 21.4143C17.5548 22.3217 18.6682 23.2298 19.7921 24.1246C19.8681 24.1851 20.0656 24.1868 20.1475 24.1304C20.6284 23.7988 21.0833 23.4293 21.5649 23.0986C21.7939 22.9414 22.0387 22.7263 22.3553 22.9567C22.7804 23.266 23.2257 23.5492 23.6353 23.8773C23.9774 24.1512 24.2752 24.412 24.6204 23.8903C24.634 23.8699 24.8312 23.7372 24.9331 23.6548C25.8675 22.8989 26.8034 22.1449 27.7328 21.383C28.4565 20.7898 29.1717 20.1861 29.9365 19.5489C29.7936 19.428 29.6683 19.3221 29.4967 19.1729ZM27.6231 28.8396H29.4368C26.8999 27.0341 24.486 25.316 22.0636 23.5919C19.6372 25.3126 17.1955 27.0439 14.6633 28.8396H27.6231ZM16.0948 22.0336C15.3827 21.4432 14.6707 20.853 13.9388 20.2461V28.5117C15.7789 27.2095 17.5507 25.9555 19.3494 24.6825C18.2768 23.7964 17.2174 22.9211 16.0948 22.0336ZM30.1732 28.5176V20.2419C28.3399 21.7467 26.5698 23.1998 24.7648 24.6813C26.5837 25.9715 28.3482 27.2231 30.1732 28.5176Z" fill="#8DA0BF"/>
</svg>
