<svg width="38" height="38" viewBox="0 0 38 38" fill="none" xmlns="http://www.w3.org/2000/svg">
<path d="M15.0047 3.60984C10.6074 4.77184 6.82519 7.82492 4.88854 11.8122C3.47591 14.7058 3.02023 16.893 3.17972 19.8778C3.43035 24.0473 4.84297 27.2143 7.78213 30.1535C10.9036 33.2749 14.5946 34.8242 18.9692 34.8242C25.3032 34.8242 30.6347 31.4977 33.3232 25.8245C34.4397 23.4777 34.8498 21.6322 34.8498 18.9892C34.8498 10.0806 27.855 3.10859 18.9692 3.17694C17.4654 3.17694 16.0756 3.33643 15.0047 3.60984ZM21.9083 4.86297C27.2171 5.9794 31.8195 10.4451 33.0498 15.6855C34.1435 20.2651 32.8448 25.1637 29.655 28.6041C27.7867 30.6319 26.1006 31.7711 23.6172 32.6369C21.8628 33.2521 21.4071 33.3205 18.9464 33.3205C16.5768 33.3205 15.9845 33.2521 14.549 32.7281C12.2706 31.9078 10.6074 30.8598 8.94413 29.2421C4.45564 24.8447 3.31642 18.2373 6.07331 12.6324C8.96691 6.77685 15.5743 3.54149 21.9083 4.86297Z" fill="#91A4C1"/>
<path d="M13.5693 10.9921C12.1111 11.9946 11.5643 13.8174 12.0883 15.8907C12.7718 18.6021 15.0502 22.202 17.6932 24.8222C19.9488 27.055 22.2273 27.9436 24.0956 27.3284C25.1209 26.9867 26.1234 26.0525 26.1234 25.4145C26.1234 24.7082 23.7538 21.4729 23.1159 21.3134C22.7969 21.2222 22.2956 21.359 21.8172 21.6324C21.3843 21.883 20.9058 22.0425 20.7463 21.9741C20.3362 21.8146 16.7818 17.0527 16.7818 16.6426C16.7818 16.4831 17.1008 16.0274 17.4654 15.6857C17.8527 15.3439 18.1489 14.8427 18.1489 14.592C18.1489 14.3414 17.5337 13.2933 16.7818 12.2908C15.2553 10.2175 14.9135 10.0808 13.5693 10.9921ZM15.8933 13.0199L16.9413 14.4553L16.3034 15.1844C15.1869 16.4376 15.3464 17.03 17.716 20.197C20.1995 23.5235 20.3134 23.569 22.5007 22.6577C22.7741 22.5437 23.1614 22.8627 23.9361 23.8652C24.5057 24.6399 24.9842 25.3006 24.9842 25.369C24.9842 25.6652 23.4348 26.3943 22.7969 26.3943C20.9741 26.3943 17.6932 23.6146 15.3236 20.0375C12.9769 16.5059 12.4756 13.9541 13.8427 12.382C14.23 11.9491 14.6173 11.5845 14.7085 11.5845C14.7768 11.6073 15.3236 12.2453 15.8933 13.0199Z" fill="#91A4C1"/>
</svg>
