<svg width="44" height="44" viewBox="0 0 44 44" fill="none" xmlns="http://www.w3.org/2000/svg">
<path fill-rule="evenodd" clip-rule="evenodd" d="M44 22C44 34.1502 34.1505 44 22 44C9.84947 44 0 34.1502 0 22C0 9.84949 9.84947 0 22 0C34.1505 0 44 9.84949 44 22ZM17.5544 34.6704C28.3001 34.6704 34.1766 25.7684 34.1766 18.0491C34.1766 17.7962 34.1701 17.5443 34.1603 17.2939C35.3011 16.4694 36.2918 15.4404 37.0741 14.2694C36.0278 14.7341 34.9002 15.0477 33.7203 15.1888C34.9262 14.4659 35.8519 13.3212 36.2886 11.9572C35.1577 12.6267 33.9094 13.1133 32.5796 13.3753C31.5105 12.2398 29.995 11.5296 28.3132 11.5296C25.0865 11.5296 22.4726 14.1458 22.4726 17.3709C22.4726 17.8295 22.5215 18.2753 22.6225 18.7029C17.7662 18.4588 13.464 16.1343 10.5828 12.5996C10.0809 13.4624 9.79081 14.4659 9.79081 15.5356C9.79081 17.5625 10.8207 19.3515 12.3917 20.3984C11.4335 20.3687 10.5307 20.1054 9.74518 19.6673C9.74192 19.6918 9.74191 19.7162 9.74191 19.742C9.74191 22.5713 11.7561 24.9333 14.4287 25.4692C13.9398 25.6025 13.4216 25.6745 12.8904 25.6745C12.5123 25.6745 12.1473 25.6373 11.792 25.5692C12.5351 27.8901 14.6927 29.5791 17.248 29.6267C15.2501 31.1934 12.7307 32.1272 9.99288 32.1272C9.52355 32.1272 9.05747 32.1004 8.60117 32.0463C11.1858 33.703 14.256 34.6704 17.5544 34.6704Z" fill="#F4F5F8" fill-opacity="0.8"/>
</svg>
