<svg width="44" height="44" viewBox="0 0 44 44" fill="none" xmlns="http://www.w3.org/2000/svg">
<path d="M22 0C34.1502 0 44 9.84949 44 22C44 34.1502 34.1502 44 22 44C9.84981 44 0 34.1502 0 22C0 9.84949 9.84981 0 22 0ZM22 8.14815C18.2378 8.14815 17.7662 8.16412 16.2888 8.23158C14.8146 8.29872 13.8075 8.53274 12.9266 8.87529C12.0156 9.22924 11.2431 9.70281 10.473 10.473C9.70281 11.2431 9.22925 12.0156 8.87529 12.9265C8.53307 13.8075 8.29872 14.8143 8.23158 16.2888C8.16411 17.7665 8.14815 18.2378 8.14815 22C8.14815 25.7618 8.16411 26.2338 8.23158 27.7112C8.29872 29.1854 8.53307 30.1925 8.87529 31.0735C9.22925 31.9844 9.70281 32.7569 10.473 33.5267C11.2431 34.2969 12.0156 34.7704 12.9266 35.1247C13.8075 35.4669 14.8146 35.7013 16.2888 35.7684C17.7662 35.8359 18.2378 35.8519 22 35.8519C25.7618 35.8519 26.2334 35.8359 27.7109 35.7684C29.1854 35.7013 30.1925 35.4669 31.0734 35.1247C31.9844 34.7704 32.7569 34.2969 33.527 33.5267C34.2969 32.7569 34.7707 31.9844 35.1247 31.0735C35.4669 30.1925 35.7013 29.1854 35.7684 27.7112C35.8359 26.2338 35.8519 25.7618 35.8519 22C35.8519 18.2382 35.8359 17.7665 35.7684 16.2888C35.7013 14.8143 35.4669 13.8075 35.1247 12.9265C34.7707 12.0156 34.2969 11.2431 33.527 10.473C32.7569 9.70281 31.9844 9.22924 31.0734 8.87529C30.1925 8.53274 29.1854 8.29872 27.7109 8.23158C26.2334 8.16412 25.7618 8.14815 22 8.14815ZM22 10.6441C25.6986 10.6441 26.1367 10.6581 27.5975 10.7246C28.9478 10.7865 29.6811 11.0121 30.1693 11.2017C30.816 11.453 31.2775 11.7532 31.7621 12.2379C32.2468 12.7225 32.547 13.184 32.7982 13.8303C32.9879 14.3186 33.2135 15.0519 33.2754 16.4025C33.3419 17.8633 33.3559 18.3014 33.3559 22C33.3559 25.6986 33.3419 26.1366 33.2754 27.5974C33.2135 28.9478 32.9879 29.6814 32.7982 30.1693C32.547 30.816 32.2468 31.2775 31.7621 31.7621C31.2775 32.2468 30.816 32.547 30.1693 32.7982C29.6811 32.9879 28.9478 33.2138 27.5975 33.2751C26.1367 33.3419 25.6989 33.3559 22 33.3559C18.3011 33.3559 17.863 33.3419 16.4025 33.2751C15.0522 33.2138 14.3186 32.9879 13.8307 32.7982C13.184 32.547 12.7225 32.2468 12.2379 31.7621C11.7532 31.2775 11.453 30.816 11.2018 30.1693C11.0121 29.6814 10.7865 28.9478 10.7246 27.5974C10.6581 26.1366 10.6441 25.6986 10.6441 22C10.6441 18.3014 10.6581 17.8633 10.7246 16.4025C10.7865 15.0519 11.0121 14.3186 11.2018 13.8303C11.453 13.184 11.7529 12.7225 12.2379 12.2379C12.7225 11.7532 13.184 11.453 13.8307 11.2017C14.3186 11.0121 15.0522 10.7865 16.4025 10.7246C17.8633 10.6581 18.3014 10.6441 22 10.6441ZM31.0562 14.6057C31.0562 13.6876 30.3121 12.9435 29.3943 12.9435C28.4762 12.9435 27.732 13.6876 27.732 14.6057C27.732 15.5239 28.4762 16.2679 29.3943 16.2679C30.3121 16.2679 31.0562 15.5239 31.0562 14.6057ZM22 14.887C18.0716 14.887 14.887 18.0716 14.887 22C14.887 25.9284 18.0716 29.113 22 29.113C25.9284 29.113 29.113 25.9284 29.113 22C29.113 18.0716 25.9284 14.887 22 14.887ZM22 26.6174C19.45 26.6174 17.3826 24.55 17.3826 22C17.3826 19.45 19.45 17.3826 22 17.3826C24.55 17.3826 26.6174 19.45 26.6174 22C26.6174 24.55 24.55 26.6174 22 26.6174Z" fill="#F4F5F8" fill-opacity="0.8"/>
</svg>
