<svg width="44" height="44" viewBox="0 0 44 44" fill="none" xmlns="http://www.w3.org/2000/svg">
<path d="M44 22C44 34.1502 34.1502 44 22 44C9.84981 44 0 34.1502 0 22C0 9.84981 9.84981 0 22 0C34.1502 0 44 9.84981 44 22ZM15.5558 11.1284C15.5538 9.42415 14.1445 8.01974 12.4344 8.01811C10.7125 8.01648 9.2977 9.43393 9.30357 11.1551C9.30911 12.8578 10.7246 14.2681 12.4282 14.2674C14.1533 14.2668 15.5571 12.8578 15.5558 11.1284ZM23.7023 18.9986C23.7023 18.333 23.6919 17.6671 23.7072 17.0019C23.7134 16.7409 23.6423 16.6519 23.3666 16.6542C21.8693 16.6675 20.3714 16.6662 18.8737 16.6551C18.6133 16.6532 18.523 16.7171 18.5233 16.9925C18.5308 22.5606 18.5309 28.1287 18.5237 33.6965C18.5234 33.9524 18.5967 34.0205 18.8493 34.0185C20.4261 34.0074 22.0036 34.0058 23.5804 34.0198C23.8669 34.0224 23.937 33.9396 23.936 33.659C23.9256 30.8469 23.9311 28.0345 23.9285 25.2221C23.9282 24.7678 23.9549 24.3167 24.0116 23.8656C24.2482 21.9778 25.2136 21.0584 27.0704 20.9603C28.4302 20.8886 29.3591 21.5499 29.7336 22.8477C29.937 23.5524 29.9829 24.2766 29.9855 25.0011C29.9946 27.8931 29.9927 30.7847 29.9839 33.6766C29.9829 33.9367 30.0425 34.0221 30.318 34.0198C31.8834 34.0061 33.4495 34.0065 35.0149 34.0192C35.2952 34.0218 35.3747 33.9471 35.374 33.6626C35.3675 30.6234 35.3815 27.5844 35.3763 24.5452C35.3737 23.1046 35.3007 21.6682 34.9037 20.2693C34.3748 18.4041 33.265 17.0896 31.3554 16.5375C30.5207 16.296 29.6645 16.2334 28.7985 16.2262C27.223 16.2129 25.8733 16.7555 24.7326 17.8308C24.3613 18.1805 24.0634 18.5928 23.7023 18.9986ZM15.1239 25.3619C15.1239 22.5847 15.1213 19.8075 15.1288 17.0303C15.1295 16.7689 15.0878 16.6503 14.7827 16.6535C13.1951 16.6685 11.6072 16.6656 10.0196 16.6551C9.77452 16.6538 9.71847 16.736 9.71879 16.9667C9.72434 22.544 9.72498 28.1212 9.71748 33.6985C9.71716 33.9576 9.79277 34.0205 10.0434 34.0185C11.6085 34.0078 13.1739 34.0035 14.7387 34.0208C15.0555 34.0244 15.1318 33.9318 15.1305 33.6258C15.1194 30.8711 15.1239 28.1163 15.1239 25.3619Z" fill="#F4F5F8" fill-opacity="0.8"/>
</svg>
