<svg width="2528" height="1239" viewBox="0 0 2528 1239" fill="none" xmlns="http://www.w3.org/2000/svg">
<path fill-rule="evenodd" clip-rule="evenodd" d="M625.105 1163.18C337.475 1102.52 153.475 820.175 214.135 532.545C274.795 244.915 557.145 60.9147 844.775 121.575C882.095 129.445 917.665 141.055 951.185 155.915C889.935 112.595 819.035 80.7847 740.955 64.3147C434.625 -0.285276 133.915 195.675 69.3147 502.005C4.71472 808.335 200.675 1109.03 507.005 1173.64C585.085 1190.11 662.785 1189.63 736.315 1174.73C699.645 1174.79 662.415 1171.05 625.095 1163.18H625.105Z" fill="white"/>
<path fill-rule="evenodd" clip-rule="evenodd" d="M800.875 1139.61C774.025 1143.14 746.585 1144.48 719.315 1143.59C652.145 1141.42 586.855 1125.9 525.285 1097.47C463.715 1069.04 409.555 1029.42 364.335 979.705C320.635 931.675 287.055 876.275 264.505 815.045C241.955 753.815 231.585 689.865 233.685 624.965C235.625 564.925 248.235 506.395 271.185 450.675C263.545 483.275 259.155 516.565 258.065 550.195C255.925 616.385 266.495 681.615 289.495 744.055C312.495 806.495 346.745 862.995 391.315 911.985C437.445 962.695 492.675 1003.11 555.475 1032.1C618.265 1061.09 684.855 1076.91 753.375 1079.13C781.185 1080.03 809.165 1078.66 836.555 1075.07C874.065 1070.14 911.305 1060.94 947.235 1047.71C1009.67 1024.71 1066.17 990.465 1115.16 945.895C1140.05 923.255 1162.53 898.315 1182.39 871.365C1154.87 924.975 1118.5 972.525 1074.06 1012.94C1026.03 1056.64 970.635 1090.22 909.405 1112.77C874.175 1125.74 837.665 1134.77 800.885 1139.6L800.875 1139.61Z" fill="white"/>
<path d="M1300.9 871.075L1361.1 959.875L1423.9 871.075H1472.7L1387.1 992.075C1381.3 999.875 1373.1 1007.07 1360.3 1007.07C1347.5 1007.07 1339.7 1000.47 1333.9 992.075L1250.1 871.075H1300.9Z" fill="white"/>
<path d="M1561.4 1004.88H1471.8V921.475H1513.4V970.475H1561.4C1584.4 970.475 1601 957.675 1601 938.475C1601 919.275 1583.8 905.875 1561.4 905.875H1471.8L1498.2 871.075H1561.4C1608.2 871.075 1642 898.075 1642 936.675C1642 975.275 1607.8 1004.88 1561.4 1004.88Z" fill="white"/>
<path d="M1833.2 970.475L1806.6 1004.88H1739.4C1693 1004.88 1658.8 975.475 1658.8 936.675C1658.8 897.875 1693 871.075 1739.4 871.075H1833.2L1806.6 905.875H1739.4C1717 905.875 1700.2 919.275 1700.2 938.475C1700.2 957.675 1716.8 970.475 1739.4 970.475H1833.2Z" fill="white"/>
<path d="M1966.3 1004.88H1924.9V871.075H1966.3V1004.88Z" fill="white"/>
<path d="M2111.1 999.875L2029.1 926.275V1004.88H1991.5V893.875C1991.5 876.075 2002.3 868.875 2014.1 868.875C2019.1 868.875 2024.1 870.075 2030.7 876.075L2112.7 949.675V871.075H2150.5V981.875C2150.5 999.675 2139.7 1007.07 2127.7 1007.07C2122.5 1007.07 2117.5 1005.88 2111.1 999.875Z" fill="white"/>
<path d="M2345.1 970.475L2318.5 1004.88H2251.3C2204.9 1004.88 2170.7 975.475 2170.7 936.675C2170.7 897.875 2204.9 871.075 2251.3 871.075H2345.1L2318.5 905.875H2251.3C2228.9 905.875 2212.1 919.275 2212.1 938.475C2212.1 957.675 2228.7 970.475 2251.3 970.475H2345.1Z" fill="white"/>
<path d="M2377.7 968.275C2390.3 968.275 2400.3 975.475 2400.3 987.875C2400.3 1000.27 2390.3 1007.07 2377.7 1007.07C2365.1 1007.07 2355.3 1000.07 2355.3 987.875C2355.3 975.475 2365.3 968.275 2377.7 968.275Z" fill="white"/>
<path d="M962.145 503.465C1072.11 503.465 1128.51 541.425 1124.69 614.415C1119.14 720.255 1046.11 796.895 865.615 796.895H393.135L523.335 671.355H907.835C950.305 671.355 969.195 658.215 970.685 629.745C971.715 610.035 956.285 600.545 924.435 600.545H647.625C532.345 600.545 483.225 553.835 486.935 483.025C492.135 383.755 566.605 308.575 744.075 308.575H1184.7L1053.67 435.575H701.785C659.315 435.575 640.535 446.525 639.005 475.725C637.975 495.435 653.475 503.465 686.085 503.465H962.145Z" fill="white"/>
<path d="M1323.09 671.345C1443.67 671.345 1489.04 645.065 1505.6 574.995L1568.86 308.575H1725.85L1662.59 574.995C1628.28 723.165 1504.6 796.885 1293.77 796.885H1104.17L1235.88 671.345H1323.09Z" fill="white"/>
<path d="M2247.6 503.465C2357.57 503.465 2413.98 541.425 2410.15 614.415C2404.6 720.255 2331.57 796.895 2151.08 796.895H1678.6L1808.8 671.355H2193.3C2235.77 671.355 2254.66 658.215 2256.15 629.745C2257.18 610.035 2241.75 600.545 2209.9 600.545H1933.09C1817.81 600.545 1768.69 553.835 1772.4 483.025C1777.6 383.755 1852.07 308.575 2029.54 308.575H2470.17L2339.14 435.575H1987.25C1944.78 435.575 1926.01 446.525 1924.48 475.725C1923.45 495.435 1938.95 503.465 1971.56 503.465H2247.61H2247.6Z" fill="white"/>
</svg>
