<?xml version="1.0" encoding="UTF-8"?>
<svg id="Layer_1" data-name="Layer 1" xmlns="http://www.w3.org/2000/svg" viewBox="0 0 2500 2500">
  <defs>
    <style>
      .cls-1 {
        isolation: isolate;
      }

      .cls-2 {
        fill-rule: evenodd;
      }

      .cls-2, .cls-3 {
        fill: #0f387b;
      }
    </style>
  </defs>
  <g>
    <path class="cls-2" d="m614.5,1788.81c-287.63-60.66-471.63-343.01-410.97-630.64,60.66-287.63,343.01-471.63,630.64-410.97,37.32,7.87,72.89,19.48,106.41,34.34-61.25-43.32-132.15-75.13-210.23-91.6-306.33-64.6-607.04,131.36-671.64,437.69-64.6,306.33,131.36,607.03,437.69,671.64,78.08,16.47,155.78,15.99,229.31,1.09-36.67.06-73.9-3.68-111.22-11.55Z"/>
    <path class="cls-2" d="m790.27,1765.24c-26.85,3.53-54.29,4.87-81.56,3.98-67.17-2.17-132.46-17.69-194.03-46.12-61.57-28.43-115.73-68.05-160.95-117.77-43.7-48.03-77.28-103.43-99.83-164.66-22.55-61.23-32.92-125.18-30.82-190.08,1.94-60.04,14.55-118.57,37.5-174.29-7.64,32.6-12.03,65.89-13.12,99.52-2.14,66.19,8.43,131.42,31.43,193.86,23,62.44,57.25,118.94,101.82,167.93,46.13,50.71,101.36,91.13,164.16,120.12,62.79,28.99,129.38,44.81,197.9,47.03,27.81.9,55.79-.47,83.18-4.06,37.51-4.93,74.75-14.13,110.68-27.36,62.44-23,118.94-57.25,167.93-101.82,24.89-22.64,47.37-47.58,67.23-74.53-27.52,53.61-63.89,101.16-108.33,141.58-48.03,43.7-103.43,77.28-164.66,99.83-35.23,12.97-71.74,22-108.52,26.83Z"/>
  </g>
  <g class="cls-1">
    <path class="cls-3" d="m1290.3,1496.7l60.2,88.8,62.8-88.8h48.8l-85.6,121c-5.8,7.8-14,15-26.8,15s-20.6-6.6-26.4-15l-83.8-121h50.8Z"/>
  </g>
  <g class="cls-1">
    <path class="cls-3" d="m1550.8,1630.5h-89.6v-83.4h41.6v49h48c23,0,39.6-12.8,39.6-32s-17.2-32.6-39.6-32.6h-89.6l26.4-34.8h63.2c46.8,0,80.6,27,80.6,65.6s-34.2,68.2-80.6,68.2Z"/>
    <path class="cls-3" d="m1822.6,1596.1l-26.6,34.4h-67.2c-46.4,0-80.6-29.4-80.6-68.2s34.2-65.6,80.6-65.6h93.8l-26.6,34.8h-67.2c-22.4,0-39.2,13.4-39.2,32.6s16.6,32,39.2,32h93.8Z"/>
    <path class="cls-3" d="m1955.7,1630.5h-41.4v-133.8h41.4v133.8Z"/>
    <path class="cls-3" d="m2100.5,1625.5l-82-73.6v78.6h-37.6v-111c0-17.8,10.8-25,22.6-25,5,0,10,1.2,16.6,7.2l82,73.6v-78.6h37.8v110.8c0,17.8-10.8,25.2-22.8,25.2-5.2,0-10.2-1.2-16.6-7.2Z"/>
    <path class="cls-3" d="m2334.5,1596.1l-26.6,34.4h-67.2c-46.4,0-80.6-29.4-80.6-68.2s34.2-65.6,80.6-65.6h93.8l-26.6,34.8h-67.2c-22.4,0-39.2,13.4-39.2,32.6s16.6,32,39.2,32h93.8Z"/>
    <path class="cls-3" d="m2367.1,1593.9c12.6,0,22.6,7.2,22.6,19.6s-10,19.2-22.6,19.2-22.4-7-22.4-19.2c0-12.4,10-19.6,22.4-19.6Z"/>
  </g>
  <g>
    <path class="cls-3" d="m951.54,1129.09c109.97,0,166.37,37.96,162.55,110.95-5.55,105.84-78.58,182.48-259.08,182.48h-472.48l130.2-125.54h384.5c42.47,0,61.36-13.14,62.85-41.61,1.03-19.71-14.4-29.2-46.25-29.2h-276.81c-115.28,0-164.4-46.71-160.69-117.52,5.2-99.27,79.67-174.45,257.14-174.45h440.63l-131.03,127h-351.89c-42.47,0-61.25,10.95-62.78,40.15-1.03,19.71,14.47,27.74,47.08,27.74h276.06Z"/>
    <path class="cls-3" d="m1312.49,1296.97c120.58,0,165.95-26.28,182.51-96.35l63.26-266.42h156.99l-63.26,266.42c-34.31,148.17-158,221.89-368.83,221.89h-189.6l131.71-125.54h87.22Z"/>
    <path class="cls-3" d="m2237,1129.09c109.97,0,166.38,37.96,162.55,110.95-5.55,105.84-78.58,182.48-259.07,182.48h-472.48l130.2-125.54h384.5c42.47,0,61.36-13.14,62.85-41.61,1.03-19.71-14.4-29.2-46.25-29.2h-276.81c-115.28,0-164.4-46.71-160.69-117.52,5.2-99.27,79.67-174.45,257.14-174.45h440.63l-131.03,127h-351.89c-42.47,0-61.24,10.95-62.77,40.15-1.03,19.71,14.47,27.74,47.08,27.74h276.05Z"/>
  </g>
</svg>