<svg width="205" height="37" viewBox="0 0 205 37" fill="none" xmlns="http://www.w3.org/2000/svg">
<path d="M34.4452 19.0123H39.8931C41.7384 19.0123 43.1443 18.394 43.1443 16.8481C43.1443 15.225 41.8263 14.7612 39.7174 14.7612H34.4452V19.0123ZM34.4452 27.5145H40.1568C42.4414 27.5145 43.6715 26.6642 43.6715 24.6546C43.6715 22.9542 42.002 22.2586 40.3325 22.2586H34.4452V27.5145ZM29.9639 11.3604H40.7718C46.2198 11.3604 47.6257 14.3748 47.6257 16.3844C47.6257 19.1669 45.8683 19.9398 44.9017 20.4036C47.6257 21.3311 48.3286 23.1861 48.3286 25.1184C48.3286 26.6642 47.6257 28.0555 46.3955 29.1376C45.1653 30.2197 43.9351 30.9153 39.3659 30.9153H29.9639V11.3604Z" fill="white"/>
<path d="M61.7727 22.2605C61.5091 19.9418 59.8396 19.2461 58.4337 19.2461C56.4127 19.2461 55.3583 20.4055 55.0946 22.2605H61.7727ZM65.9905 26.6662C65.1118 29.526 62.1242 31.4583 58.7852 31.3037C54.1281 31.3037 50.6133 29.3714 50.6133 23.4199C50.6133 21.7195 51.3162 16.0771 58.5216 16.0771C61.7727 16.0771 66.2541 17.4684 66.2541 24.0383V24.7339H54.9189C55.0068 25.816 55.2704 28.2893 58.7852 28.2893C60.0153 28.3666 61.1576 27.7483 61.597 26.7435L65.9905 26.6662Z" fill="white"/>
<path d="M69.0654 16.4636H73.1953V18.937H73.2832C74.1619 17.4684 75.1284 16.0771 77.7645 16.0771C78.0281 16.0771 78.2917 16.0772 78.5553 16.1544V20.0191C78.116 19.9418 77.7645 19.9418 77.3252 19.9418C73.9861 19.9418 73.371 21.7968 73.371 23.4199V30.9173H69.0654V16.4636Z" fill="white"/>
<path d="M87.6944 27.7474C90.5941 27.7474 91.3849 25.5832 91.3849 23.5736C91.3849 21.2549 90.0669 19.3226 87.6944 19.3226C86.1128 19.3226 84.2675 20.3274 84.2675 23.7282C84.2675 25.5832 85.1462 27.7474 87.6944 27.7474ZM95.6906 16.4627V30.1435C95.6906 32.6168 95.5148 36.7906 87.3429 36.7906C83.916 36.7906 80.4012 35.4767 80.2255 32.4623H84.8826C85.0583 33.1579 85.4098 33.9308 87.8702 33.9308C90.1548 33.9308 91.2971 32.926 91.2971 30.6072V28.8295L91.2092 28.7522C90.4184 30.2208 88.661 31.071 86.8157 30.9164C82.8616 30.9164 79.7861 28.5204 79.7861 23.4191C79.7861 18.3951 83.0373 15.999 86.64 15.999C88.661 15.8444 90.5941 16.8492 91.4728 18.5496H91.5607V16.3855L95.6906 16.4627Z" fill="white"/>
<path d="M109.661 22.2605C109.398 19.9418 107.728 19.2461 106.322 19.2461C104.301 19.2461 103.247 20.4055 102.983 22.2605H109.661ZM113.879 26.6662C113 29.526 110.013 31.4583 106.674 31.3037C102.017 31.3037 98.502 29.3714 98.502 23.4199C98.502 21.7195 99.2049 16.0771 106.41 16.0771C109.661 16.0771 114.143 17.4684 114.143 24.0383V24.7339H102.895C102.983 25.816 103.247 28.2893 106.762 28.2893C107.992 28.3666 109.134 27.7483 109.574 26.7435L113.879 26.6662Z" fill="#109CD8"/>
<path d="M121.348 11.3604H117.042V30.838H121.348V11.3604Z" fill="#109CD8"/>
<path d="M135.408 22.2605C135.144 19.9418 133.474 19.2461 132.068 19.2461C130.047 19.2461 128.993 20.4055 128.729 22.2605H135.408ZM139.625 26.6662C138.747 29.526 135.759 31.4583 132.42 31.3037C127.763 31.3037 124.248 29.3714 124.248 23.4199C124.248 21.7195 124.951 16.0771 132.156 16.0771C135.408 16.0771 139.889 17.4684 139.889 24.0383V24.7339H128.642C128.729 25.816 128.993 28.2893 132.508 28.2893C133.738 28.3666 134.88 27.7483 135.32 26.7435L139.625 26.6662Z" fill="#109CD8"/>
<path d="M156.848 25.6614C156.672 27.13 155.354 31.3037 149.379 31.3037C143.228 31.3037 141.822 27.13 141.822 24.1156C141.822 19.478 144.107 16.0771 149.731 16.0771C152.367 16.0771 156.584 17.0819 157.024 21.6422H152.63C152.455 20.7147 151.752 19.1688 149.731 19.3234C147.007 19.3234 146.304 21.7195 146.304 23.4972C146.304 25.0431 146.391 28.212 149.643 28.212C151.224 28.212 152.542 27.0527 152.542 25.6614H156.848Z" fill="#109CD8"/>
<path d="M164.667 16.4634H167.391V19.1686H164.667V27.0524C164.667 27.9027 164.667 28.2118 166.425 28.2118C166.688 28.2118 167.04 28.2118 167.304 28.1345V30.9944C166.601 30.9944 165.985 31.0716 165.282 31.0716H164.755C160.977 31.0716 160.362 29.835 160.362 27.98V19.1686H158.165V16.4634H160.362V12.5215H164.667V16.4634Z" fill="#109CD8"/>
<path d="M170.115 16.4636H174.245V18.937H174.333C175.212 17.4684 176.178 16.0771 178.814 16.0771C179.078 16.0771 179.342 16.0772 179.605 16.1544V20.0191C179.166 19.9418 178.814 19.9418 178.375 19.9418C175.036 19.9418 174.421 21.7968 174.421 23.4199V30.9173H170.115V16.4636Z" fill="#109CD8"/>
<path d="M186.547 14.7625H182.241V11.207H186.547V14.7625ZM186.547 30.9166H182.241V16.4629H186.547V30.9166Z" fill="#109CD8"/>
<path d="M204.825 25.6614C204.649 27.13 203.331 31.3037 197.356 31.3037C191.205 31.3037 189.799 27.13 189.799 24.1156C189.799 19.478 192.083 16.0771 197.707 16.0771C200.343 16.0771 204.561 17.0819 205 21.6422H200.607C200.431 20.7147 199.728 19.1688 197.707 19.3234C194.983 19.3234 194.28 21.7195 194.28 23.4972C194.28 25.0431 194.368 28.212 197.619 28.212C199.201 28.212 200.519 27.0527 200.519 25.6614H204.825Z" fill="#109CD8"/>
<path d="M0 0H5.44793V11.1301H19.5949C31.9846 19.1685 23.8127 29.7575 19.5071 31.3807H6.76598C5.18432 30.9169 0 25.1973 0 21.7191V0Z" fill="#109CD8"/>
<path d="M8.78629 15.9229H17.5733C23.8999 20.9469 18.1005 25.9709 17.3975 26.3573H8.78629C2.89902 21.7971 7.11676 16.5412 8.78629 15.9229Z" fill="white"/>
<path d="M11.1598 19.6328H9.8418V22.5699H11.1598V19.6328Z" fill="black"/>
<path d="M16.4323 19.6328H15.1143V22.5699H16.4323V19.6328Z" fill="black"/>
</svg>
