<svg width="32" height="32" viewBox="0 0 32 32" fill="none" xmlns="http://www.w3.org/2000/svg">
<path fill-rule="evenodd" clip-rule="evenodd" d="M11.0467 27.9846C7.70582 27.9742 7.59962 27.9727 7.55926 27.9372C7.53637 27.917 7.51194 27.8709 7.50496 27.8347C7.49799 27.7986 7.49108 27.2381 7.48961 26.5892C7.48661 25.2727 7.49092 25.3158 7.34561 25.1505C7.2321 25.0214 7.10023 24.9714 6.8138 24.9488C6.53816 24.927 6.0464 24.9392 5.93939 24.9705C5.75089 25.0256 5.5755 25.197 5.51212 25.3881C5.45455 25.5616 5.43549 25.9349 5.44853 26.6333C5.45532 26.9966 5.46671 27.4303 5.47384 27.597C5.48659 27.8949 5.48603 27.901 5.44124 27.9446C5.39721 27.9874 5.38716 27.9885 5.14394 27.9776C4.7337 27.959 4.56746 27.8926 4.34087 27.6564C4.19263 27.5019 4.08446 27.311 4.04741 27.1384C4.02049 27.0131 3.99209 21.158 4.00203 17.7839C4.00894 15.4395 4.01132 15.3005 4.04631 15.1888C4.13864 14.8942 4.43006 14.6073 4.76029 14.4858C4.84564 14.4544 5.05592 14.4512 7.66655 14.4411C10.1338 14.4316 10.5071 14.4264 10.6944 14.3985C10.9113 14.3662 10.9921 14.3333 11.0355 14.2598C11.0536 14.229 11.0622 13.7904 11.0702 12.4897C11.0807 10.7669 11.0809 10.7601 11.1256 10.6183C11.2759 10.1409 11.6038 9.83914 12.1225 9.70077C12.4161 9.62244 12.4931 9.55421 12.5686 9.30543C12.6336 9.09098 12.738 8.91551 12.8845 8.77432C12.9899 8.67273 13.0586 8.62804 13.2407 8.54283C13.5115 8.41615 13.5337 8.38901 13.5533 8.16096C13.5698 7.9682 13.5897 7.88503 13.6586 7.72015C13.7645 7.4666 13.9426 7.24867 14.1771 7.08549C14.3263 6.98168 14.4681 6.92369 14.7438 6.85374C14.916 6.81003 14.9916 6.80128 15.1843 6.80275C15.4727 6.80495 15.4801 6.79961 15.4932 6.58016C15.5104 6.2922 15.6395 3.9406 15.6609 3.52371C15.6728 3.29397 15.6857 2.9069 15.6896 2.66355C15.6959 2.27496 15.7014 2.21242 15.7347 2.14981C15.7923 2.04177 15.8624 2 15.9859 2C16.1296 2 16.2159 2.05117 16.2784 2.17356C16.3254 2.26559 16.3284 2.29349 16.3434 2.76579C16.352 3.03839 16.3863 3.76413 16.4195 4.37854C16.4528 4.99295 16.4853 5.75793 16.4919 6.07849C16.5046 6.70336 16.5161 6.77817 16.602 6.79562C16.6274 6.80078 16.7605 6.80922 16.8977 6.81438C17.1994 6.82572 17.3227 6.85612 17.5963 6.9866C17.7755 7.0721 17.8306 7.11063 17.977 7.2528C18.1076 7.37966 18.1654 7.45352 18.221 7.56473C18.3134 7.74934 18.3923 8.01782 18.4083 8.20154C18.4166 8.29772 18.433 8.35933 18.4585 8.3909C18.4793 8.41665 18.5912 8.48226 18.7072 8.53671C19.068 8.70613 19.2676 8.94196 19.3736 9.32438C19.4414 9.56891 19.469 9.59431 19.7276 9.65018C20.2057 9.7535 20.5942 10.0305 20.787 10.4055C20.9446 10.7119 20.937 10.6046 20.9383 12.5642L20.9394 14.3095L20.9917 14.3533C21.0401 14.3938 21.0703 14.3981 21.4008 14.411C21.5972 14.4186 22.9478 14.429 24.4024 14.4341C27.319 14.4443 27.1251 14.4356 27.3958 14.5683C27.7336 14.7339 27.9534 15.0581 27.9943 15.4512C28.0027 15.5321 28.0017 18.1816 27.992 21.3392C27.9768 26.3395 27.9706 27.0949 27.9446 27.1945C27.8225 27.661 27.3137 28.03 26.8367 27.9981C26.6635 27.9865 26.5614 27.9381 26.5235 27.8496C26.4981 27.7906 26.4973 27.7458 26.518 27.5373C26.579 26.9219 26.5738 25.569 26.5099 25.3996C26.4367 25.2057 26.2848 25.0638 26.073 24.9914C25.9731 24.9572 25.908 24.9528 25.5042 24.9528C25.0051 24.9528 24.916 24.9663 24.7655 25.0647C24.6619 25.1324 24.5905 25.2256 24.5464 25.3508C24.5155 25.4388 24.5121 25.5649 24.5121 26.6561C24.5121 27.8543 24.5118 27.8645 24.4701 27.9189L24.428 27.9738H20.9373C17.1584 27.9738 17.3594 27.9796 17.2829 27.8699C17.2491 27.8214 17.247 27.7273 17.247 26.235C17.247 24.9926 17.2415 24.6424 17.2217 24.6086C17.1714 24.5229 17.0902 24.5164 16.0694 24.516C15.0331 24.5156 15.0017 24.5184 14.9201 24.6191L14.8779 24.6711L14.8848 26.2974C14.8914 27.8377 14.8899 27.9255 14.8562 27.9585C14.8127 28.0009 15.2697 27.9977 11.0467 27.9846ZM10.4509 26.1952C10.7901 26.1718 10.8659 26.1551 10.9517 26.0849C11.0574 25.9982 11.0696 25.9438 11.0696 25.5587C11.0696 25.2349 11.0665 25.2058 11.0242 25.1279C10.9915 25.0677 10.9482 25.0274 10.8695 24.984L10.7602 24.9236H10.0417C9.39982 24.9236 9.31212 24.9274 9.21963 24.9588C9.07579 25.0076 8.98476 25.1095 8.9532 25.2569C8.91612 25.43 8.93734 25.8529 8.98879 25.9662C9.02706 26.0504 9.1166 26.134 9.20341 26.1665C9.31197 26.2073 10.0357 26.2239 10.4509 26.1952ZM22.7231 26.1593C23.0008 26.0929 23.1066 25.8303 23.0367 25.3813C22.9673 24.9358 22.9123 24.9143 21.8389 24.9141C21.2737 24.9139 21.2368 24.9161 21.1554 24.9545C20.9863 25.0342 20.9515 25.1201 20.9354 25.4986C20.9199 25.8603 20.9358 25.9692 21.016 26.0513C21.1538 26.1924 21.1485 26.1916 21.9224 26.1881C22.4189 26.1858 22.6465 26.1776 22.7231 26.1593ZM7.57446 23.9471C7.68898 23.8916 7.71913 23.8324 7.74177 23.6189C7.7562 23.4828 7.7554 23.3615 7.73899 23.1979C7.70049 22.8144 7.65393 22.7724 7.22745 22.7366C6.9152 22.7104 5.99884 22.7253 5.87477 22.7587C5.77023 22.7868 5.68907 22.861 5.64711 22.9668C5.61744 23.0417 5.61102 23.1122 5.61219 23.35C5.61301 23.5145 5.62409 23.677 5.63766 23.7231C5.66357 23.8111 5.73874 23.9101 5.80751 23.9468C5.89403 23.9929 6.02551 23.9988 6.75742 23.9899C7.41501 23.982 7.51327 23.9768 7.57446 23.9471ZM10.7702 23.9604C10.8824 23.9324 10.9649 23.8724 11.0139 23.783C11.0567 23.705 11.0596 23.6772 11.0596 23.35C11.0596 23.0177 11.0573 22.9963 11.0124 22.92C10.9851 22.8736 10.9303 22.8203 10.8826 22.7937C10.8004 22.7479 10.7978 22.7477 10.042 22.742C9.21128 22.7357 9.17697 22.7395 9.06815 22.85C8.97071 22.9491 8.957 23.0131 8.95553 23.3761C8.95433 23.673 8.95869 23.72 8.99351 23.7865C9.04466 23.8841 9.18941 23.9538 9.39303 23.9789C9.56879 24.0006 10.6684 23.9859 10.7702 23.9604ZM22.6236 23.963C22.8656 23.9435 22.9106 23.9203 22.9853 23.7764C23.0311 23.688 23.0353 23.6582 23.0366 23.4083C23.0387 23.0345 23.02 22.9406 22.9267 22.8538C22.8861 22.816 22.8175 22.775 22.7743 22.7627C22.7235 22.7482 22.4426 22.7382 21.9773 22.7343C21.3219 22.7288 21.2518 22.7313 21.1797 22.763C20.9923 22.8453 20.946 22.9448 20.9336 23.2918C20.9222 23.6111 20.9464 23.7345 21.0415 23.8427C21.1529 23.9694 21.2081 23.9786 21.8576 23.9792C22.1649 23.9795 22.5097 23.9722 22.6236 23.963ZM26.1688 23.9391C26.2504 23.8959 26.3098 23.8306 26.3516 23.7383C26.3803 23.675 26.3862 23.6096 26.3841 23.3804C26.381 23.0478 26.3579 22.9513 26.2586 22.8546C26.1405 22.7396 26.0857 22.7325 25.2944 22.7303C24.6598 22.7285 24.5843 22.7316 24.5129 22.763C24.4103 22.8081 24.3676 22.8469 24.3161 22.942C24.2795 23.0096 24.2731 23.0609 24.2663 23.3362C24.262 23.5103 24.2645 23.6835 24.2717 23.7211C24.2881 23.8061 24.4063 23.9364 24.4896 23.9612C24.5259 23.972 24.8773 23.9779 25.3305 23.9753C26.0069 23.9714 26.1167 23.9666 26.1688 23.9391ZM18.3613 22.4866C18.5895 22.4003 18.7134 22.2321 18.7138 22.008C18.7141 21.8303 18.6657 21.7167 18.5356 21.59C18.3409 21.4003 18.5438 21.4141 15.9855 21.4162C14.6312 21.4173 13.7267 21.4254 13.6843 21.4367C13.5117 21.4826 13.3911 21.6114 13.3248 21.8204C13.2541 22.043 13.2787 22.1969 13.4075 22.3397C13.4792 22.4192 13.6199 22.5049 13.7071 22.5222C13.7398 22.5287 14.7742 22.5332 16.0057 22.5323L18.2449 22.5306L18.3613 22.4866ZM7.52304 21.7467C7.56487 21.7323 7.62478 21.692 7.65619 21.6572C7.72819 21.5774 7.73982 21.4877 7.73041 21.0844C7.71786 20.5463 7.70135 20.5382 6.61869 20.5348C5.94714 20.5327 5.8635 20.5443 5.75475 20.6549C5.6596 20.7516 5.64341 20.822 5.63725 21.1659C5.63223 21.4456 5.63607 21.4933 5.66846 21.5529C5.73922 21.6832 5.81198 21.7353 5.96655 21.7665C6.10566 21.7945 7.43341 21.7777 7.52304 21.7467ZM10.7503 21.7652C10.8673 21.7392 10.9797 21.6661 11.0241 21.587C11.0546 21.5327 11.0596 21.4717 11.0596 21.1546C11.0596 20.8048 11.0573 20.7818 11.0144 20.7147C10.9895 20.6758 10.9373 20.6292 10.8984 20.6112C10.7826 20.5577 10.4586 20.5378 9.85209 20.5468C9.28448 20.5553 9.28303 20.5554 9.18048 20.6066C9.12396 20.6348 9.04986 20.6908 9.01582 20.731C8.95652 20.801 8.95396 20.8114 8.95479 20.9793C8.95752 21.5285 9.01974 21.7262 9.20425 21.7718C9.28171 21.791 10.6606 21.785 10.7503 21.7652ZM22.8576 21.7355C22.9118 21.7098 22.949 21.6723 22.9803 21.6119C23.0218 21.5317 23.0252 21.4994 23.0252 21.179C23.0252 20.7961 23.0128 20.7404 22.9087 20.6552C22.8142 20.5778 22.6934 20.5629 22.0507 20.5496C21.2588 20.5332 21.078 20.5626 20.9776 20.7242C20.9436 20.7787 20.9395 20.8251 20.9398 21.1449C20.9401 21.4705 20.9442 21.5129 20.9828 21.595C21.0344 21.7045 21.0949 21.7461 21.2336 21.7676C21.2914 21.7765 21.6629 21.7813 22.0592 21.7782C22.7199 21.773 22.7863 21.7694 22.8576 21.7355ZM26.182 21.718C26.4227 21.5559 26.466 21.0951 26.2731 20.7494C26.1798 20.5823 26.144 20.5685 25.7329 20.5405C25.4753 20.523 25.3006 20.5231 24.9813 20.5408C24.4417 20.5707 24.3823 20.5875 24.3119 20.7306C24.2822 20.7909 24.2737 20.867 24.2667 21.1352C24.2575 21.4884 24.272 21.5875 24.3459 21.6789C24.4313 21.7846 24.4442 21.786 25.3038 21.7809L26.0955 21.7763L26.182 21.718ZM18.3582 19.9275C18.483 19.8714 18.6222 19.7434 18.6758 19.6357C18.8025 19.3809 18.6622 19.0326 18.3783 18.8969L18.2649 18.8427L17.4566 18.8302C16.0354 18.8083 13.8168 18.8113 13.7018 18.8353C13.4096 18.8963 13.1943 19.3367 13.3207 19.6149C13.3983 19.7855 13.5573 19.9162 13.7388 19.9583C13.7813 19.9681 14.7812 19.9744 16.0395 19.9726L18.2649 19.9695L18.3582 19.9275ZM22.7212 19.561C22.854 19.5227 22.9397 19.4509 22.9979 19.3292C23.0401 19.2409 23.0448 19.2039 23.0449 18.9538C23.0452 18.6444 23.0277 18.5765 22.9199 18.4682C22.8078 18.3554 22.7426 18.3473 21.9487 18.3474C21.5428 18.3474 21.2084 18.3557 21.1678 18.3667C21.0868 18.3886 21.0029 18.466 20.968 18.5513C20.94 18.6195 20.9184 19.1016 20.9377 19.227C20.9543 19.3342 21.0302 19.4509 21.1243 19.5137C21.1911 19.5584 21.2174 19.5622 21.5267 19.5723C22.2409 19.5957 22.6134 19.5922 22.7212 19.561ZM7.57012 19.5098C7.70446 19.4233 7.72547 19.3568 7.73274 18.9952C7.74136 18.5664 7.70678 18.463 7.52841 18.3841C7.45376 18.3511 7.38355 18.3481 6.68292 18.3477C5.87614 18.3472 5.83528 18.3512 5.7341 18.4403C5.63994 18.5232 5.62165 18.5993 5.6226 18.9041C5.62364 19.2361 5.65066 19.3618 5.74305 19.4642C5.7768 19.5017 5.8327 19.5405 5.86726 19.5504C5.90248 19.5606 6.27285 19.567 6.71 19.565L7.48991 19.5615L7.57012 19.5098ZM10.7997 19.5496C10.9014 19.5221 11.0191 19.4075 11.0473 19.3085C11.0758 19.2088 11.0759 18.7106 11.0476 18.6095C11.0123 18.4838 10.9426 18.4107 10.8259 18.377C10.7421 18.3528 10.5955 18.3474 10.0331 18.3477C9.3092 18.3482 9.21177 18.3572 9.09178 18.4339C8.79578 18.6233 8.91405 19.4613 9.249 19.548C9.35479 19.5754 10.6992 19.5767 10.7997 19.5496ZM26.1033 19.5509C26.1441 19.5399 26.205 19.5083 26.2387 19.4807C26.3485 19.3908 26.362 19.3418 26.3688 19.0097C26.3773 18.5918 26.3444 18.4899 26.1721 18.4002C26.09 18.3575 26.0784 18.357 25.2771 18.357C24.4829 18.357 24.464 18.3579 24.4088 18.3979C24.2834 18.4889 24.2726 18.5323 24.2726 18.9495C24.2726 19.3953 24.289 19.4511 24.4427 19.5275C24.5292 19.5706 24.5421 19.5712 25.2798 19.5711C25.7336 19.5711 26.0583 19.5631 26.1033 19.5509ZM7.52756 17.327C7.59838 17.2844 7.64005 17.2401 7.68064 17.1645C7.73565 17.062 7.73641 17.0559 7.73641 16.7121C7.73641 16.3415 7.72826 16.3023 7.63327 16.216C7.60739 16.1925 7.54142 16.1531 7.48667 16.1286C7.38938 16.0849 7.37263 16.0839 6.74843 16.0839C6.14047 16.0839 6.10205 16.0861 5.95006 16.1288C5.77077 16.1792 5.69162 16.2382 5.65977 16.3451C5.6247 16.4628 5.61201 16.8899 5.64007 17.0081C5.67433 17.1524 5.74559 17.2666 5.83482 17.3203C5.93555 17.3809 6.09166 17.3916 6.82987 17.3883L7.43025 17.3856L7.52756 17.327ZM18.2203 17.3487C18.7335 17.2027 18.8938 16.6862 18.5242 16.3695C18.3368 16.209 18.5271 16.2206 15.9924 16.2146L13.7399 16.2092L13.6372 16.2552C13.4894 16.3213 13.4154 16.3899 13.3461 16.5249C13.2951 16.6242 13.2851 16.6667 13.2851 16.7826C13.2851 17.0201 13.4135 17.2016 13.6619 17.315L13.7741 17.3662L14.4926 17.3759C14.8878 17.3812 15.8647 17.384 16.6635 17.382C17.9007 17.379 18.1313 17.3741 18.2203 17.3487ZM22.5162 17.3651C22.7164 17.351 22.7971 17.3249 22.888 17.245C23.0343 17.1164 23.0553 17.0539 23.0536 16.7542C23.0528 16.6099 23.0411 16.4546 23.0278 16.4091C22.9964 16.3018 22.8987 16.1947 22.7857 16.1438C22.701 16.1057 22.6555 16.103 21.9952 16.097C21.2076 16.0898 21.1628 16.0951 21.0469 16.2078C20.9568 16.2955 20.9393 16.388 20.9397 16.7736C20.94 17.0107 20.9445 17.0443 20.9868 17.1233C21.0377 17.2182 21.1158 17.3078 21.179 17.3435C21.2456 17.3813 22.0933 17.395 22.5162 17.3651ZM10.8002 17.3312C10.9196 17.2788 11.0067 17.1865 11.0402 17.0766C11.0765 16.9576 11.0818 16.3861 11.0472 16.3206C11.0036 16.238 10.9222 16.1719 10.8219 16.1379C10.7322 16.1074 10.6401 16.1033 10.0317 16.1033C9.28802 16.1033 9.22768 16.11 9.11147 16.2052C9.07636 16.2339 9.02894 16.2971 9.00609 16.3455C8.96873 16.4247 8.96495 16.4655 8.96868 16.7487C8.97386 17.1418 9.00529 17.2329 9.16345 17.3131C9.27318 17.3688 9.33887 17.3731 10.0317 17.3696C10.6473 17.3665 10.7288 17.3624 10.8002 17.3312ZM26.1488 17.3391C26.34 17.2533 26.3854 17.1445 26.3852 16.7736C26.385 16.3699 26.3369 16.2435 26.1488 16.1519L26.049 16.1033L25.3476 16.0972C24.8728 16.093 24.6194 16.098 24.5631 16.1128C24.4522 16.1418 24.3332 16.25 24.2888 16.362C24.259 16.437 24.2531 16.5061 24.2552 16.7542C24.2566 16.9198 24.2672 17.0784 24.2788 17.1066C24.3099 17.1822 24.4182 17.295 24.5002 17.3372C24.5671 17.3716 24.6238 17.3742 25.3205 17.3746C26.0066 17.375 26.0756 17.372 26.1488 17.3391ZM17.8891 14.7925C18.0996 14.7828 18.3093 14.764 18.3552 14.7507C18.5562 14.692 18.7204 14.4618 18.7206 14.2382C18.7209 14.0185 18.5573 13.7814 18.359 13.714C18.1997 13.6599 17.7143 13.647 15.76 13.6451C13.7331 13.6431 13.7911 13.6404 13.5692 13.7506C13.4487 13.8104 13.3784 13.883 13.3231 14.0046C13.2366 14.195 13.2843 14.4875 13.4278 14.6466C13.5066 14.734 13.6136 14.769 13.8639 14.7891C14.1454 14.8118 17.407 14.8145 17.8891 14.7925ZM18.3875 12.1354C18.5552 12.049 18.7134 11.8104 18.7138 11.6435C18.7141 11.526 18.6472 11.3386 18.5745 11.2527C18.5422 11.2146 18.4825 11.168 18.4417 11.1492C18.2642 11.0672 18.1138 11.062 15.8868 11.0619L13.7682 11.0617L13.6259 11.133C13.3766 11.2578 13.2766 11.4062 13.2797 11.6471C13.2829 11.8947 13.465 12.1053 13.733 12.1711C13.7666 12.1794 14.809 12.1843 16.0494 12.1821L18.3048 12.178L18.3875 12.1354V12.1354Z" fill="#6D6D6D"/>
</svg>
