<svg width="32" height="32" viewBox="0 0 32 32" fill="none" xmlns="http://www.w3.org/2000/svg">
<path fill-rule="evenodd" clip-rule="evenodd" d="M9 29.4021H24V30H9V29.4021ZM9.40656 28.4256H23.5934V29.0434H9.40656V28.4256ZM9.98431 27.4491H23.0157V28.0669H9.98431V27.4491ZM10.1983 8.44221L12.9433 6.95594C14.4531 6.13849 15.7049 5.46376 15.7251 5.45654C15.7597 5.44416 15.7618 6.05086 15.7618 16.2968V27.1502H10.1983V8.44221ZM11.9315 25.3964H10.883V26.373H11.9315V25.3964ZM13.4508 25.3964H12.4023V26.373H13.4508V25.3964ZM14.9807 25.4064L13.9215 25.3957V26.373H14.9922L14.9807 25.4064ZM11.9315 23.9616H10.883V24.9381H11.9315V23.9616ZM13.4508 23.9616H12.4023V24.9381H13.4508V23.9616ZM14.9922 23.9616H13.9215V24.4365C13.9215 24.6978 13.9281 24.9176 13.9362 24.9251C13.9442 24.9326 14.1825 24.9364 14.4658 24.9334L14.9807 24.9281L14.9922 23.9616ZM11.9315 22.5068H10.883V23.4833H11.9315V22.5068ZM13.4508 22.5068H12.4023V23.4833H13.4508V22.5068ZM14.9807 22.5167H13.9322L13.9208 23.4833H14.9922L14.9807 22.5167ZM11.9315 21.0719H10.883V22.0484H11.9315V21.0719ZM13.4508 21.0719H12.4023V22.0484H13.4508V21.0719ZM14.9914 21.0719H13.9215V22.0484H14.9914V21.0719ZM11.9315 19.637H10.883V20.6135H11.9315V19.637ZM13.4508 19.637H12.4023V20.6135H13.4508V19.637ZM14.9922 19.637H13.9215V20.112C13.9215 20.3732 13.9281 20.5931 13.9362 20.6006C13.9442 20.6081 14.1825 20.6118 14.4658 20.6089L14.9807 20.6036L14.9922 19.637ZM11.9315 18.1822H10.883V19.1587H11.9315V18.1822ZM13.4508 18.1822H12.4023V19.1587H13.4508V18.1822ZM14.9807 18.1922L13.9215 18.1815V19.1587H14.9922L14.9807 18.1922ZM11.9315 16.7473H10.883V17.7238H11.9315V16.7473ZM13.4508 16.7473H12.4023V17.7238H13.4508V16.7473ZM14.9922 16.7473H13.9215V17.7245L14.9807 17.7139L14.9922 16.7473ZM11.9323 15.2925H10.883V16.2897L11.9208 16.279L11.9323 15.2925ZM13.4508 15.2925H12.4023V15.7775C12.4023 16.0442 12.4087 16.2684 12.4165 16.2757C12.4244 16.283 12.6603 16.289 12.9408 16.289H13.4508V15.2925ZM14.9807 15.3025H13.9322L13.9265 15.7704C13.9233 16.0278 13.9255 16.2499 13.9313 16.264C13.9396 16.2842 14.0531 16.2885 14.4613 16.2843L14.9807 16.279V15.3025ZM11.9315 13.8577H10.883V14.8342H11.9315V13.8577ZM13.4508 13.8577H12.4023V14.8342H13.4508V13.8577ZM14.9807 13.8676L13.9215 13.857V14.8342H14.9922L14.9807 13.8676ZM11.9315 12.4228H10.883V13.3993H11.9315V12.4228ZM13.4508 12.4228H12.4023V13.3993H13.4508V12.4228ZM14.9922 12.4228H13.9215V12.8977C13.9215 13.159 13.9281 13.3788 13.9362 13.3863C13.9442 13.3938 14.1825 13.3976 14.4658 13.3947L14.9807 13.3893L14.9922 12.4228ZM11.9315 10.968H10.883V11.9445H11.9315V10.968ZM13.4508 10.968H12.4023V11.9445H13.4508V10.968ZM14.9807 10.9779H13.9322L13.9208 11.9445H14.9922L14.9807 10.9779ZM11.9315 9.5331H10.883V10.5096H11.9315V9.5331ZM13.4508 9.5331H12.4023V10.5096H13.4508V9.5331ZM14.9922 9.5331H13.9215V10.5103L14.9807 10.4996L14.9922 9.5331ZM16.1683 8.73594H16.8317V27.1502H16.1683V8.73594ZM17.281 14.5751C17.281 7.65879 17.2859 2 17.2918 2C17.303 2 22.6522 5.41538 22.775 5.5009L22.8445 5.54936V27.1502H17.281V14.5751ZM19.0143 25.3964H17.9658V26.373H19.0143V25.3964ZM20.5335 25.3964H19.485V26.373H20.5335V25.3964ZM22.0742 25.3958L21.015 25.4064L21.0035 26.373H22.0742V25.3958ZM19.0143 23.9616H17.9658V24.9381H19.0143V23.9616ZM20.5335 23.9616H19.485V24.9381H20.5335V23.9616ZM22.0749 23.9616H21.0043V24.4365C21.0043 24.6978 21.0109 24.9176 21.0189 24.9251C21.027 24.9326 21.2653 24.9364 21.5485 24.9334L22.0635 24.9281L22.0749 23.9616ZM19.0143 22.5068H17.9658V23.4833H19.0143V22.5068ZM20.5335 22.5068H19.485V23.4833H20.5335V22.5068ZM22.0635 22.5167H21.015L21.0035 23.4833H22.0749L22.0635 22.5167ZM19.0143 21.0719H17.9658V22.0484H19.0143V21.0719ZM20.5335 21.0719H19.485V22.0484H20.5335V21.0719ZM22.0742 21.0719H21.0043V22.0484H22.0742V21.0719ZM19.0143 19.637H17.9658V20.6135H19.0143V19.637ZM20.5335 19.637H19.485V20.6135H20.5335V19.637ZM22.0749 19.637H21.0043V20.112C21.0043 20.3732 21.0109 20.5931 21.0189 20.6006C21.027 20.6081 21.2653 20.6118 21.5485 20.6089L22.0635 20.6036L22.0749 19.637ZM19.0143 18.1822H17.9658V19.1587H19.0143V18.1822ZM20.5335 18.1822H19.485V19.1587H20.5335V18.1822ZM22.0635 18.1922H21.015L21.0035 19.1587H22.0749L22.0635 18.1922ZM19.0143 16.7473H17.9658V17.7238H19.0143V16.7473ZM20.5335 16.7473H19.485V17.7238H20.5335V16.7473ZM22.0742 16.7473H21.0043V17.2223C21.0043 17.4835 21.0107 17.7033 21.0185 17.7106C21.0264 17.7179 21.2671 17.7238 21.5535 17.7238H22.0742V16.7473ZM19.015 15.2925H17.9658V16.2897L19.0036 16.279L19.015 15.2925ZM20.5335 15.2925H19.485V15.7775C19.485 16.0442 19.4914 16.2684 19.4993 16.2757C19.5071 16.283 19.743 16.289 20.0235 16.289H20.5335V15.2925ZM22.0635 15.3025H21.015L21.0092 15.7704C21.0061 16.0278 21.0082 16.2499 21.014 16.264C21.0224 16.2842 21.1358 16.2885 21.5441 16.2843L22.0635 16.279V15.3025ZM19.0143 13.8577H17.9658V14.8342H19.0143V13.8577ZM20.5335 13.8577H19.485V14.8342H20.5335V13.8577ZM22.0742 13.8577H21.0043V14.8342H22.0742V13.8577ZM19.0143 12.4228H17.9658V13.3993H19.0143V12.4228ZM20.5335 12.4228H19.485V13.3993H20.5335V12.4228ZM22.0749 12.4228H21.0043V12.8977C21.0043 13.159 21.0109 13.3788 21.0189 13.3863C21.027 13.3938 21.2653 13.3976 21.5485 13.3947L22.0635 13.3893L22.0749 12.4228ZM19.0143 10.968H17.9658V11.9445H19.0143V10.968ZM20.5335 10.968H19.485V11.9445H20.5335V10.968ZM22.0635 10.9779H21.015L21.0035 11.9445H22.0749L22.0635 10.9779ZM19.0143 9.5331H17.9658V10.5096H19.0143V9.5331ZM20.5335 9.5331H19.485V10.5096H20.5335V9.5331ZM22.0742 9.5331H21.0043V10.5096H22.0742V9.5331ZM19.0143 8.07829H17.9658V9.0548H19.0143V8.07829ZM20.5335 8.07829H19.485V9.0548H20.5335V8.07829ZM22.0749 8.07829H21.0043V8.55326C21.0043 8.8145 21.0109 9.03437 21.0189 9.04186C21.027 9.04936 21.2653 9.0531 21.5485 9.05017L22.0635 9.04484L22.0749 8.07829ZM19.0036 6.61352L17.9658 6.60285V7.6H19.015L19.0036 6.61352ZM20.5335 6.60285L19.4957 6.61352L19.49 7.08144C19.4868 7.33879 19.4889 7.56075 19.4946 7.57468C19.5027 7.59418 19.6232 7.6 20.0193 7.6H20.5335V6.60285ZM22.0635 6.61352H21.015L21.0092 7.08144C21.0061 7.33879 21.0082 7.56091 21.014 7.57503C21.0224 7.59522 21.1358 7.59957 21.5441 7.59537L22.0635 7.59004V6.61352Z" fill="#6D6D6D"/>
</svg>
