<svg width="32" height="32" viewBox="0 0 32 32" fill="none" xmlns="http://www.w3.org/2000/svg">
<path fill-rule="evenodd" clip-rule="evenodd" d="M0.0392597 27.9686C0.0127079 27.9474 0 27.919 0 27.881C0 27.8429 0.0127079 27.8145 0.0392597 27.7933C0.0767267 27.7633 0.14565 27.7619 1.55006 27.7619H3.0216L3.03103 20.2364L3.06719 20.1684C3.12425 20.061 3.18918 20.0337 3.40467 20.0264L3.58868 20.0201L3.59942 19.8987C3.60533 19.8319 3.60785 18.0907 3.60503 16.0295L3.59989 12.2817L3.48784 12.2538C3.13428 12.166 2.8954 11.8352 2.95013 11.5093C2.99845 11.2216 3.20766 11.0074 3.48869 10.9579L3.60372 10.9376L3.61381 10.7964C3.62902 10.5838 3.71591 10.4522 3.87853 10.3955C3.97705 10.3612 6.22307 10.3617 6.32351 10.3961C6.47626 10.4484 6.56792 10.5638 6.58361 10.7236C6.60364 10.9277 6.59951 10.9198 6.69892 10.9429C7.0432 11.0229 7.28278 11.3283 7.25896 11.6568C7.24862 11.7995 7.19134 11.9252 7.08263 12.0438C6.98148 12.1542 6.875 12.2174 6.72915 12.2537C6.62888 12.2786 6.61629 12.2866 6.60414 12.3329C6.59671 12.3612 6.59258 14.1013 6.59497 16.1998L6.59932 20.0153L6.80128 20.0243C7.01898 20.034 7.05591 20.048 7.13264 20.1495L7.16818 20.1965L7.15855 27.7619H7.36641V22.1024C7.36641 17.1106 7.36945 16.4387 7.39216 16.4067C7.41594 16.3732 7.41338 16.3638 7.35831 16.2831C7.28351 16.1734 7.268 16.0999 7.30487 16.0295C7.35682 15.9304 7.4889 15.9441 7.52871 16.0527C7.56829 16.1607 7.59235 16.1787 7.91361 16.3401C8.09144 16.4294 8.36493 16.5761 8.52137 16.6661C8.6778 16.756 9.31389 17.1095 9.93489 17.4515C10.5559 17.7935 11.2999 18.2061 11.5883 18.3683C11.8767 18.5305 12.1218 18.6633 12.133 18.6633C12.1663 18.6633 12.1757 18.3973 12.1758 17.4544L12.1759 16.5772L12.2614 16.4106L12.2025 16.3507C12.1318 16.2789 12.1019 16.2079 12.1159 16.1451C12.1309 16.0774 12.1799 16.0409 12.2471 16.0473C12.292 16.0516 12.3144 16.0679 12.3525 16.124C12.3838 16.1701 12.4266 16.206 12.4737 16.2258C12.6171 16.2861 12.8028 16.3865 15.2573 17.7321C16.625 18.4819 17.7806 19.1228 17.8255 19.1562C17.8795 19.1965 17.9245 19.2508 17.959 19.3173L18.011 19.4177L18.02 27.7619H18.1575L18.1583 18.7015C18.1587 13.7183 18.1656 9.60783 18.1736 9.56706C18.1896 9.4851 18.23 9.42328 18.3021 9.37012C18.3463 9.33752 18.3775 9.33466 18.7465 9.3294L19.1433 9.32374L19.1787 9.24436C19.265 9.05035 19.3731 8.9511 19.5725 8.88274L19.6831 8.84482L23.5014 8.84066C25.6014 8.83837 27.3676 8.8428 27.4263 8.8505C27.6629 8.88158 27.8648 9.02937 27.9511 9.23483L27.9887 9.32431L28.3781 9.32968C28.8124 9.33568 28.8597 9.34613 28.9235 9.45013C28.9568 9.50449 28.9573 9.61127 28.9658 18.6293L28.9745 27.7534L30.4626 27.7619C31.9107 27.7702 31.9515 27.7713 31.9753 27.8034C32.0135 27.8549 32.0063 27.9425 31.9614 27.9735C31.9268 27.9974 30.3839 28 16.0009 28C0.552771 28 0.077349 27.9991 0.0392597 27.9686ZM23.0365 24.9685C23.176 24.8991 23.1737 24.914 23.1737 24.0867V23.3622L23.1343 23.3044C23.1118 23.2714 23.0694 23.2379 23.0352 23.2263C22.9905 23.2111 22.5189 23.2058 21.1569 23.2051C19.4587 23.2042 19.3343 23.2061 19.2783 23.2339C19.2045 23.2704 19.1478 23.3511 19.1354 23.437C19.1303 23.4726 19.1312 23.804 19.1375 24.1735C19.1502 24.9167 19.1512 24.923 19.2607 24.977C19.317 25.0048 19.4428 25.0068 21.1403 25.0068H22.9596L23.0365 24.9685ZM27.8798 24.977C27.9299 24.9523 27.9438 24.9329 27.962 24.8622C28.014 24.6611 28.0178 23.5533 27.9673 23.3486C27.9581 23.3112 27.9313 23.2643 27.9078 23.2443C27.8653 23.2081 27.8596 23.2079 26.7649 23.2017C26.1598 23.1984 25.3195 23.1994 24.8976 23.2041C24.0463 23.2135 24.0522 23.2127 23.9885 23.3277C23.9608 23.3777 23.9581 23.4458 23.9581 24.0884C23.9581 24.77 23.9593 24.7965 23.9939 24.8616C24.0173 24.9055 24.0557 24.9425 24.1043 24.9679L24.179 25.0068H25.9992C27.6976 25.0068 27.8235 25.0048 27.8798 24.977ZM22.9861 22.7445C23.0452 22.7335 23.0946 22.7117 23.122 22.6846L23.1651 22.6421L23.1696 19.7593C23.1745 16.5753 23.1826 16.8091 23.0657 16.7461C23.0134 16.7179 22.8963 16.716 21.1642 16.716H19.3184L19.255 16.7636C19.2202 16.7899 19.1782 16.8358 19.1616 16.8657C19.1332 16.9169 19.1314 17.0856 19.1314 19.7092C19.1314 22.3139 19.1334 22.5046 19.1615 22.5941C19.1918 22.6908 19.2293 22.7238 19.3383 22.7498C19.4103 22.7669 22.8932 22.7619 22.9861 22.7445ZM27.8159 22.7389C27.8466 22.7263 27.896 22.6887 27.9256 22.6553C27.9771 22.5975 27.9803 22.5853 27.9943 22.3934C28.0146 22.1163 28.008 17.6525 27.9867 17.2007C27.9764 16.9826 27.9608 16.8165 27.9481 16.7891C27.9363 16.7637 27.9035 16.7352 27.8748 16.7254C27.8398 16.7133 27.228 16.7075 25.9986 16.7075C23.9801 16.7075 24.0788 16.7022 23.9967 16.8157L23.9581 16.8691L23.9529 19.6412C23.9501 21.1658 23.9527 22.4617 23.9587 22.521C23.9729 22.6592 24.0282 22.7276 24.1406 22.7455C24.1824 22.7522 25.014 22.7586 25.9884 22.7598C27.4412 22.7615 27.7702 22.7578 27.8159 22.7389ZM6.1856 12.0902L6.22589 12.0262C6.28263 11.9362 6.38575 11.8821 6.54552 11.8587C6.69023 11.8375 6.75911 11.7973 6.8068 11.7063C6.89258 11.5427 6.77454 11.3874 6.52908 11.3411C6.27968 11.294 6.17699 11.1916 6.17699 10.99C6.17699 10.938 6.17213 10.8715 6.16619 10.8422L6.15539 10.7889L4.04808 10.7976L4.03706 10.9519C4.01739 11.2275 3.92655 11.33 3.67605 11.3594C3.53525 11.3759 3.47612 11.3985 3.42876 11.454C3.34208 11.5557 3.35342 11.6717 3.45997 11.7736C3.50741 11.819 3.53955 11.8312 3.66998 11.8534C3.8586 11.8855 3.9339 11.9299 3.98997 12.0423L4.03084 12.1242V20.0241L6.16837 20.0153L6.1856 12.0902ZM23.041 16.3438C23.0822 16.3236 23.119 16.2875 23.1401 16.2467C23.1731 16.183 23.1738 16.1238 23.1738 13.3389V10.4962L23.1365 10.4307C23.0596 10.2959 23.1967 10.305 21.1783 10.2998C19.5397 10.2956 19.3762 10.2976 19.3252 10.3231C19.2458 10.3628 19.2106 10.3968 19.1684 10.4745L19.1314 10.5425V13.3402C19.1314 16.0497 19.1325 16.1398 19.164 16.2025C19.2076 16.289 19.2924 16.3498 19.3933 16.3669C19.4389 16.3747 20.2635 16.3798 21.2258 16.3784C22.9033 16.376 22.9782 16.3745 23.041 16.3438ZM27.8838 16.352C27.9156 16.3359 27.9437 16.2971 27.97 16.2329L28.009 16.1378V10.5425L27.9659 10.4584C27.9349 10.3979 27.9035 10.3645 27.8539 10.3393C27.7856 10.3048 27.7665 10.3044 25.965 10.3044H24.145L24.0817 10.3521C24.0469 10.3783 24.0048 10.4242 23.9882 10.4541C23.9599 10.5053 23.9581 10.6761 23.9581 13.3402C23.9581 16.08 23.9591 16.1739 23.9906 16.2363C24.029 16.3126 24.0983 16.3531 24.2167 16.3687C24.2641 16.3749 25.098 16.379 26.0698 16.3779C27.5498 16.3762 27.8443 16.372 27.8838 16.352Z" fill="#6D6D6D"/>
<path fill-rule="evenodd" clip-rule="evenodd" d="M7.70274 3.58258C7.65679 3.59601 7.61321 3.61331 7.56979 3.63478C7.53628 3.65133 7.46311 3.68759 7.40846 3.71436C6.90444 3.96715 6.55107 4.4923 6.49511 5.07285C6.49073 5.11613 6.48967 5.21449 6.49213 5.29085C6.49458 5.3672 6.49272 5.4336 6.48899 5.44026C6.48526 5.44693 6.42875 5.47701 6.36361 5.50677C5.93067 5.7113 5.62603 6.09227 5.54252 6.53496C5.51851 6.66649 5.51424 6.74895 5.52553 6.90405L5.53408 7.02072L5.40628 7.09355C4.99705 7.33056 4.75975 7.74276 4.76476 8.20648C4.76651 8.29985 4.77605 8.35181 4.82675 8.52511C4.88292 8.71227 4.89421 8.74125 4.95763 8.83668C5.07995 9.02181 5.20624 9.14278 5.39471 9.25304C5.89102 9.54184 6.52989 9.45381 6.94296 9.04057C7.03399 8.9488 7.17711 8.7245 7.2266 8.59272L7.24689 8.54072L7.35301 8.55393C7.70216 9.44973 8.77486 9.03527 9.2069 8.51479C9.45556 8.21523 10.3692 7.9922 11.2252 8.79383C11.9084 9.4337 12.6045 9.36778 13.1771 9.05108C13.6685 8.77923 13.8861 7.91055 13.8602 7.52565C13.858 7.49404 14.0638 7.35764 14.1521 7.30027C14.4587 7.10087 14.709 6.79143 14.8337 6.46031C14.9749 6.08385 14.9538 5.63311 14.7789 5.26821C14.3376 4.34727 13.1365 4.01817 12.2041 4.56387C12.1373 4.60251 12.0783 4.62911 12.0703 4.6258C12.0631 4.62083 12.0522 4.58331 12.0474 4.54264C12.0343 4.42027 11.949 4.14334 11.888 4.02202C11.77 3.79361 11.6284 3.61537 11.4344 3.45206C11.0061 3.09485 10.4052 2.9339 9.84393 3.02506C9.67832 3.0512 9.32649 3.16401 9.20504 3.22942C9.07347 3.2991 8.88451 3.42995 8.79253 3.51358C8.74897 3.55401 8.70521 3.58889 8.69603 3.5915C8.68686 3.59411 8.62425 3.58394 8.55842 3.56766C8.35832 3.51956 8.16716 3.51654 7.84997 3.55362C7.79704 3.55958 7.74869 3.56914 7.70274 3.58258ZM7.79743 3.89726C7.82371 3.88958 7.852 3.88431 7.88777 3.88028C7.88824 3.88023 7.8887 3.88018 7.88917 3.88012C8.18873 3.8451 8.32376 3.84965 8.47953 3.88709L8.47738 3.88657C8.51857 3.89676 8.55688 3.90475 8.59188 3.9107C8.60938 3.91367 8.62549 3.91617 8.64538 3.91821C8.65533 3.91923 8.66587 3.92024 8.6827 3.92062C8.69954 3.92099 8.71108 3.92944 8.78845 3.90741C8.91276 3.87202 8.88694 3.86248 8.90227 3.8517C8.91759 3.84093 8.92943 3.83169 8.94199 3.82159C8.96712 3.80138 8.99337 3.7786 9.02087 3.75308L9.01839 3.75537C9.07052 3.70797 9.26714 3.56972 9.36267 3.51912C9.36335 3.51876 9.36403 3.51839 9.3647 3.51802C9.39 3.5044 9.80595 3.36405 9.89658 3.34974C9.89708 3.34967 9.89759 3.34959 9.89809 3.34952C10.3594 3.27459 10.87 3.41227 11.2186 3.70264C11.3815 3.83984 11.4894 3.97526 11.5898 4.16899C11.6163 4.22249 11.7132 4.55162 11.716 4.57713C11.7161 4.57831 11.7162 4.57948 11.7164 4.58065C11.7208 4.61805 11.727 4.65048 11.7368 4.68539C11.7417 4.70285 11.7469 4.72028 11.758 4.74593C11.7692 4.77157 11.7479 4.80364 11.878 4.89435C11.8981 4.90836 11.9197 4.92013 11.9424 4.92945C12.0829 4.98703 12.1123 4.95364 12.1397 4.94833C12.1672 4.94302 12.1813 4.93807 12.1942 4.93367C12.22 4.92486 12.2372 4.91719 12.2558 4.90867C12.2929 4.89162 12.3311 4.87155 12.3727 4.84753C12.3732 4.84724 12.3737 4.84695 12.3742 4.84666C13.148 4.39376 14.1231 4.66885 14.4776 5.40873C14.4776 5.40871 14.4776 5.40874 14.4776 5.40873C14.6116 5.68822 14.6285 6.05972 14.5211 6.34605C14.4235 6.60507 14.2126 6.86707 13.9688 7.02565C13.9226 7.05566 13.8461 7.10586 13.7745 7.15794C13.7386 7.18399 13.7048 7.20938 13.6692 7.24106C13.6514 7.2569 13.6333 7.273 13.6087 7.3033C13.584 7.33361 13.515 7.36099 13.5276 7.54751C13.5354 7.66286 13.4971 7.95877 13.4002 8.21635C13.3033 8.47394 13.146 8.69131 13.0141 8.7643C12.907 8.8235 12.7977 8.87084 12.6884 8.90348C12.2981 9.02007 11.9178 8.98923 11.4546 8.55538C10.9725 8.10386 10.4449 7.92123 9.99473 7.91263C9.54459 7.90403 9.17446 8.03494 8.94904 8.30649C8.79121 8.49663 8.45882 8.70009 8.19711 8.74065C8.06625 8.76093 7.96116 8.7467 7.88106 8.70625C7.80096 8.66581 7.72774 8.59932 7.66406 8.43594C7.64244 8.38046 7.60597 8.3318 7.55855 8.29513C7.51113 8.25847 7.45452 8.23517 7.39474 8.22772L7.28862 8.21451C7.2147 8.20531 7.13979 8.2208 7.07584 8.25853C7.01189 8.29625 6.9626 8.35402 6.93583 8.42262L6.91555 8.47462C6.91504 8.47591 6.91454 8.47721 6.91405 8.4785C6.89451 8.53054 6.72845 8.78644 6.70485 8.81043C6.39588 9.11887 5.92695 9.18085 5.5643 8.97001C5.41191 8.88081 5.33803 8.81031 5.23683 8.65713C5.23667 8.65689 5.2365 8.65665 5.23634 8.65641C5.18023 8.57198 5.20114 8.61496 5.14691 8.43396L5.14626 8.43176C5.09873 8.26928 5.09933 8.27309 5.09802 8.20217C5.09451 7.85163 5.26292 7.55798 5.57476 7.37727L5.70072 7.30548C5.75492 7.2746 5.79921 7.22928 5.82852 7.17473C5.85784 7.12017 5.87098 7.05857 5.86646 6.99699L5.85791 6.88053C5.85791 6.8805 5.85791 6.88056 5.85791 6.88053C5.84771 6.74043 5.84961 6.7079 5.87027 6.59449C5.93359 6.26013 6.16525 5.96502 6.50749 5.80333C6.54401 5.78657 6.57761 5.77015 6.60731 5.75437C6.6227 5.7462 6.63654 5.73865 6.65376 5.72801C6.66238 5.72269 6.6715 5.71707 6.68661 5.70576C6.70172 5.69445 6.71984 5.70794 6.78071 5.59917C6.83486 5.5024 6.81728 5.50052 6.81972 5.4848C6.82215 5.46908 6.8229 5.45966 6.82362 5.4505C6.82508 5.43217 6.82565 5.41666 6.82605 5.39926C6.82687 5.36446 6.82662 5.3243 6.82522 5.28043C6.82314 5.21597 6.82677 5.1049 6.82671 5.10552C6.82675 5.105 6.8268 5.10448 6.82684 5.10396C6.87207 4.63476 7.1654 4.20521 7.5592 4.00758C7.61469 3.98039 7.6865 3.94486 7.71895 3.92884C7.71889 3.92886 7.719 3.92881 7.71895 3.92884C7.74667 3.91513 7.77114 3.90493 7.79743 3.89726Z" fill="#6D6D6D"/>
</svg>
