<svg width="32" height="32" viewBox="0 0 32 32" fill="none" xmlns="http://www.w3.org/2000/svg">
<path fill-rule="evenodd" clip-rule="evenodd" d="M3.02607 27.975C3.00524 27.9404 2.99261 27.4004 3.00815 27.2089L3.02188 27.0397L13.8699 27.0399C19.8363 27.0399 24.7236 27.0369 24.7305 27.033C24.7375 27.0292 26.1445 27.0314 27.8573 27.0378L30.9714 27.0496L30.9874 27.1572C31.0061 27.2834 30.9959 27.9384 30.9747 27.9736C30.9541 28.0078 3.04666 28.0093 3.02607 27.9751V27.975ZM24.0923 26.6488C23.4515 26.6434 22.9203 26.632 22.9119 26.6233C22.8873 26.5981 22.8628 17.9989 22.8773 14.4767L22.8906 11.2484L22.9597 11.2366C23.0843 11.2155 30.2031 11.2238 30.2936 11.2452C30.44 11.2799 30.5822 11.3627 30.7139 11.4902C30.8697 11.6411 30.9534 11.8096 30.981 12.0279C30.9924 12.1181 30.9996 14.8919 30.9999 19.3905C31.0005 26.2793 30.999 26.6092 30.9668 26.6269C30.9281 26.6481 25.9173 26.6641 24.0923 26.6488ZM25.9028 25.351C25.9383 25.3358 25.986 25.2909 26.0117 25.2484C26.0565 25.1744 26.0576 25.1623 26.0638 24.6533C26.0713 24.0348 26.0586 23.93 25.9645 23.8403C25.8779 23.7576 25.8109 23.7506 25.1808 23.7587C24.6115 23.766 24.5885 23.7709 24.5124 23.8999C24.4792 23.9561 24.4764 24.0078 24.4764 24.5774C24.4764 25.2617 24.4759 25.2584 24.6061 25.3399C24.6629 25.3754 24.7057 25.378 25.2533 25.378C25.7099 25.378 25.8536 25.3721 25.9028 25.351ZM29.334 25.3499C29.3701 25.3345 29.4169 25.2927 29.4381 25.2571C29.4745 25.1958 29.4765 25.1598 29.4765 24.5766C29.4765 23.7052 29.5343 23.7653 28.6957 23.7653C28.0512 23.7653 28.0313 23.7685 27.9528 23.8864L27.9051 23.9579V24.5654C27.9051 25.4337 27.8514 25.3781 28.6912 25.3781C29.1504 25.3781 29.2817 25.3723 29.334 25.3499ZM25.9084 22.5308C25.9918 22.4901 26.0313 22.4287 26.0486 22.3124C26.0562 22.2621 26.0569 21.9685 26.0504 21.6601L26.0384 21.0993L25.9824 21.0393C25.9515 21.0063 25.8958 20.9706 25.8585 20.96C25.8213 20.9493 25.5471 20.9406 25.2492 20.9405C24.7411 20.9403 24.7025 20.9429 24.6265 20.9807C24.567 21.0103 24.5347 21.0437 24.5051 21.1064C24.4664 21.1885 24.465 21.2147 24.4706 21.7748C24.479 22.6161 24.4255 22.5629 25.2641 22.563C25.7618 22.563 25.8514 22.5585 25.9084 22.5308ZM29.3562 22.5121C29.3858 22.4895 29.4271 22.4411 29.4481 22.4046C29.4839 22.3422 29.4862 22.303 29.4862 21.7517C29.4862 21.1006 29.484 21.0881 29.3579 20.9957C29.2959 20.9503 29.2936 20.9502 28.6923 20.9502C28.1126 20.9502 28.0868 20.9518 28.0363 20.9905C28.0074 21.0127 27.966 21.0551 27.9444 21.0848C27.9071 21.136 27.9049 21.1679 27.8998 21.7287C27.8945 22.3095 27.8951 22.32 27.9379 22.4066C28.015 22.5627 28.0246 22.5646 28.7086 22.5585C29.2784 22.5534 29.3047 22.5516 29.3562 22.5121ZM25.8819 19.7211C26.0503 19.6475 26.0724 19.5405 26.0637 18.8441C26.058 18.392 26.0542 18.3445 26.0194 18.2838C25.9984 18.2473 25.9571 18.1989 25.9275 18.1762C25.876 18.1368 25.8496 18.1349 25.2799 18.1297C24.5985 18.1235 24.5881 18.1256 24.5098 18.2824C24.4682 18.3656 24.4669 18.3852 24.4673 18.9359C24.4677 19.4558 24.4709 19.5106 24.5048 19.5873C24.5331 19.6512 24.5611 19.68 24.6234 19.7091C24.6982 19.7439 24.7516 19.7471 25.2628 19.7475C25.6936 19.7478 25.8345 19.7418 25.8819 19.7211ZM29.3562 19.697C29.3858 19.6744 29.4271 19.626 29.4481 19.5895C29.4839 19.5271 29.4862 19.4879 29.4862 18.9366C29.4862 18.3853 29.4839 18.3462 29.4481 18.2838C29.4271 18.2473 29.3858 18.1989 29.3562 18.1762C29.3042 18.1364 29.2827 18.1351 28.6971 18.1351C28.0265 18.1351 28.0233 18.1356 27.9474 18.261C27.9066 18.3282 27.9049 18.351 27.8993 18.9136C27.8937 19.4804 27.8947 19.499 27.9354 19.5853C27.9667 19.6517 27.9971 19.6835 28.0555 19.7112C28.1277 19.7453 28.1789 19.7478 28.7181 19.7432C29.2784 19.7383 29.3047 19.7365 29.3562 19.697ZM25.9275 16.8819C25.9571 16.8593 25.9984 16.8109 26.0194 16.7744C26.0555 16.7115 26.0573 16.6766 26.0538 16.1057C26.0497 15.4325 26.0473 15.4197 25.9146 15.3462C25.8526 15.3118 25.8056 15.3096 25.2445 15.3146C24.4123 15.3221 24.4764 15.2546 24.4764 16.1224C24.4764 16.7852 24.4772 16.7898 24.5915 16.8667C24.6762 16.9237 24.7526 16.93 25.318 16.9265C25.8505 16.9232 25.876 16.9213 25.9275 16.8819ZM29.3562 16.8819C29.3858 16.8593 29.4271 16.8109 29.448 16.7744C29.4837 16.7121 29.486 16.6723 29.4861 16.1215C29.4863 15.2588 29.5386 15.3113 28.6766 15.3107C28.0074 15.3103 28.0029 15.3114 27.9297 15.4813C27.8917 15.5694 27.8905 15.5963 27.9002 16.1553L27.9103 16.7376L27.9626 16.8079C28.0538 16.9307 28.0681 16.9329 28.7181 16.9277C29.2787 16.9232 29.3047 16.9214 29.3562 16.8819ZM25.9139 14.0682C25.9502 14.0463 25.9974 13.9979 26.0187 13.9607C26.0554 13.8965 26.0575 13.8612 26.0575 13.2967C26.0575 12.4409 26.1118 12.4951 25.2545 12.4952C24.4244 12.4954 24.479 12.4443 24.4704 13.2273C24.4634 13.8577 24.4692 13.9221 24.5397 14.0025C24.6342 14.1103 24.686 14.1179 25.2955 14.1127C25.8122 14.1083 25.8522 14.1054 25.9139 14.0682ZM29.3367 14.0742C29.3697 14.0557 29.4169 14.0073 29.4415 13.9667C29.4858 13.8935 29.4862 13.8883 29.4862 13.2967C29.4862 12.6337 29.4827 12.6131 29.3567 12.5328C29.2986 12.4958 29.2663 12.4942 28.6861 12.4994C27.8409 12.5071 27.8956 12.4531 27.8957 13.2801C27.8957 13.5866 27.9043 13.8655 27.9148 13.9042C27.9252 13.9426 27.9543 13.9939 27.9795 14.0182C28.0749 14.1102 28.1326 14.1175 28.7242 14.1126C29.206 14.1086 29.2843 14.1037 29.3367 14.0742ZM3.01146 26.605C3.00512 26.5807 2.99996 23.3059 3 19.3276C3 13.1195 3.00394 12.0756 3.0274 11.9621C3.10327 11.5946 3.39647 11.3004 3.7423 11.2447C3.82322 11.2317 5.11503 11.2247 7.47148 11.2246L11.0769 11.2244L11.0954 11.2746C11.1257 11.3562 11.1205 26.603 11.0902 26.6231C11.0771 26.6318 9.25663 26.6412 7.04469 26.644L3.02299 26.6491L3.01146 26.6049V26.605ZM5.96749 25.3384C6.00587 25.3144 6.04546 25.2646 6.06829 25.2116C6.10346 25.13 6.10554 25.0864 6.10033 24.5391C6.09505 23.9832 6.0928 23.9511 6.0555 23.8998C6.03389 23.8702 5.99255 23.8278 5.96362 23.8056C5.91312 23.7669 5.88724 23.7653 5.31715 23.7653C4.66942 23.7653 4.65293 23.7678 4.57261 23.8791C4.53448 23.9319 4.53259 23.9603 4.52766 24.5535C4.52028 25.4419 4.45942 25.378 5.31379 25.378C5.87295 25.378 5.90764 25.3758 5.96749 25.3384ZM9.38043 25.3418C9.4193 25.3204 9.46411 25.271 9.48967 25.2214C9.53178 25.1397 9.533 25.1219 9.533 24.5862C9.533 23.9145 9.52355 23.8731 9.35204 23.7923C9.28403 23.7602 9.21957 23.7563 8.75202 23.756C8.19095 23.7557 8.10904 23.7661 8.02414 23.8482C7.94126 23.9285 7.92913 24.0369 7.93615 24.6352C7.94539 25.4221 7.89692 25.377 8.73326 25.3776C9.26355 25.3781 9.32032 25.3749 9.38043 25.3418ZM5.9522 22.5266C5.98871 22.5066 6.03572 22.4604 6.05667 22.424C6.09256 22.3616 6.09477 22.3226 6.09477 21.7517C6.09477 20.8979 6.14422 20.9531 5.37093 20.9437C4.76773 20.9364 4.67419 20.9479 4.58806 21.0402L4.5328 21.0993L4.52731 21.7294C4.51955 22.6181 4.46752 22.5629 5.31408 22.563C5.83541 22.563 5.89169 22.5598 5.9522 22.5266ZM9.37997 22.5288C9.41628 22.51 9.46342 22.4638 9.48473 22.4262C9.52142 22.3614 9.52348 22.3257 9.52348 21.7517C9.52348 21.1592 9.52252 21.1441 9.48109 21.0757C9.40676 20.9531 9.39421 20.9508 8.76154 20.9446C8.19848 20.939 8.18883 20.9396 8.10437 20.9837C8.04451 21.0149 8.00716 21.052 7.98056 21.1066C7.945 21.1796 7.94246 21.2239 7.94246 21.7713C7.94246 22.6155 7.89005 22.563 8.73267 22.563C9.24816 22.563 9.32142 22.5591 9.37997 22.5288ZM5.9521 19.7039C5.98673 19.6797 6.033 19.6351 6.05492 19.6047C6.09335 19.5515 6.09477 19.5278 6.09477 18.9401C6.09477 18.0689 6.1495 18.1253 5.30426 18.1253C4.46919 18.1253 4.52701 18.0662 4.52118 18.9269C4.51688 19.5612 4.52017 19.5882 4.6122 19.6736C4.6827 19.7391 4.74375 19.7455 5.31573 19.7467C5.87998 19.7479 5.89013 19.7472 5.9521 19.7039ZM9.37025 19.7092C9.51966 19.635 9.5227 19.6207 9.52929 18.9597C9.53491 18.3959 9.53375 18.3739 9.49395 18.2895C9.46543 18.229 9.43024 18.1904 9.37936 18.1638C9.31116 18.1281 9.26509 18.1253 8.73184 18.1253C8.08817 18.1253 8.06423 18.1296 7.98562 18.2594C7.94319 18.3294 7.94246 18.3409 7.94246 18.9366C7.94246 19.6235 7.94425 19.6327 8.09423 19.7089C8.16573 19.7452 8.20977 19.7479 8.73172 19.7479C9.25147 19.7479 9.29807 19.7451 9.37025 19.7092ZM5.94588 16.8949C6.09046 16.8275 6.094 16.8102 6.10025 16.1411C6.10564 15.5632 6.10508 15.5533 6.06215 15.4667C5.98608 15.3131 5.9728 15.3103 5.30714 15.3103C4.67696 15.3103 4.6489 15.3146 4.5709 15.4233C4.53497 15.4734 4.53249 15.512 4.52731 16.1029C4.51955 16.9864 4.46955 16.933 5.30426 16.9324C5.8151 16.932 5.87343 16.9286 5.94588 16.8949ZM9.39236 16.8828C9.42127 16.8606 9.4626 16.8182 9.4842 16.7885C9.5219 16.7367 9.52348 16.7101 9.52348 16.125C9.52348 15.2529 9.57917 15.3103 8.73297 15.3103C8.08193 15.3103 8.05599 15.315 7.98121 15.4471C7.94519 15.5107 7.94203 15.5543 7.93639 16.0656C7.93008 16.6369 7.9389 16.7293 8.0084 16.8199C8.09229 16.9294 8.11904 16.9332 8.75542 16.9279C9.31198 16.9233 9.34229 16.9212 9.39236 16.8828ZM5.93803 14.0715C5.9955 14.0417 6.03085 14.0048 6.06143 13.9426C6.10289 13.8582 6.10429 13.8371 6.10429 13.2987C6.10429 12.7832 6.1015 12.7362 6.06648 12.6626C6.04568 12.6189 6.00015 12.5634 5.9653 12.5392C5.90291 12.4959 5.89269 12.4952 5.30308 12.4952C4.73604 12.4952 4.70089 12.4974 4.64118 12.5348C4.52896 12.605 4.52327 12.6425 4.52335 13.3107C4.52335 14.1655 4.47075 14.1136 5.338 14.1134C5.83046 14.1132 5.86167 14.1111 5.93803 14.0715ZM9.39354 14.0668C9.4231 14.0442 9.46443 13.9958 9.48538 13.9593C9.52123 13.8969 9.52348 13.8578 9.52348 13.2967C9.52348 12.4443 9.58589 12.5072 8.73297 12.4996C7.89126 12.492 7.94548 12.441 7.9362 13.2497C7.93199 13.6161 7.93705 13.8262 7.9514 13.8809C7.98104 13.9939 8.06064 14.08 8.15308 14.0991C8.19439 14.1076 8.4783 14.1131 8.78399 14.1113C9.31665 14.1081 9.34204 14.1063 9.39354 14.0668ZM11.5306 26.6358C11.5023 26.628 11.4985 26.3931 11.4864 23.8669C11.4792 22.3488 11.4775 17.4822 11.4826 13.0523L11.492 4.99805L11.5313 4.86957C11.5791 4.71346 11.6919 4.52935 11.7922 4.44387C11.8989 4.35288 12.0745 4.26914 12.2283 4.23585C12.4097 4.1966 14.2567 4.19196 14.2574 4.23075C14.2599 4.37098 14.3012 4.77694 14.3256 4.90031C14.5107 5.83846 15.1923 6.65019 16.0668 6.97393C16.5535 7.15412 17.1743 7.18758 17.658 7.05971C18.2173 6.91183 18.7079 6.59703 19.0714 6.15288C19.4789 5.65475 19.6883 5.12334 19.7177 4.51258C19.7262 4.33581 19.7377 4.25352 19.7568 4.23401C19.7967 4.19302 21.5972 4.19393 21.7862 4.23503C22.0982 4.30288 22.3614 4.53876 22.4716 4.84936L22.5104 4.95895L22.5059 15.7892C22.5034 21.7459 22.4972 26.6239 22.492 26.6292C22.4781 26.6439 20.6795 26.6531 20.5858 26.639L20.5049 26.6269L20.5045 23.9058C20.5042 22.204 20.497 21.1343 20.4851 21.0501C20.4509 20.8074 20.323 20.5915 20.1391 20.4662C19.9397 20.3304 19.9814 20.3336 18.4756 20.3392L17.1238 20.3442L17.112 20.872C17.1055 21.1623 17.0991 22.5754 17.0977 24.0123L17.0952 26.6247L17.0523 26.6365C16.9884 26.6541 16.9275 26.6512 16.9147 26.63C16.9085 26.6196 16.9038 25.4474 16.9044 24.0251C16.905 22.6027 16.8997 21.1904 16.8925 20.8867L16.8796 20.3344H15.5241C14.334 20.3344 14.156 20.3382 14.0652 20.3659C13.7756 20.4539 13.5628 20.7032 13.5134 21.0124C13.5025 21.0806 13.4952 22.2255 13.4952 23.8753L13.495 26.6244L13.4354 26.6366C13.3697 26.6501 11.5801 26.6493 11.5306 26.6358L11.5306 26.6358ZM14.289 18.5247C14.4051 18.4373 14.4093 18.4099 14.4093 17.7539C14.4093 17.1934 14.407 17.1538 14.3714 17.0939C14.3506 17.0589 14.3056 17.0127 14.2715 16.9914C14.2131 16.9549 14.1746 16.9525 13.6284 16.9525C12.9596 16.9525 12.9467 16.9551 12.8704 17.1088C12.8273 17.1955 12.8268 17.2051 12.8323 17.7735C12.8387 18.437 12.8456 18.4707 12.9888 18.5385C13.0603 18.5723 13.1131 18.5748 13.6509 18.5702C14.2078 18.5654 14.2378 18.5633 14.289 18.5247ZM17.5915 18.5554C17.6288 18.5448 17.6845 18.5091 17.7154 18.4761L17.7714 18.4161L17.7769 17.7806C17.7847 16.8889 17.8444 16.9524 16.9971 16.9524C16.3492 16.9524 16.3229 16.9573 16.2482 17.0892C16.2122 17.1528 16.209 17.1965 16.2033 17.7002C16.1983 18.1445 16.2025 18.2614 16.2266 18.3462C16.26 18.4643 16.3216 18.5334 16.413 18.5556C16.5061 18.5783 17.5121 18.5781 17.5915 18.5554ZM20.9994 18.5437C21.0476 18.5239 21.0914 18.4862 21.1188 18.441C21.1609 18.3716 21.1622 18.354 21.1675 17.7832C21.1729 17.2054 21.1723 17.1955 21.1294 17.1088C21.0534 16.9552 21.0399 16.9525 20.3755 16.9524C19.5362 16.9524 19.584 16.9074 19.5745 17.7062C19.5677 18.2839 19.5763 18.3699 19.6509 18.4672C19.7282 18.5681 19.7635 18.5734 20.3664 18.5742C20.8337 18.5749 20.9354 18.5699 20.9994 18.5437ZM14.2788 15.569C14.4056 15.4881 14.4094 15.4652 14.4093 14.7892C14.4093 14.2184 14.4072 14.1827 14.3707 14.1213C14.3472 14.0818 14.2987 14.0413 14.2466 14.0176C14.1664 13.9812 14.1255 13.9791 13.5947 13.9847C12.7861 13.9932 12.8403 13.9369 12.8321 14.7763C12.8267 15.3291 12.8287 15.3711 12.8634 15.4409C12.9109 15.5364 12.9633 15.5845 13.0419 15.6047C13.0764 15.6135 13.3532 15.6191 13.657 15.617C14.1947 15.6134 14.2112 15.6121 14.2788 15.569ZM21.0267 15.567C21.057 15.5494 21.0999 15.5102 21.1219 15.4799C21.1607 15.4265 21.162 15.4045 21.162 14.802C21.162 14.2035 21.1605 14.1772 21.1228 14.1253C21.1012 14.0956 21.0598 14.0532 21.0309 14.031C20.9803 13.9923 20.9546 13.9907 20.3715 13.9907C19.7845 13.9907 19.763 13.992 19.711 14.0318C19.6814 14.0545 19.6402 14.1028 19.6193 14.1393C19.5845 14.2003 19.5809 14.2495 19.5744 14.7433C19.5696 15.1133 19.5744 15.3073 19.5896 15.3656C19.618 15.4735 19.7145 15.5822 19.8004 15.6032C19.8369 15.6121 20.1153 15.6148 20.4191 15.6091C20.882 15.6006 20.9805 15.5937 21.0267 15.567ZM17.661 15.5652C17.7807 15.4903 17.7831 15.4745 17.7769 14.7868C17.7707 14.0856 17.7736 14.0995 17.6156 14.0192C17.5396 13.9806 17.5104 13.979 16.9646 13.9847C16.422 13.9904 16.3905 13.9927 16.3406 14.031C16.3117 14.0532 16.2703 14.0956 16.2487 14.1253C16.211 14.1771 16.2095 14.2037 16.2095 14.7887C16.2095 15.4665 16.2127 15.4862 16.339 15.5652C16.396 15.6009 16.4384 15.6033 17 15.6033C17.5615 15.6033 17.6039 15.6009 17.661 15.5652ZM14.2566 12.6173C14.3894 12.5489 14.4036 12.5019 14.4188 12.08C14.4263 11.8729 14.4245 11.5869 14.4148 11.4445C14.3989 11.2109 14.3926 11.1805 14.3509 11.1341C14.2608 11.0338 14.2269 11.029 13.6147 11.029C12.9907 11.029 12.9623 11.0338 12.8773 11.1526C12.8398 11.205 12.8376 11.2368 12.8321 11.7969C12.827 12.3047 12.8305 12.3976 12.8574 12.4697C12.8883 12.5527 12.9554 12.6185 13.0284 12.6372C13.0493 12.6426 13.3193 12.648 13.6284 12.6493C14.1282 12.6513 14.1977 12.6477 14.2566 12.6173ZM17.6605 12.6013C17.7765 12.5139 17.7809 12.4861 17.7809 11.8335C17.7809 11.1535 17.7766 11.1299 17.6395 11.066C17.5696 11.0334 17.5054 11.0298 16.9904 11.0294C16.3499 11.029 16.3229 11.034 16.2482 11.1658C16.2123 11.2293 16.209 11.2735 16.203 11.7719C16.1988 12.1226 16.204 12.3441 16.218 12.4091C16.2405 12.5135 16.303 12.5936 16.3904 12.6301C16.4198 12.6423 16.6614 12.6484 17.0224 12.6459C17.5802 12.642 17.6092 12.6399 17.6605 12.6013ZM21.0131 12.6136C21.1577 12.5462 21.1613 12.5289 21.1675 11.8598C21.1729 11.282 21.1723 11.2721 21.1294 11.1854C21.0521 11.0293 21.0425 11.0274 20.3586 11.0335C19.7888 11.0385 19.7625 11.0404 19.711 11.0799C19.6814 11.1025 19.6401 11.1509 19.6191 11.1874C19.5833 11.2498 19.581 11.289 19.581 11.8403C19.581 12.3482 19.5852 12.4346 19.6124 12.4854C19.6536 12.5625 19.7072 12.6109 19.7742 12.6315C19.8041 12.6407 20.0772 12.6488 20.381 12.6495C20.8846 12.6506 20.9405 12.6474 21.0131 12.6136ZM14.2788 9.64557C14.4052 9.56487 14.4094 9.54044 14.4094 8.87857C14.4094 8.2167 14.4052 8.19227 14.2788 8.11157C14.2106 8.06807 14.199 8.06728 13.6284 8.06728C13.0817 8.06728 13.0436 8.06958 12.9827 8.10638C12.9472 8.12788 12.9 8.17032 12.878 8.20068C12.8392 8.25408 12.8379 8.27616 12.8379 8.87513C12.8379 9.74798 12.7877 9.69898 13.676 9.69328C14.1942 9.68996 14.2113 9.6886 14.2788 9.64557ZM17.6442 9.65076C17.6789 9.62926 17.7253 9.58194 17.7472 9.54562C17.7857 9.48188 17.7869 9.45831 17.7829 8.87117C17.7783 8.19356 17.7768 8.18537 17.6469 8.10707C17.5845 8.0694 17.55 8.06728 17 8.06728C16.4499 8.06728 16.4155 8.0694 16.353 8.10707C16.3167 8.12895 16.2695 8.17734 16.2482 8.21459C16.2115 8.27871 16.2095 8.31408 16.2095 8.87857C16.2095 9.53076 16.2138 9.55909 16.3258 9.63438C16.4078 9.68956 16.4943 9.6966 17.0476 9.69317C17.5439 9.69009 17.5853 9.68715 17.6442 9.65076ZM20.939 9.67914C21.0618 9.6521 21.1443 9.5642 21.162 9.44143C21.1687 9.39528 21.1714 9.10963 21.1681 8.80665C21.1624 8.28598 21.1599 8.25281 21.1228 8.20183C21.1012 8.17216 21.0598 8.12975 21.0309 8.10758C20.9804 8.06889 20.9545 8.06728 20.3844 8.06728C19.8214 8.06728 19.7871 8.06935 19.7246 8.10707C19.6883 8.12895 19.6411 8.17734 19.6198 8.21459C19.5837 8.2777 19.5807 8.319 19.5766 8.81992C19.5739 9.14269 19.5802 9.39362 19.5922 9.44785C19.6149 9.5503 19.7042 9.65301 19.7923 9.67796C19.8799 9.70277 20.8272 9.70374 20.939 9.67914ZM16.2276 24.1925C16.1823 24.1423 16.1809 24.1319 16.1809 23.8443C16.1809 23.573 16.1842 23.5442 16.2197 23.5051C16.2661 23.454 16.3732 23.4474 16.4176 23.493C16.4639 23.5404 16.4701 23.5937 16.4634 23.8821C16.4571 24.148 16.4567 24.1503 16.4036 24.1971C16.3346 24.258 16.2856 24.2567 16.2276 24.1925ZM17.6153 24.2208C17.5517 24.1893 17.5333 24.1048 17.5333 23.8435C17.5333 23.5064 17.5639 23.4403 17.7052 23.4721C17.8052 23.4947 17.819 23.5392 17.819 23.8371C17.819 24.1253 17.8047 24.1878 17.7303 24.2225C17.6757 24.2481 17.67 24.248 17.6153 24.2208ZM16.7761 6.66832C16.4659 6.64282 16.2441 6.57658 15.9523 6.42224C15.5308 6.19932 15.1592 5.81142 14.9485 5.37429C14.5993 4.64994 14.6515 3.74037 15.0811 3.06526C15.2339 2.82498 15.5622 2.49305 15.788 2.35046C16.4538 1.92998 17.3239 1.88394 17.9969 2.2336C18.526 2.50845 18.9483 2.97899 19.1336 3.49989C19.2312 3.77442 19.2697 4.02104 19.2684 4.3627C19.2672 4.69899 19.2295 4.90822 19.1148 5.21576C18.9328 5.70391 18.4931 6.19515 18.019 6.43995C17.6747 6.61775 17.2068 6.70372 16.7761 6.66832ZM17.216 5.85519L17.4762 5.84238V5.33713V4.83188H17.9809H18.4857V4.34315V3.85442H17.9809H17.4762V3.33637V2.81832H17H16.5237V3.33637V3.85442H16.0285H15.5332V4.34315V4.83188H16.0285H16.5237V5.34994V5.86799H16.7398C16.8586 5.86799 17.0729 5.86223 17.216 5.85519Z" fill="#6D6D6D"/>
</svg>
