<svg width="32" height="32" viewBox="0 0 32 32" fill="none" xmlns="http://www.w3.org/2000/svg">
<path fill-rule="evenodd" clip-rule="evenodd" d="M2.17867 28.4535C1.95836 28.3706 1.93683 28.1042 2.14177 27.9969L2.22791 27.9518L3.55647 27.946L4.88504 27.9402L4.92559 27.8896L4.96614 27.839V20.6341C4.96614 13.5719 4.96539 13.4282 4.92811 13.383C4.89101 13.338 4.88051 13.3366 4.49498 13.3271C4.04113 13.3158 4.02962 13.3121 3.93294 13.1442C3.86548 13.0271 2.60039 10.6569 2.48137 10.4246C2.38771 10.2419 2.36441 10.1259 2.39691 10.0041C2.40962 9.95651 2.6244 9.5351 2.87422 9.06764C3.12404 8.60018 3.43389 8.01548 3.56278 7.76831C3.90041 7.12084 3.96207 7.02261 4.06999 6.96033L4.15961 6.90861H7.61476H11.0699L11.1534 6.9524C11.1993 6.97648 11.2595 7.02533 11.2872 7.06097C11.3149 7.0966 11.5201 7.47256 11.7431 7.89643C11.9661 8.32029 12.2853 8.92051 12.4524 9.23024C12.8357 9.94095 12.8523 9.97767 12.8523 10.1194C12.8523 10.2556 12.8393 10.2831 12.35 11.1876C12.1581 11.5422 11.8552 12.1128 11.6767 12.4556C11.4983 12.7984 11.3256 13.1087 11.293 13.1451C11.1487 13.3064 10.9533 13.3536 10.5173 13.3324L10.2833 13.3211V15.8122V18.3033L17.7761 18.2943C23.242 18.2877 25.3008 18.2911 25.3868 18.3071C25.5128 18.3304 25.5623 18.3627 25.6145 18.4559C25.6446 18.5098 25.6481 18.8966 25.6572 23.198C25.6653 27.0041 25.672 27.8862 25.6931 27.9068C25.714 27.9273 26.2499 27.9341 28.4711 27.942L31.2233 27.9518L31.3165 27.994C31.5233 28.0878 31.5254 28.3419 31.3203 28.4418C31.2445 28.4787 30.9978 28.4794 16.7555 28.4832C3.11257 28.4868 2.26255 28.4851 2.17867 28.4535ZM9.66872 27.9046L9.71573 27.8673L9.72079 20.5968L9.72585 13.3264L7.66286 13.3316L5.59988 13.3368L5.56181 13.383C5.52449 13.4282 5.52375 13.5696 5.52375 20.6457V27.8623L5.56733 27.9022C5.61059 27.9417 5.62567 27.942 7.61631 27.942C9.56113 27.942 9.62313 27.9409 9.66872 27.9046ZM13.1715 26.1539C13.2889 26.0943 13.2904 26.0831 13.2904 25.2545C13.2904 24.431 13.2894 24.4234 13.1745 24.3631C13.0998 24.3239 11.6061 24.3254 11.5311 24.3648C11.4069 24.43 11.4085 24.4187 11.4085 25.2554C11.4085 26.0862 11.407 26.0753 11.5242 26.1454C11.5841 26.1813 11.6303 26.1834 12.3504 26.1834C12.9933 26.1834 13.1223 26.1789 13.1715 26.1539ZM15.8202 26.1539C15.9375 26.0943 15.939 26.0831 15.939 25.2545C15.939 24.5942 15.9349 24.4927 15.9068 24.446C15.841 24.3367 15.8477 24.3376 15.0727 24.331C14.6784 24.3277 14.3179 24.3304 14.2715 24.337C14.2153 24.3451 14.1673 24.3688 14.1271 24.4081L14.067 24.4671V25.2484C14.067 25.7632 14.0743 26.043 14.0882 26.0686C14.0999 26.09 14.138 26.1245 14.1729 26.1454C14.2328 26.1813 14.2789 26.1834 14.999 26.1834C15.6419 26.1834 15.7709 26.1789 15.8202 26.1539ZM18.4662 26.1552C18.589 26.0929 18.5876 26.1032 18.5876 25.2649C18.5876 24.4351 18.5861 24.4232 18.4768 24.3657C18.4316 24.342 18.2903 24.3371 17.6516 24.3371C17.013 24.3371 16.8717 24.342 16.8265 24.3657C16.7171 24.4232 16.7157 24.435 16.7157 25.2655C16.7157 25.7682 16.7229 26.0431 16.7368 26.0686C16.7485 26.09 16.7866 26.1245 16.8215 26.1454C16.8814 26.1813 16.9275 26.1834 17.6476 26.1834C18.2748 26.1834 18.4203 26.1785 18.4662 26.1552ZM21.1165 26.1543C21.2388 26.0923 21.2362 26.1115 21.2362 25.2697C21.2362 24.4347 21.2348 24.4232 21.1254 24.3657C21.0802 24.342 20.9389 24.3371 20.3002 24.3371C19.6616 24.3371 19.5203 24.342 19.4751 24.3657C19.3657 24.4232 19.3643 24.4351 19.3643 25.2649C19.3643 26.0994 19.3632 26.0911 19.4816 26.1543C19.5606 26.1964 21.0335 26.1964 21.1165 26.1543V26.1543ZM23.7651 26.1543C23.8876 26.0922 23.8848 26.1132 23.8848 25.2526V24.4671L23.8247 24.4081C23.7846 24.3688 23.7366 24.3451 23.6804 24.3371C23.634 24.3304 23.2735 24.3277 22.8792 24.331C22.1042 24.3376 22.1109 24.3367 22.0451 24.446C22.0169 24.4927 22.0129 24.5942 22.0129 25.2545C22.0129 26.0787 22.0147 26.0928 22.1276 26.1529C22.2091 26.1963 23.68 26.1975 23.7651 26.1543ZM13.1715 22.6369C13.289 22.5773 13.2904 22.5671 13.2904 21.7277V20.9628L13.2227 20.8964L13.155 20.8299H12.348H11.541L11.4825 20.8873C11.4476 20.9216 11.419 20.9746 11.4115 21.0192C11.3903 21.1447 11.3969 22.4159 11.4191 22.4943C11.4303 22.5339 11.4668 22.5889 11.5002 22.6165L11.5609 22.6666H12.337C12.9918 22.6666 13.1223 22.6619 13.1715 22.6369ZM15.8193 22.6374C15.9417 22.5753 15.939 22.5956 15.939 21.7419V20.9628L15.8713 20.8964L15.8036 20.8299H15.014C14.1575 20.8299 14.1395 20.832 14.0908 20.9368C14.0737 20.9738 14.067 21.2033 14.067 21.7609V22.5337L14.1347 22.6001L14.2025 22.6666H14.9821C15.6348 22.6666 15.7711 22.6618 15.8193 22.6374ZM18.5199 22.6001L18.5876 22.5337V21.7482V20.9628L18.5199 20.8964L18.4522 20.8299H17.6516H16.8511L16.7834 20.8964L16.7157 20.9628V21.7482V22.5337L16.7834 22.6001L16.8511 22.6666H17.6516H18.4522L18.5199 22.6001ZM21.1685 22.6001L21.2362 22.5337V21.7482V20.9628L21.1685 20.8964L21.1008 20.8299H20.3002H19.4997L19.432 20.8964L19.3643 20.9628V21.7482V22.5337L19.432 22.6001L19.4997 22.6666H20.3002H21.1008L21.1685 22.6001ZM23.8171 22.6001L23.8848 22.5337V21.7609C23.8848 21.2033 23.8782 20.9738 23.8611 20.9368C23.8124 20.832 23.7943 20.8299 22.9379 20.8299H22.1483L22.0806 20.8964L22.0129 20.9628V21.7482V22.5337L22.0806 22.6001L22.1483 22.6666H22.9489H23.7494L23.8171 22.6001ZM5.04097 10.1276L5.03584 8.88202L4.18791 8.87693L3.33997 8.87184L3.01296 9.48045C2.8331 9.8152 2.68305 10.101 2.67952 10.1156C2.67599 10.1301 2.81381 10.4037 2.98579 10.7234C3.15777 11.0432 3.30659 11.3202 3.31652 11.339C3.33328 11.3708 3.39546 11.3732 4.19033 11.3732H5.04609L5.04097 10.1276ZM9.82043 10.1276L9.8153 8.88202L7.63965 8.87705L5.464 8.87208V10.1226V11.3732H7.64478H9.82556L9.82043 10.1276ZM12.1599 10.9629C12.2785 10.7426 12.4281 10.4644 12.4924 10.3447L12.6093 10.127L12.2745 9.5045L11.9397 8.88202L11.0916 8.87693L10.2435 8.87183V10.1227V11.3736L11.0939 11.3685L11.9444 11.3634L12.1599 10.9629ZM5.16231 6.72048C5.09528 6.69638 5.05211 6.60175 5.08039 6.54086C5.10673 6.48415 6.10432 5.26731 6.19251 5.18433L6.26 5.12082L6.80296 5.12083L7.34592 5.12083V3.17184V1.22286L7.39399 1.14053C7.47534 1.00119 7.6295 0.959473 7.7562 1.04251C7.90258 1.13846 7.8935 0.997617 7.89353 3.17184V5.12082H8.41997C8.70951 5.12082 8.96839 5.12903 8.99526 5.13905C9.04151 5.1563 10.0896 6.40669 10.1614 6.53018C10.1905 6.58039 10.1907 6.59097 10.1632 6.63945C10.1464 6.66897 10.1106 6.70411 10.0835 6.71754C10.0215 6.74832 5.24765 6.75117 5.16228 6.72048H5.16231Z" fill="#6D6D6D"/>
</svg>
