<svg width="32" height="32" viewBox="0 0 32 32" fill="none" xmlns="http://www.w3.org/2000/svg">
<path fill-rule="evenodd" clip-rule="evenodd" d="M5.13999 27.963C4.9973 27.8828 5 27.8991 5 27.1192C5 26.4929 5.0038 26.4104 5.0351 26.3577C5.10516 26.2398 5.12962 26.2367 5.97555 26.2367H6.73915L6.73362 25.8053L6.72809 25.3739L6.32693 25.3644C5.9387 25.3553 5.92278 25.3533 5.83319 25.3046C5.62602 25.192 5.55555 25.0596 5.55711 24.7861C5.55833 24.574 5.58199 24.5034 5.6898 24.3902C5.76506 24.3112 5.87569 24.2528 5.9923 24.2304L6.06977 24.2156L6.07495 19.1704L6.08013 14.1253L5.93749 14.1123C5.72857 14.0934 5.60528 14.0046 5.56487 13.844C5.55458 13.8031 5.54593 13.3664 5.54566 12.8737L5.54517 11.9778L5.46802 11.9777C5.42559 11.9776 5.36124 11.961 5.32502 11.9406C5.18709 11.8631 5.19544 12.0073 5.19544 9.70274C5.19544 7.42892 5.1905 7.52507 5.31109 7.45222C5.36523 7.41952 5.45868 7.41727 6.96579 7.41238C8.69622 7.40676 8.67969 7.40587 8.76279 7.50897C8.80305 7.55891 8.80632 7.59056 8.81214 7.98774C8.81557 8.22165 8.82589 8.41304 8.83507 8.41304C8.84425 8.41304 10.5569 7.6451 12.641 6.70652C15.4499 5.44146 16.4486 5 16.5016 5C16.5546 5 17.5471 5.43903 20.3424 6.69895C22.4156 7.63338 24.128 8.40231 24.1478 8.40768C24.1813 8.41678 24.1838 8.38939 24.1838 8.01518C24.1838 7.57541 24.1957 7.51954 24.3039 7.45186C24.3554 7.41961 24.4547 7.41726 25.968 7.41238C27.7448 7.40665 27.6817 7.40267 27.7629 7.52545C27.8039 7.58741 27.8044 7.61528 27.8044 9.69292C27.8044 11.747 27.8034 11.7991 27.7643 11.8583C27.7153 11.9324 27.6254 11.9778 27.5279 11.9778H27.4548L27.4543 12.8737C27.4541 13.3664 27.4454 13.8031 27.4351 13.844C27.3947 14.0046 27.2714 14.0934 27.0626 14.1123L26.9199 14.1253V19.1671C26.9199 23.1842 26.9252 24.2104 26.9457 24.216C26.9598 24.2199 27.0154 24.2336 27.0693 24.2464C27.1927 24.2758 27.3326 24.3871 27.3965 24.5067C27.4379 24.584 27.4444 24.6242 27.4436 24.7956C27.4426 25.0119 27.4102 25.1031 27.2931 25.2192C27.171 25.3404 27.1127 25.3541 26.6731 25.3644L26.2719 25.3739V25.8006V26.2272L27.0537 26.2367C27.8874 26.2468 27.889 26.247 27.9611 26.3449C27.9975 26.3945 28 26.4427 28 27.1089C28 27.9026 27.9992 27.9077 27.8589 27.9691C27.7936 27.9976 26.9049 28.0001 16.4969 28C5.34144 28 5.20494 27.9995 5.13999 27.963ZM27.4912 27.1136L27.4968 26.7107H16.5004H5.50403V27.1057C5.50403 27.323 5.51021 27.5065 5.51776 27.5134C5.52532 27.5204 10.4712 27.5239 16.5086 27.5213L27.4857 27.5166L27.4912 27.1136ZM15.1835 25.7389C15.1896 25.7155 15.1921 24.7662 15.189 23.6295L15.1834 21.5627L14.5713 21.5577L13.9593 21.5527V23.6545C13.9593 24.8105 13.9655 25.762 13.973 25.769C13.9806 25.7759 14.2535 25.7816 14.5795 25.7816H15.1723L15.1835 25.7389ZM17.4927 23.6627L17.4979 21.5532H16.5001H15.5022V23.6548C15.5022 24.8106 15.5085 25.7621 15.5162 25.7691C15.5238 25.7762 15.9705 25.7797 16.5088 25.777L17.4875 25.7721L17.4927 23.6627ZM19.0304 23.6579V21.5437H18.4235H17.8166L17.8113 23.639C17.8084 24.7913 17.8105 25.745 17.816 25.7582C17.8237 25.7769 17.9574 25.7811 18.4281 25.7771L19.0304 25.7721V23.6579ZM10.4677 25.0801H13.6518L13.6461 24.7909L13.6404 24.5017L9.85971 24.497C5.69608 24.4917 5.97995 24.4836 5.89428 24.6096C5.83594 24.6955 5.84352 24.919 5.90746 24.9985C5.98516 25.0951 6.03464 25.1009 6.68694 25.0901C7.01508 25.0846 8.7164 25.0801 10.4677 25.0801V25.0801ZM26.9797 25.0742C27.091 25.0383 27.1342 24.9675 27.1418 24.8089C27.1472 24.6967 27.1408 24.6612 27.1057 24.6096C27.0201 24.4836 27.3039 24.4916 23.1403 24.4969L19.3596 24.5017L19.3539 24.7908L19.3482 25.0799L22.7381 25.0848C24.6025 25.0874 26.3038 25.0912 26.5188 25.0932C26.7784 25.0956 26.9332 25.0892 26.9797 25.0742ZM9.28441 23.0843L9.28974 22.141H8.52837H7.767V23.0764C7.767 23.5909 7.77328 24.0177 7.78097 24.0247C7.78865 24.0318 8.12886 24.0354 8.537 24.0326L9.27907 24.0277L9.28441 23.0843ZM12.4987 23.0891V22.141H11.7375H10.9763V23.0764C10.9763 23.5909 10.9825 24.0176 10.99 24.0245C10.9976 24.0315 11.3401 24.0372 11.7512 24.0372H12.4987V23.0891ZM22.0393 23.0843L22.0447 22.141H21.273H20.5013V23.0764C20.5013 23.5909 20.5076 24.0177 20.5153 24.0247C20.523 24.0318 20.8678 24.0354 21.2816 24.0326L22.034 24.0277L22.0393 23.0843ZM25.2486 23.0843L25.254 22.141H24.4823H23.7106V23.0764C23.7106 23.5909 23.7169 24.0177 23.7246 24.0247C23.7323 24.0318 24.0771 24.0354 24.4909 24.0326L25.2433 24.0277L25.2486 23.0843ZM9.28936 20.0174V18.6332H8.52818H7.767V20.0174V21.4015H8.52818H9.28936V20.0174ZM12.4987 20.0174V18.6332H11.7375H10.9763V20.0047C10.9763 20.7591 10.9825 21.3819 10.99 21.3889C10.9976 21.3958 11.3401 21.4015 11.7512 21.4015H12.4987V20.0174ZM22.034 20.0174V18.6427H21.2728H20.5116L20.5063 19.9984C20.5034 20.744 20.5054 21.3649 20.5109 21.3781C20.5187 21.3969 20.6832 21.4009 21.2774 21.397L22.034 21.3921V20.0174ZM25.2433 20.0174V18.6427H24.4821H23.7209L23.7156 19.9984C23.7127 20.744 23.7147 21.3649 23.7202 21.3781C23.728 21.3969 23.8925 21.4009 24.4867 21.397L25.2433 21.3921V20.0174ZM19.195 19.714V18.6616H16.5H13.805L13.7997 19.695C13.7967 20.2634 13.7988 20.7391 13.8042 20.7522C13.8121 20.7711 14.363 20.775 16.5045 20.7711L19.195 20.7663V19.714ZM9.28936 16.519V15.1443H8.52818H7.767V16.519V17.8937H8.52818H9.28936V16.519ZM12.4987 16.519V15.1443H11.7375H10.9763V16.519V17.8937H11.7375H12.4987V16.519ZM15.2298 16.5237L15.2245 15.1538H14.5971H13.9696L13.9643 16.5237L13.959 17.8937H14.5971H15.2351L15.2298 16.5237ZM17.4722 16.5237L17.4775 15.1633H16.5104H15.5434V16.5287V17.8941L16.5051 17.8891L17.4669 17.8842L17.4722 16.5237ZM19.0357 16.5237L19.0304 15.1538L18.4081 15.1488L17.7858 15.1437V16.5187V17.8937H18.4134H19.041L19.0357 16.5237ZM22.0393 16.5143L22.0446 15.1443H21.2729H20.5013V16.5192V17.8942L21.2677 17.8892L22.034 17.8842L22.0393 16.5143ZM25.2536 16.519V15.1443H24.4821H23.7106V16.519V17.8937H24.4821H25.2536V16.519ZM26.7299 12.7599L26.7353 12.0725L16.5054 12.0773L6.2755 12.082L6.27008 12.7456C6.2671 13.1105 6.26913 13.4198 6.27458 13.433C6.28254 13.452 8.31469 13.4558 16.5045 13.452L26.7245 13.4473L26.7299 12.7599ZM26.4998 10.9873L26.5702 10.9165V10.63C26.5702 10.2487 26.5831 10.267 26.1896 10.0902C26.0199 10.0139 23.7981 9.02421 21.2522 7.89089C17.741 6.32778 16.6002 5.82794 16.5271 5.82052C16.4333 5.81102 16.2974 5.87001 11.4971 8.0042C7.53486 9.7658 6.55007 10.2107 6.49525 10.264L6.42699 10.3304L6.43353 10.6312C6.43985 10.9218 6.44181 10.9337 6.49151 10.9829C6.51979 11.0109 6.56145 11.0409 6.58408 11.0496C6.60671 11.0582 11.0812 11.0637 16.5273 11.0617L26.4294 11.0581L26.4998 10.9873Z" fill="#6D6D6D"/>
</svg>
