<svg width="32" height="32" viewBox="0 0 32 32" fill="none" xmlns="http://www.w3.org/2000/svg">
<path d="M23.0333 27L27.6667 22.4L26.2667 21L23.0333 24.1667L21.7333 22.8667L20.3333 24.3L23.0333 27ZM24 30.6667C22.1556 30.6667 20.5836 30.0164 19.284 28.716C17.9844 27.4155 17.3342 25.8435 17.3333 24C17.3333 22.1555 17.9836 20.5831 19.284 19.2827C20.5844 17.9822 22.1564 17.3324 24 17.3333C25.8444 17.3333 27.4169 17.9835 28.7173 19.284C30.0178 20.5844 30.6676 22.1564 30.6667 24C30.6667 25.8444 30.0164 27.4169 28.716 28.7173C27.4156 30.0178 25.8436 30.6675 24 30.6667ZM4 25.3333L10 16L4 6.66666H21.4L27.5667 15.3667C27.0333 15.1444 26.4164 14.9667 25.716 14.8333C25.0156 14.7 24.3769 14.6444 23.8 14.6667C21.1778 14.7111 19 15.6613 17.2667 17.5173C15.5333 19.3733 14.6667 21.5449 14.6667 24.032C14.6667 24.2542 14.6724 24.4711 14.684 24.6827C14.6956 24.8942 14.7231 25.1107 14.7667 25.332L4 25.3333Z" fill="#9e9e9f"/>
</svg>
