<svg width="64" height="64" viewBox="0 0 64 64" fill="none" xmlns="http://www.w3.org/2000/svg">
<path fill-rule="evenodd" clip-rule="evenodd" d="M27.9967 48.003V48.9134H14.5797C13.155 48.9134 12 47.7585 12 46.3338V13.5797C12 12.155 13.155 11 14.5797 11H50.1795C50.8637 11 51.5199 11.2718 52.0037 11.7556C52.4874 12.2393 52.7592 12.8955 52.7592 13.5797V46.296C52.7592 46.9802 52.4874 47.6363 52.0037 48.1201C51.5199 48.6039 50.8637 48.8757 50.1795 48.8757H36.976V47.9652H50.1795C50.6222 47.9652 51.0468 47.7894 51.3598 47.4763C51.6728 47.1633 51.8488 46.7387 51.8488 46.296V13.5797C51.8488 13.137 51.6728 12.7124 51.3598 12.3994C51.0468 12.0863 50.6222 11.9105 50.1795 11.9105H14.5797C13.6578 11.9105 12.9105 12.6578 12.9105 13.5797V46.3338C12.9105 47.2556 13.6578 48.003 14.5797 48.003H27.9967Z" fill="#9E9E9F"/>
<path fill-rule="evenodd" clip-rule="evenodd" d="M28.6111 11.907H29.5216V25.7993H34.1709V26.7098H28.6111V11.907Z" fill="#9E9E9F"/>
<path fill-rule="evenodd" clip-rule="evenodd" d="M27.9969 53.0022V50.0255H36.9764V53.0022H27.9969ZM28.179 52.8202H36.7943V50.2076H28.179V52.8202Z" fill="#9E9E9F"/>
<path fill-rule="evenodd" clip-rule="evenodd" d="M28.3369 52.6785V50.3477H36.6363V52.6785H28.3369ZM32.1958 51.3452C32.0954 51.3452 32.014 51.4268 32.014 51.5271C32.014 51.6275 32.0954 51.7089 32.1958 51.7089C32.2962 51.7089 32.3777 51.6275 32.3777 51.5271C32.3777 51.4268 32.2962 51.3452 32.1958 51.3452ZM31.363 51.3452C31.2627 51.3452 31.1812 51.4268 31.1812 51.5271C31.1812 51.6275 31.2627 51.7089 31.363 51.7089C31.4634 51.7089 31.5449 51.6275 31.5449 51.5271C31.5449 51.4268 31.4634 51.3452 31.363 51.3452ZM33.0148 51.3452C32.9144 51.3452 32.8329 51.4268 32.8329 51.5271C32.8329 51.6275 32.9144 51.7089 33.0148 51.7089C33.1152 51.7089 33.1966 51.6275 33.1966 51.5271C33.1966 51.4268 33.1152 51.3452 33.0148 51.3452ZM33.8556 51.4279C33.8013 51.4279 33.7572 51.472 33.7572 51.5264C33.7572 51.5807 33.8013 51.6249 33.8556 51.6249C33.91 51.6249 33.9541 51.5807 33.9541 51.5264C33.9541 51.472 33.91 51.4279 33.8556 51.4279Z" fill="#9E9E9F"/>
<path fill-rule="evenodd" clip-rule="evenodd" d="M41.8817 17.5323V18.5825C41.8817 18.6646 41.849 18.7434 41.791 18.8015C41.733 18.8595 41.6542 18.8921 41.5721 18.8921H40.5218C40.4398 18.8921 40.361 18.8595 40.303 18.8015C40.2449 18.7434 40.2123 18.6646 40.2123 18.5825V17.5323C40.2123 17.4502 40.2449 17.3715 40.303 17.3134C40.361 17.2553 40.4398 17.2227 40.5218 17.2227H41.5721C41.6542 17.2227 41.733 17.2553 41.791 17.3134C41.849 17.3715 41.8817 17.4502 41.8817 17.5323ZM41.7909 17.5323C41.7909 17.4743 41.7679 17.4186 41.7268 17.3776C41.6858 17.3366 41.6301 17.3135 41.5721 17.3135H40.5218C40.4638 17.3135 40.4082 17.3366 40.3671 17.3776C40.3261 17.4186 40.3031 17.4743 40.3031 17.5323V18.5825C40.3031 18.6405 40.3261 18.6962 40.3671 18.7372C40.4082 18.7783 40.4638 18.8013 40.5218 18.8013H41.5721C41.6301 18.8013 41.6858 18.7783 41.7268 18.7372C41.7679 18.6962 41.7909 18.6405 41.7909 18.5825V17.5323Z" fill="#9E9E9F"/>
<path fill-rule="evenodd" clip-rule="evenodd" d="M41.0929 41.4789V42.5291C41.0929 42.6112 41.0603 42.6899 41.0022 42.748C40.9442 42.806 40.8654 42.8386 40.7834 42.8386H39.7331C39.651 42.8386 39.5722 42.806 39.5142 42.748C39.4561 42.6899 39.4235 42.6112 39.4235 42.5291V41.4789C39.4235 41.3967 39.4561 41.318 39.5142 41.26C39.5722 41.2019 39.651 41.1693 39.7331 41.1693H40.7834C40.8654 41.1693 40.9442 41.2019 41.0022 41.26C41.0603 41.318 41.0929 41.3967 41.0929 41.4789ZM41.0021 41.4789C41.0021 41.4208 40.9791 41.3652 40.9381 41.3242C40.897 41.2831 40.8414 41.2601 40.7834 41.2601H39.7331C39.6751 41.2601 39.6194 41.2831 39.5784 41.3242C39.5373 41.3652 39.5143 41.4208 39.5143 41.4789V42.5291C39.5143 42.5871 39.5373 42.6428 39.5784 42.6838C39.6194 42.7248 39.6751 42.7479 39.7331 42.7479H40.7834C40.8414 42.7479 40.897 42.7248 40.9381 42.6838C40.9791 42.6428 41.0021 42.5871 41.0021 42.5291V41.4789Z" fill="#9E9E9F"/>
<path fill-rule="evenodd" clip-rule="evenodd" d="M27.9887 34.0515V35.1017C27.9887 35.1839 27.9561 35.2626 27.898 35.3207C27.84 35.3787 27.7612 35.4113 27.6792 35.4113H26.6289C26.5468 35.4113 26.468 35.3787 26.41 35.3207C26.3519 35.2626 26.3193 35.1839 26.3193 35.1017V34.0515C26.3193 33.9694 26.3519 33.8907 26.41 33.8327C26.468 33.7746 26.5468 33.742 26.6289 33.742H27.6792C27.7612 33.742 27.84 33.7746 27.898 33.8327C27.9561 33.8907 27.9887 33.9694 27.9887 34.0515ZM27.8979 34.0515C27.8979 33.9935 27.8749 33.9378 27.8339 33.8968C27.7929 33.8558 27.7372 33.8327 27.6792 33.8327H26.6289C26.5709 33.8327 26.5152 33.8558 26.4742 33.8968C26.4331 33.9378 26.4101 33.9935 26.4101 34.0515V35.1017C26.4101 35.1598 26.4331 35.2154 26.4742 35.2565C26.5152 35.2975 26.5709 35.3206 26.6289 35.3206H27.6792C27.7372 35.3206 27.7929 35.2975 27.8339 35.2565C27.8749 35.2154 27.8979 35.1598 27.8979 35.1017V34.0515Z" fill="#9E9E9F"/>
<path fill-rule="evenodd" clip-rule="evenodd" d="M41.5334 17.9405C41.5334 17.8584 41.5008 17.7796 41.4427 17.7216C41.3847 17.6635 41.3059 17.6309 41.2238 17.6309H40.87C40.7879 17.6309 40.7092 17.6635 40.6511 17.7216C40.5931 17.7796 40.5605 17.8584 40.5605 17.9405V18.2943C40.5605 18.3764 40.5931 18.4551 40.6511 18.5131C40.7092 18.5712 40.7879 18.6038 40.87 18.6038H41.2238C41.3059 18.6038 41.3847 18.5712 41.4427 18.5131C41.5008 18.4551 41.5334 18.3764 41.5334 18.2943V17.9405Z" fill="#9E9E9F"/>
<path fill-rule="evenodd" clip-rule="evenodd" d="M41.5334 17.9405V18.2943C41.5334 18.3764 41.5008 18.4551 41.4427 18.5131C41.3847 18.5712 41.3059 18.6038 41.2238 18.6038H40.87C40.7879 18.6038 40.7092 18.5712 40.6511 18.5131C40.5931 18.4551 40.5605 18.3764 40.5605 18.2943V17.9405C40.5605 17.8584 40.5931 17.7796 40.6511 17.7216C40.7092 17.6635 40.7879 17.6309 40.87 17.6309H41.2238C41.3059 17.6309 41.3847 17.6635 41.4427 17.7216C41.5008 17.7796 41.5334 17.8584 41.5334 17.9405ZM41.4426 17.9405C41.4426 17.8824 41.4196 17.8268 41.3785 17.7857C41.3375 17.7447 41.2818 17.7217 41.2238 17.7217H40.87C40.812 17.7217 40.7563 17.7447 40.7153 17.7857C40.6743 17.8268 40.6512 17.8824 40.6512 17.9405V18.2943C40.6512 18.3523 40.6743 18.4079 40.7153 18.449C40.7563 18.49 40.812 18.5131 40.87 18.5131H41.2238C41.2818 18.5131 41.3375 18.49 41.3785 18.449C41.4196 18.4079 41.4426 18.3523 41.4426 18.2943V17.9405Z" fill="#9E9E9F"/>
<path fill-rule="evenodd" clip-rule="evenodd" d="M40.7445 41.8274C40.7445 41.7453 40.7119 41.6665 40.6538 41.6085C40.5958 41.5504 40.517 41.5178 40.4349 41.5178H40.0811C39.999 41.5178 39.9203 41.5504 39.8622 41.6085C39.8042 41.6665 39.7715 41.7453 39.7715 41.8274V42.1812C39.7715 42.2633 39.8042 42.342 39.8622 42.4C39.9203 42.4581 39.999 42.4907 40.0811 42.4907H40.4349C40.517 42.4907 40.5958 42.4581 40.6538 42.4C40.7119 42.342 40.7445 42.2633 40.7445 42.1812V41.8274Z" fill="#9E9E9F"/>
<path fill-rule="evenodd" clip-rule="evenodd" d="M40.7445 41.8274V42.1812C40.7445 42.2633 40.7119 42.342 40.6538 42.4C40.5958 42.4581 40.517 42.4907 40.4349 42.4907H40.0811C39.999 42.4907 39.9203 42.4581 39.8622 42.4C39.8042 42.342 39.7715 42.2633 39.7715 42.1812V41.8274C39.7715 41.7453 39.8042 41.6665 39.8622 41.6085C39.9203 41.5504 39.999 41.5178 40.0811 41.5178H40.4349C40.517 41.5178 40.5958 41.5504 40.6538 41.6085C40.7119 41.6665 40.7445 41.7453 40.7445 41.8274ZM40.6537 41.8274C40.6537 41.7693 40.6306 41.7137 40.5896 41.6726C40.5486 41.6316 40.4929 41.6086 40.4349 41.6086H40.0811C40.0231 41.6086 39.9674 41.6316 39.9264 41.6726C39.8854 41.7137 39.8623 41.7693 39.8623 41.8274V42.1812C39.8623 42.2392 39.8854 42.2948 39.9264 42.3359C39.9674 42.3769 40.0231 42.4 40.0811 42.4H40.4349C40.4929 42.4 40.5486 42.3769 40.5896 42.3359C40.6306 42.2948 40.6537 42.2392 40.6537 42.1812V41.8274Z" fill="#9E9E9F"/>
<path fill-rule="evenodd" clip-rule="evenodd" d="M27.6408 34.4C27.6408 34.3179 27.6082 34.2391 27.5502 34.1811C27.4921 34.123 27.4134 34.0904 27.3312 34.0904H26.9775C26.8953 34.0904 26.8166 34.123 26.7585 34.1811C26.7005 34.2391 26.6679 34.3179 26.6679 34.4V34.7538C26.6679 34.8359 26.7005 34.9146 26.7585 34.9727C26.8166 35.0307 26.8953 35.0633 26.9775 35.0633H27.3312C27.4134 35.0633 27.4921 35.0307 27.5502 34.9727C27.6082 34.9146 27.6408 34.8359 27.6408 34.7538V34.4Z" fill="#9E9E9F"/>
<path fill-rule="evenodd" clip-rule="evenodd" d="M27.6408 34.4V34.7538C27.6408 34.8359 27.6082 34.9146 27.5502 34.9727C27.4921 35.0307 27.4134 35.0633 27.3312 35.0633H26.9775C26.8953 35.0633 26.8166 35.0307 26.7585 34.9727C26.7005 34.9146 26.6679 34.8359 26.6679 34.7538V34.4C26.6679 34.3179 26.7005 34.2391 26.7585 34.1811C26.8166 34.123 26.8953 34.0904 26.9775 34.0904H27.3312C27.4134 34.0904 27.4921 34.123 27.5502 34.1811C27.6082 34.2391 27.6408 34.3179 27.6408 34.4ZM27.55 34.4C27.55 34.3419 27.527 34.2863 27.4859 34.2453C27.4449 34.2042 27.3893 34.1812 27.3312 34.1812H26.9775C26.9194 34.1812 26.8638 34.2042 26.8227 34.2453C26.7817 34.2863 26.7587 34.3419 26.7587 34.4V34.7538C26.7587 34.8118 26.7817 34.8675 26.8227 34.9085C26.8638 34.9495 26.9194 34.9726 26.9775 34.9726H27.3312C27.3893 34.9726 27.4449 34.9495 27.4859 34.9085C27.527 34.8675 27.55 34.8118 27.55 34.7538V34.4Z" fill="#9E9E9F"/>
<path fill-rule="evenodd" clip-rule="evenodd" d="M16.3456 14.909V12.5782H24.645V14.909H16.3456ZM19.9642 13.5366C19.8639 13.5366 19.7824 13.618 19.7824 13.7184C19.7824 13.8188 19.8639 13.9003 19.9642 13.9003C20.0646 13.9003 20.1461 13.8188 20.1461 13.7184C20.1461 13.618 20.0646 13.5366 19.9642 13.5366ZM20.7335 13.5366C20.6331 13.5366 20.5516 13.618 20.5516 13.7184C20.5516 13.8188 20.6331 13.9003 20.7335 13.9003C20.8339 13.9003 20.9153 13.8188 20.9153 13.7184C20.9153 13.618 20.8339 13.5366 20.7335 13.5366ZM18.2654 13.5366C18.165 13.5366 18.0835 13.618 18.0835 13.7184C18.0835 13.8188 18.165 13.9003 18.2654 13.9003C18.3657 13.9003 18.4472 13.8188 18.4472 13.7184C18.4472 13.618 18.3657 13.5366 18.2654 13.5366ZM17.4961 13.5366C17.3957 13.5366 17.3143 13.618 17.3143 13.7184C17.3143 13.8188 17.3957 13.9003 17.4961 13.9003C17.5965 13.9003 17.678 13.8188 17.678 13.7184C17.678 13.618 17.5965 13.5366 17.4961 13.5366ZM21.5746 13.5366C21.4742 13.5366 21.3928 13.618 21.3928 13.7184C21.3928 13.8188 21.4742 13.9003 21.5746 13.9003C21.675 13.9003 21.7565 13.8188 21.7565 13.7184C21.7565 13.618 21.675 13.5366 21.5746 13.5366ZM23.9018 13.6283C23.8521 13.6283 23.8117 13.6687 23.8117 13.7184C23.8117 13.7682 23.8521 13.8085 23.9018 13.8085C23.9515 13.8085 23.992 13.7682 23.992 13.7184C23.992 13.6687 23.9515 13.6283 23.9018 13.6283ZM23.2874 13.6283C23.2377 13.6283 23.1973 13.6687 23.1973 13.7184C23.1973 13.7682 23.2377 13.8085 23.2874 13.8085C23.3371 13.8085 23.3775 13.7682 23.3775 13.7184C23.3775 13.6687 23.3371 13.6283 23.2874 13.6283ZM19.1065 13.5366C19.0061 13.5366 18.9246 13.618 18.9246 13.7184C18.9246 13.8188 19.0061 13.9003 19.1065 13.9003C19.2068 13.9003 19.2883 13.8188 19.2883 13.7184C19.2883 13.618 19.2068 13.5366 19.1065 13.5366Z" fill="#9E9E9F"/>
<path fill-rule="evenodd" clip-rule="evenodd" d="M24.9847 12.2558V15.2325H16.0053V12.2558H24.9847ZM24.8026 12.4378H16.1874V15.0504H24.8026V12.4378Z" fill="#9E9E9F"/>
<path fill-rule="evenodd" clip-rule="evenodd" d="M48.4656 25.5145H51.4423V34.494H48.4656V25.5145ZM48.6476 25.6966C48.6476 25.6966 48.6476 33.0533 48.6476 34.3119H51.2603V25.6966H48.6476Z" fill="#9E9E9F"/>
<path fill-rule="evenodd" clip-rule="evenodd" d="M48.7886 25.854H51.1195V34.1534H48.7886V25.854ZM49.954 30.1228C49.8537 30.1228 49.7723 30.2042 49.7723 30.3046C49.7723 30.405 49.8537 30.4865 49.954 30.4865C50.0544 30.4865 50.1359 30.405 50.1359 30.3046C50.1359 30.2042 50.0544 30.1228 49.954 30.1228ZM49.954 28.4737C49.8537 28.4737 49.7723 28.5552 49.7723 28.6556C49.7723 28.756 49.8537 28.8374 49.954 28.8374C50.0544 28.8374 50.1359 28.756 50.1359 28.6556C50.1359 28.5552 50.0544 28.4737 49.954 28.4737ZM49.954 31.7732C49.8537 31.7732 49.7723 31.8547 49.7723 31.9551C49.7723 32.0555 49.8537 32.1369 49.954 32.1369C50.0544 32.1369 50.1359 32.0555 50.1359 31.9551C50.1359 31.8547 50.0544 31.7732 49.954 31.7732ZM49.954 27.6851C49.9043 27.6851 49.864 27.7255 49.864 27.7752C49.864 27.8249 49.9043 27.8653 49.954 27.8653C50.0038 27.8653 50.0442 27.8249 50.0442 27.7752C50.0442 27.7255 50.0038 27.6851 49.954 27.6851ZM49.954 29.2975C49.8537 29.2975 49.7723 29.379 49.7723 29.4793C49.7723 29.5797 49.8537 29.6612 49.954 29.6612C50.0544 29.6612 50.1359 29.5797 50.1359 29.4793C50.1359 29.379 50.0544 29.2975 49.954 29.2975ZM49.954 30.9495C49.8537 30.9495 49.7723 31.031 49.7723 31.1313C49.7723 31.2317 49.8537 31.3132 49.954 31.3132C50.0544 31.3132 50.1359 31.2317 50.1359 31.1313C50.1359 31.031 50.0544 30.9495 49.954 30.9495Z" fill="#9E9E9F"/>
<path fill-rule="evenodd" clip-rule="evenodd" d="M19.82 15.6971H20.1842V43.0983C20.1842 43.4444 20.0467 43.7763 19.802 44.0211C19.5573 44.2658 19.2254 44.4033 18.8792 44.4033H13.4706V44.0391H18.8792C19.1287 44.0391 19.3681 43.94 19.5445 43.7636C19.7209 43.5871 19.82 43.3478 19.82 43.0983V15.6971Z" fill="#9E9E9F"/>
<path fill-rule="evenodd" clip-rule="evenodd" d="M17.3205 15.6971H17.6847V21.1274C17.6847 21.4736 17.5472 21.8055 17.3024 22.0502C17.0577 22.295 16.7258 22.4325 16.3796 22.4325H13.4706V22.0683H16.3796C16.6292 22.0683 16.8685 21.9692 17.045 21.7928C17.2214 21.6163 17.3205 21.377 17.3205 21.1274V15.6971Z" fill="#9E9E9F"/>
<path fill-rule="evenodd" clip-rule="evenodd" d="M48.0243 30.1235L48.0236 30.4876L37.4833 30.4655C36.7636 30.464 36.181 29.8802 36.181 29.1605V12.4509H36.5452V29.1605C36.5452 29.6793 36.9653 30.1003 37.484 30.1014L48.0243 30.1235Z" fill="#9E9E9F"/>
<path fill-rule="evenodd" clip-rule="evenodd" d="M48.0241 29.297V29.6612H38.2019C37.4811 29.6612 36.8969 29.077 36.8969 28.3562V12.4435H37.261V28.3563C37.261 28.8758 37.6822 29.297 38.2019 29.297H48.0241Z" fill="#9E9E9F"/>
<path fill-rule="evenodd" clip-rule="evenodd" d="M48.0276 28.5083V28.8724H38.9067C38.1859 28.8724 37.6017 28.2882 37.6017 27.5674V12.4435H37.9658V27.5675C37.9658 28.0871 38.3871 28.5083 38.9067 28.5083H48.0276Z" fill="#9E9E9F"/>
<path fill-rule="evenodd" clip-rule="evenodd" d="M51.4033 37.4949L51.4025 37.8591L32.4861 37.822C32.2363 37.8215 31.9965 37.9204 31.8196 38.0969C31.6428 38.2734 31.5435 38.513 31.5435 38.7628V49.5472H31.1793V38.7628C31.1793 38.4162 31.3171 38.0839 31.5624 37.8391C31.8077 37.5943 32.1403 37.4571 32.4868 37.4578L51.4033 37.4949Z" fill="#9E9E9F"/>
<path fill-rule="evenodd" clip-rule="evenodd" d="M48.0246 30.9469L48.0238 31.3111L36.7688 31.2866C36.0492 31.285 35.4667 30.7012 35.4667 29.9816V12.447H35.8309V29.9816C35.8309 30.5004 36.2508 30.9212 36.7696 30.9224L48.0246 30.9469Z" fill="#9E9E9F"/>
<path fill-rule="evenodd" clip-rule="evenodd" d="M51.4034 38.3214L51.4027 38.6856L33.3201 38.6486C33.0702 38.6481 32.8304 38.747 32.6536 38.9235C32.4767 39.1 32.3773 39.3396 32.3773 39.5895V49.5489H32.0131V39.5895C32.0131 39.2429 32.151 38.9106 32.3963 38.6657C32.6416 38.4209 32.9742 38.2837 33.3208 38.2845L51.4034 38.3214Z" fill="#9E9E9F"/>
<path fill-rule="evenodd" clip-rule="evenodd" d="M48.0242 31.7669L48.0234 32.131L36.0479 32.1038C35.3283 32.1021 34.7459 31.5183 34.7459 30.7988V12.4435H35.1101V30.7988C35.1101 31.3176 35.53 31.7384 36.0488 31.7396L48.0242 31.7669Z" fill="#9E9E9F"/>
<path fill-rule="evenodd" clip-rule="evenodd" d="M51.4038 39.1422L51.4031 39.5064L34.1396 39.4695C33.8897 39.469 33.6499 39.5679 33.473 39.7444C33.2961 39.9208 33.1967 40.1605 33.1967 40.4104V49.5491H32.8326V40.4104C32.8326 40.0637 32.9704 39.7314 33.2157 39.4866C33.4611 39.2417 33.7938 39.1046 34.1404 39.1054L51.4038 39.1422Z" fill="#9E9E9F"/>
<path fill-rule="evenodd" clip-rule="evenodd" d="M20.5872 15.6936H20.9514V43.8087C20.9514 44.1548 20.8139 44.4867 20.5692 44.7314C20.3245 44.9762 19.9926 45.1137 19.6464 45.1137H13.4706V44.7495H19.6464C19.8959 44.7495 20.1353 44.6504 20.3117 44.474C20.4881 44.2975 20.5872 44.0582 20.5872 43.8087V15.6936Z" fill="#9E9E9F"/>
<path fill-rule="evenodd" clip-rule="evenodd" d="M18.0877 15.6936H18.4519V22.0179C18.4519 22.7386 17.8676 23.3229 17.1468 23.3229H13.4706V22.9587H17.1468C17.6665 22.9587 18.0877 22.5375 18.0877 22.0179V15.6936Z" fill="#9E9E9F"/>
<path fill-rule="evenodd" clip-rule="evenodd" d="M21.4242 15.6962H21.7883V44.5168C21.7883 44.863 21.6509 45.1949 21.4061 45.4396C21.1614 45.6843 20.8295 45.8218 20.4833 45.8218H13.4706V45.4576H20.4833C20.7329 45.4576 20.9722 45.3585 21.1486 45.1821C21.325 45.0057 21.4242 44.7663 21.4242 44.5168V15.6962Z" fill="#9E9E9F"/>
<path fill-rule="evenodd" clip-rule="evenodd" d="M18.9246 15.6962H19.2888V22.8647C19.2888 23.2108 19.1513 23.5427 18.9066 23.7875C18.6618 24.0322 18.3299 24.1697 17.9838 24.1697H13.4706V23.8055H17.9838C18.2333 23.8055 18.4726 23.7064 18.6491 23.5299C18.8255 23.3535 18.9246 23.1142 18.9246 22.8647V15.6962Z" fill="#9E9E9F"/>
<path fill-rule="evenodd" clip-rule="evenodd" d="M23.1943 15.6944H23.3764V34.4851H26.093V34.6672H23.1943V15.6944Z" fill="#9E9E9F"/>
<path fill-rule="evenodd" clip-rule="evenodd" d="M48.024 27.684V27.8661H40.965V19.2948H41.1471V27.684H48.024Z" fill="#9E9E9F"/>
<path fill-rule="evenodd" clip-rule="evenodd" d="M33.9464 49.5479H33.7643V41.9142H39.0035V42.0963H33.9464V49.5479Z" fill="#9E9E9F"/>
</svg>
