<svg width="64" height="64" viewBox="0 0 64 64" fill="none" xmlns="http://www.w3.org/2000/svg">
<path fill-rule="evenodd" clip-rule="evenodd" d="M24.7202 16.3357C27.3471 15.8383 30.1388 15.5703 33.0324 15.5703C37.6505 15.5703 42.0093 16.2529 45.8521 17.4614C45.7118 17.8322 45.5908 18.2124 45.4905 18.6009C41.7591 17.4285 37.5212 16.7697 33.0324 16.7697C30.2541 16.7697 27.572 17.0221 25.0466 17.4924C24.9584 17.0985 24.8492 16.7125 24.7202 16.3357ZM60.9798 31.3279C61.0361 31.7698 61.0647 32.2162 61.0647 32.6668C61.0647 40.3464 52.7443 46.8502 41.3062 49.0051C41.3357 48.7138 41.3507 48.4183 41.3507 48.1193C41.3507 48.0053 41.3485 47.8919 41.3442 47.7791C46.8278 46.7115 51.552 44.6122 54.8861 41.8389C57.986 39.2605 59.8653 36.106 59.8653 32.6668C59.8653 32.3777 59.8521 32.0905 59.8259 31.8056C60.2212 31.6678 60.6063 31.508 60.9798 31.3279ZM23.9247 48.8392C12.9183 46.5313 5 40.1585 5 32.6668C5 30.8845 5.44818 29.1655 6.2795 27.5495C6.56782 27.8507 6.873 28.1357 7.19351 28.403C6.54836 29.7558 6.1994 31.1849 6.1994 32.6668C6.1994 36.106 8.0788 39.2605 11.1786 41.8389C14.3473 44.4745 18.7715 46.5015 23.9099 47.6126C23.9002 47.7803 23.8954 47.9492 23.8954 48.1193C23.8954 48.3616 23.9053 48.6018 23.9247 48.8392Z" fill="#9E9E9F"/>
<path fill-rule="evenodd" clip-rule="evenodd" d="M56.155 18.2231V21.2103C56.155 21.4692 55.9448 21.6794 55.6858 21.6794H54.9486C54.6897 21.6794 54.4795 21.4692 54.4795 21.2103V18.2231C54.4795 17.9641 54.6897 17.7539 54.9486 17.7539H55.6858C55.9448 17.7539 56.155 17.9641 56.155 18.2231ZM55.8885 18.2231C55.8885 18.1113 55.7977 18.0205 55.6858 18.0205H54.9486C54.8368 18.0205 54.7461 18.1113 54.7461 18.2231V21.2103C54.7461 21.3221 54.8368 21.4129 54.9486 21.4129H55.6858C55.7977 21.4129 55.8885 21.3221 55.8885 21.2103V18.2231Z" fill="#9E9E9F"/>
<path fill-rule="evenodd" clip-rule="evenodd" d="M58.5434 22.6311H61.5306C61.7895 22.6311 61.9998 22.8413 61.9998 23.1003V23.8375C61.9998 24.0964 61.7895 24.3066 61.5306 24.3066H58.5434C58.2845 24.3066 58.0742 24.0964 58.0742 23.8375V23.1003C58.0742 22.8413 58.2845 22.6311 58.5434 22.6311ZM58.5434 22.8643C58.4132 22.8643 58.3075 22.9701 58.3075 23.1003V23.8375C58.3075 23.9677 58.4132 24.0734 58.5434 24.0734H61.5306C61.6608 24.0734 61.7665 23.9677 61.7665 23.8375V23.1003C61.7665 22.9701 61.6608 22.8643 61.5306 22.8643H58.5434Z" fill="#9E9E9F"/>
<path fill-rule="evenodd" clip-rule="evenodd" d="M61.1385 24.3042V28.8298C61.1385 29.5326 60.5687 30.1025 59.8658 30.1025H50.3258C49.6229 30.1025 49.0531 29.5326 49.0531 28.8298V25.9678C49.0531 25.754 48.9682 25.5489 48.817 25.3977C48.6658 25.2465 48.4607 25.1615 48.2469 25.1615H46.8152V24.6951H48.2469C48.5844 24.6951 48.9081 24.8291 49.1468 25.0678C49.3855 25.3065 49.5196 25.6302 49.5196 25.9678V28.8298C49.5196 29.275 49.8805 29.636 50.3258 29.636H59.8658C60.3111 29.636 60.672 29.275 60.672 28.8298V24.3042H61.1385ZM60.672 22.6287V20.0067C60.672 19.7927 60.587 19.5876 60.4357 19.4363C60.2844 19.2851 60.0791 19.2002 59.8652 19.2004L56.1548 19.2034V18.737L59.8648 18.734C60.2025 18.7337 60.5264 18.8676 60.7654 19.1064C61.0043 19.3451 61.1385 19.669 61.1385 20.0067V22.6287H60.672ZM54.4793 19.2047L53.8231 19.2053C53.4854 19.2055 53.1614 19.0715 52.9225 18.8329C52.6836 18.5942 52.5494 18.2703 52.5494 17.9326V15.6113H53.0158V17.9326C53.0158 18.1465 53.1009 18.3517 53.2522 18.5029C53.4035 18.6541 53.6088 18.739 53.8228 18.7388L54.4793 18.7383V19.2047Z" fill="#9E9E9F"/>
<path fill-rule="evenodd" clip-rule="evenodd" d="M59.3832 24.3042V27.0744C59.3832 27.7773 58.8134 28.3471 58.1105 28.3471H52.0766C51.3738 28.3471 50.8039 27.7773 50.8039 27.0744V24.2772C50.8039 24.0633 50.719 23.8582 50.5678 23.707C50.4166 23.5558 50.2115 23.4709 49.9977 23.4709H46.8152V23.0045H49.9977C50.3352 23.0045 50.6589 23.1385 50.8976 23.3772C51.1363 23.6159 51.2704 23.9396 51.2704 24.2772V27.0744C51.2704 27.5197 51.6314 27.8807 52.0766 27.8807H58.1105C58.5557 27.8807 58.9168 27.5197 58.9168 27.0744V24.3042H59.3832ZM58.9168 22.6287V21.5426C58.9168 21.3286 58.8317 21.1235 58.6804 20.9722C58.529 20.821 58.3238 20.7361 58.1098 20.7363L56.1548 20.7378V20.2714L58.1094 20.2699C58.4472 20.2696 58.7712 20.4035 59.0101 20.6422C59.2489 20.881 59.3832 21.2048 59.3832 21.5426V22.6287H58.9168ZM54.4793 20.7392L52.0678 20.7412C51.7301 20.7414 51.4061 20.6074 51.1672 20.3688C50.9283 20.13 50.7941 19.8062 50.7941 19.4685V15.6113H51.2605V19.4685C51.2605 19.6824 51.3455 19.8876 51.4969 20.0388C51.6482 20.19 51.8535 20.2749 52.0674 20.2747L54.4793 20.2727V20.7392Z" fill="#9E9E9F"/>
<path fill-rule="evenodd" clip-rule="evenodd" d="M46.8152 22.561V25.5482C46.8152 25.8071 46.6049 26.0173 46.346 26.0173H45.6088C45.3499 26.0173 45.1396 25.8071 45.1396 25.5482V22.561C45.1396 22.302 45.3499 22.0918 45.6088 22.0918H46.346C46.6049 22.0918 46.8152 22.302 46.8152 22.561ZM46.582 22.561C46.582 22.4308 46.4762 22.325 46.346 22.325H45.6088C45.4785 22.325 45.3729 22.4308 45.3729 22.561V25.5482C45.3729 25.6784 45.4785 25.7841 45.6088 25.7841H46.346C46.4762 25.7841 46.582 25.6784 46.582 25.5482V22.561Z" fill="#9E9E9F"/>
<path fill-rule="evenodd" clip-rule="evenodd" d="M53.3912 15.6755H50.4039C50.1451 15.6755 49.9348 15.4653 49.9348 15.2063V14.4691C49.9348 14.2102 50.1451 14 50.4039 14H53.3912C53.6501 14 53.8604 14.2102 53.8604 14.4691V15.2063C53.8604 15.4653 53.6501 15.6755 53.3912 15.6755ZM53.3912 15.409C53.503 15.409 53.5938 15.3182 53.5938 15.2063V14.4691C53.5938 14.3573 53.503 14.2666 53.3912 14.2666H50.4039C50.2921 14.2666 50.2014 14.3573 50.2014 14.4691V15.2063C50.2014 15.3182 50.2921 15.409 50.4039 15.409H53.3912Z" fill="#9E9E9F"/>
<path fill-rule="evenodd" clip-rule="evenodd" d="M10.1146 23.8926L10.3127 24.3148L7.57556 25.5992V25.9695H13.326V26.4359H7.10913V25.3029L10.1146 23.8926Z" fill="#9E9E9F"/>
<path fill-rule="evenodd" clip-rule="evenodd" d="M17.1779 20.7925C17.1774 20.7925 17.1768 20.7925 17.176 20.7925C17.1684 20.7924 17.1379 20.7921 17.0909 20.7918C16.8151 20.7893 16.5498 20.8976 16.3547 21.0925C16.1595 21.2874 16.0508 21.5525 16.0528 21.8283L16.0535 21.912C16.0552 22.132 15.8203 22.1479 15.8203 22.1479C15.8203 22.1479 15.5888 22.1339 15.5871 21.9155L15.5865 21.8319C15.5834 21.431 15.7414 21.0457 16.0251 20.7625C16.3087 20.4792 16.6943 20.3217 17.0951 20.3253L17.176 20.326H17.179C17.3277 20.326 22.8248 20.326 22.8248 20.326V15.2497C22.8248 15.2497 17.1778 15.2497 17.1785 15.2497C17.1072 15.2508 17.036 15.2515 16.9639 15.2511C13.3937 15.2783 10.5129 18.1789 10.5102 21.7494L10.5101 21.9149L10.0437 21.9145L10.0438 21.7491C10.0466 17.9216 13.1355 14.8125 16.9644 14.7846H16.966C17.0347 14.7851 17.1034 14.7843 17.1741 14.7832H23.2912V20.7924L17.1779 20.7925Z" fill="#9E9E9F"/>
<path fill-rule="evenodd" clip-rule="evenodd" d="M15.8177 24.3148L16.0158 23.8926L19.0212 25.3029V26.4359H12.8044V25.9695H15.4749H18.5548V25.5992L15.8177 24.3148Z" fill="#9E9E9F"/>
<path fill-rule="evenodd" clip-rule="evenodd" d="M10.0427 21.9142H10.5092V23.8676H15.5867V21.9142H16.0531V24.334H10.0427V21.9142Z" fill="#9E9E9F"/>
<path d="M10.0134 21.682V22.1484H16.0799V21.682H10.0134Z" fill="#9E9E9F"/>
<path fill-rule="evenodd" clip-rule="evenodd" d="M16.4833 20.8242L16.1564 21.1569L12.0659 17.1374L12.3929 16.8047L16.4833 20.8242Z" fill="#9E9E9F"/>
<path fill-rule="evenodd" clip-rule="evenodd" d="M16.9876 20.638L16.552 20.8048L14.501 15.4501L14.9366 15.2832L16.9876 20.638Z" fill="#9E9E9F"/>
<path d="M17.7096 15.0156H17.2432V20.5585H17.7096V15.0156Z" fill="#9E9E9F"/>
<path fill-rule="evenodd" clip-rule="evenodd" d="M16.0808 21.2492L15.9113 21.6837L10.5703 19.6005L10.7398 19.166L16.0808 21.2492Z" fill="#9E9E9F"/>
<path fill-rule="evenodd" clip-rule="evenodd" d="M10.2839 26.7461H10.7504V27.0586H13.0589V27.525H10.2839V26.7461Z" fill="#9E9E9F"/>
<path fill-rule="evenodd" clip-rule="evenodd" d="M15.368 26.7461H15.8345V27.525H13.0595V27.0586H15.368V26.7461Z" fill="#9E9E9F"/>
<path d="M34.4324 49.6968L26.9062 45.3516V53.984L34.4324 58.3293V49.6968Z" fill="#9E9E9F"/>
<path fill-rule="evenodd" clip-rule="evenodd" d="M33.6563 44.9235L38.1282 47.5053L34.4717 49.6165L26.9456 45.2712L30.6021 43.1602L31.6197 43.7477V46.4333H31.6198C31.6137 46.5882 31.713 46.7444 31.9177 46.8626C32.3153 47.0921 32.9608 47.0921 33.3584 46.8626C33.5631 46.7444 33.6624 46.5882 33.6563 46.4333V44.9235ZM34.1376 47.3125C33.7401 47.542 33.7401 47.9148 34.1376 48.1443C34.5352 48.3738 35.1808 48.3738 35.5784 48.1443C35.9759 47.9148 35.9759 47.542 35.5784 47.3125C35.1808 47.083 34.5352 47.083 34.1376 47.3125ZM29.4954 44.6323C29.0978 44.8618 29.0978 45.2345 29.4954 45.4641C29.893 45.6936 30.5385 45.6936 30.9361 45.4641C31.3336 45.2345 31.3336 44.8618 30.9361 44.6323C30.5385 44.4028 29.893 44.4028 29.4954 44.6323Z" fill="#9E9E9F"/>
<path d="M35.5182 48.1096C35.8827 47.8991 35.8828 47.5579 35.5182 47.3474C35.1536 47.1369 34.5625 47.1369 34.198 47.3474C33.8334 47.5579 33.8334 47.8991 34.198 48.1096C34.5625 48.3201 35.1536 48.3201 35.5182 48.1096Z" fill="#9E9E9F"/>
<path d="M30.8768 45.4319C31.2414 45.2214 31.2414 44.8801 30.8768 44.6697C30.5123 44.4592 29.9212 44.4592 29.5566 44.6697C29.192 44.8802 29.192 45.2214 29.5566 45.4319C29.9212 45.6424 30.5123 45.6424 30.8768 45.4319Z" fill="#9E9E9F"/>
<path fill-rule="evenodd" clip-rule="evenodd" d="M38.1957 47.5742V56.1856L34.5146 58.3109V49.6994L38.1957 47.5742ZM36.3552 49.4963C35.9577 49.7258 35.6349 50.2849 35.6349 50.744C35.6349 51.2031 35.9577 51.3894 36.3552 51.1599C36.7528 50.9303 37.0756 50.3713 37.0756 49.9122C37.0756 49.4531 36.7528 49.2668 36.3552 49.4963ZM36.3552 52.2933C35.9577 52.5229 35.6349 53.0819 35.6349 53.541C35.6349 54.0001 35.9577 54.1865 36.3552 53.9569C36.7528 53.7273 37.0756 53.1683 37.0756 52.7093C37.0756 52.2502 36.7528 52.0638 36.3552 52.2933ZM36.3552 54.8567C35.9577 55.0863 35.6349 55.6453 35.6349 56.1044C35.6349 56.5635 35.9577 56.7498 36.3552 56.5203C36.7528 56.2907 37.0756 55.7317 37.0756 55.2726C37.0756 54.8135 36.7528 54.6272 36.3552 54.8567Z" fill="#9E9E9F"/>
<path d="M36.3545 53.885C36.7196 53.6743 37.0155 53.1617 37.0155 52.7402C37.0155 52.3187 36.7196 52.1479 36.3545 52.3586C35.9895 52.5694 35.6936 53.0819 35.6936 53.5034C35.6936 53.9249 35.9895 54.0958 36.3545 53.885Z" fill="#9E9E9F"/>
<path d="M36.3548 51.0901C36.7198 50.8794 37.0157 50.3668 37.0157 49.9453C37.0157 49.5238 36.7198 49.353 36.3548 49.5637C35.9898 49.7745 35.6938 50.287 35.6938 50.7085C35.6938 51.13 35.9898 51.3009 36.3548 51.0901Z" fill="#9E9E9F"/>
<path d="M36.3545 56.4573C36.7196 56.2465 37.0155 55.734 37.0155 55.3125C37.0155 54.891 36.7196 54.7202 36.3545 54.9309C35.9895 55.1417 35.6936 55.6542 35.6936 56.0757C35.6936 56.4972 35.9895 56.668 36.3545 56.4573Z" fill="#9E9E9F"/>
<path d="M33.4793 37.0391H31.8135V46.4704H33.4793V37.0391Z" fill="#9E9E9F"/>
<path d="M33.2388 37.3813C33.5661 37.1923 33.5661 36.8858 33.2388 36.6968C32.9114 36.5078 32.3806 36.5078 32.0532 36.6968C31.7258 36.8858 31.7258 37.1923 32.0532 37.3813C32.3806 37.5703 32.9114 37.5703 33.2388 37.3813Z" fill="#9E9E9F"/>
<path fill-rule="evenodd" clip-rule="evenodd" d="M32.3949 37.5009C32.27 37.4783 32.1522 37.4385 32.0533 37.3813C31.7261 37.1925 31.726 36.8857 32.0532 36.6968C32.1522 36.6397 32.27 36.5998 32.3949 36.5772C32.3049 36.7261 32.2848 36.8947 32.2848 37.0391C32.2848 37.1834 32.3049 37.352 32.3949 37.5009ZM32.8972 36.5772C33.0222 36.5998 33.1399 36.6397 33.2389 36.6968C33.5661 36.8857 33.566 37.1925 33.2388 37.3813C33.1399 37.4385 33.0222 37.4783 32.8972 37.5009C32.9873 37.352 33.0073 37.1834 33.0073 37.0391C33.0073 36.8947 32.9873 36.7261 32.8972 36.5772Z" fill="#9E9E9F"/>
<path d="M33.2388 46.7836C33.5661 46.5946 33.5661 46.2882 33.2388 46.0992C32.9114 45.9102 32.3806 45.9102 32.0532 46.0992C31.7258 46.2882 31.7258 46.5946 32.0532 46.7836C32.3806 46.9727 32.9114 46.9727 33.2388 46.7836Z" fill="#9E9E9F"/>
<path fill-rule="evenodd" clip-rule="evenodd" d="M32.3949 46.9032C32.27 46.8807 32.1522 46.8408 32.0533 46.7837C31.7261 46.5948 31.726 46.2881 32.0532 46.0992C32.1522 46.042 32.27 46.0021 32.3949 45.9796C32.3049 46.1284 32.2848 46.297 32.2848 46.4415C32.2848 46.5858 32.3049 46.7544 32.3949 46.9032ZM32.8972 45.9796C33.0222 46.0021 33.1399 46.042 33.2389 46.0992C33.5661 46.2881 33.566 46.5948 33.2388 46.7837C33.1399 46.8408 33.0222 46.8807 32.8972 46.9032C32.9873 46.7544 33.0073 46.5858 33.0073 46.4415C33.0073 46.297 32.9873 46.1284 32.8972 45.9796Z" fill="#9E9E9F"/>
</svg>
