<svg width="64" height="64" viewBox="0 0 64 64" fill="none" xmlns="http://www.w3.org/2000/svg">
<path fill-rule="evenodd" clip-rule="evenodd" d="M7.45417 43.2698L7.75197 43.2938C7.73195 43.5423 7.76909 43.7961 7.86045 44.0488L7.57946 44.1503C7.47299 43.8558 7.43094 43.5597 7.45417 43.2698ZM7.84496 44.6843L8.09698 44.5238C8.23424 44.7395 8.41027 44.951 8.62377 45.1552L8.41733 45.3711C8.18507 45.149 7.99417 44.9187 7.84496 44.6843ZM8.87359 45.7564L9.05284 45.5174C9.2353 45.6543 9.43582 45.7864 9.65435 45.9125L9.7758 45.9827L9.6264 46.2414L9.50501 46.1713C9.27559 46.0388 9.06505 45.9 8.87359 45.7564ZM10.1439 46.5401L10.2932 46.2814L11.0694 46.7295L10.92 46.9882L10.1439 46.5401ZM11.4374 47.287L11.5868 47.0283L12.363 47.4764L12.2136 47.7351L11.4374 47.287ZM12.7311 48.0338L12.8804 47.7751L13.6566 48.2232L13.5072 48.482L12.7311 48.0338ZM14.0246 48.7807L14.174 48.522L14.9501 48.9701L14.8008 49.2288L14.0246 48.7807ZM15.3182 49.5275L15.4676 49.2688L16.2438 49.717L16.0944 49.9757L15.3182 49.5275ZM16.6118 50.2744L16.7612 50.0157L17.5373 50.4638L17.388 50.7225L16.6118 50.2744ZM17.9054 51.0213L18.0548 50.7626L18.831 51.2107L18.6816 51.4694L17.9054 51.0213ZM19.199 51.7681L19.3484 51.5094L20.1245 51.9575L19.9751 52.2162L19.199 51.7681ZM20.4926 52.515L20.642 52.2563L21.4181 52.7044L21.2688 52.9631L20.4926 52.515ZM21.7862 53.2619L21.9356 53.0031L22.7117 53.4512L22.5624 53.71L21.7862 53.2619ZM23.0798 54.0087L23.2292 53.75L24.0053 54.1981L23.856 54.4568L23.0798 54.0087ZM24.3734 54.7556L24.5228 54.4968L25.2989 54.945L25.1495 55.2037L24.3734 54.7556ZM25.667 55.5024L25.8164 55.2437L26.5925 55.6918L26.4432 55.9505L25.667 55.5024ZM26.9606 56.2493L27.11 55.9906C27.1223 55.9976 27.1336 56.005 27.1438 56.0126L27.1444 56.0104C27.3784 56.1455 27.6243 56.2688 27.8793 56.3802L27.7597 56.654C27.4943 56.538 27.2385 56.4097 26.995 56.2691L26.9606 56.2493ZM28.3151 56.8739L28.4156 56.5925C28.6857 56.689 28.9634 56.7732 29.2459 56.8452L29.1722 57.1347C28.8806 57.0604 28.5939 56.9735 28.3151 56.8739ZM29.7553 57.265L29.8119 56.9717C30.0968 57.0267 30.3846 57.0696 30.6731 57.1004L30.6414 57.3974C30.3447 57.3658 30.0484 57.3217 29.7553 57.265ZM31.237 57.4439L31.2518 57.1455C31.544 57.1601 31.8347 57.1619 32.1215 57.151L32.1329 57.4495C31.8375 57.4608 31.5379 57.4589 31.237 57.4439ZM32.7289 57.4082L32.6987 57.111C32.9909 57.0813 33.2767 57.0377 33.5529 56.9797L33.6143 57.2721C33.328 57.3322 33.0318 57.3775 32.7289 57.4082ZM34.1935 57.1262L34.1084 56.8398C34.3887 56.7565 34.6554 56.6567 34.9044 56.5398L35.0313 56.8103C34.7692 56.9333 34.4885 57.0385 34.1935 57.1262ZM35.5574 56.5275L35.408 56.2688L36.1842 55.8207L36.3336 56.0794L35.5574 56.5275ZM36.851 55.7807L36.7016 55.5219L37.4778 55.0738L37.6271 55.3326L36.851 55.7807ZM38.1446 55.0338L37.9952 54.7751L38.7714 54.327L38.9208 54.5857L38.1446 55.0338ZM39.4382 54.287L39.2888 54.0282L40.065 53.5801L40.2143 53.8388L39.4382 54.287ZM40.7317 53.5401L40.5824 53.2814L41.3586 52.8333L41.5079 53.092L40.7317 53.5401ZM42.0254 52.7932L41.876 52.5345L42.6521 52.0864L42.8015 52.3451L42.0254 52.7932ZM43.3189 52.0464L43.1696 51.7877L43.9458 51.3395L44.0951 51.5983L43.3189 52.0464ZM44.6126 51.2995L44.4632 51.0408L45.2394 50.5927L45.3887 50.8514L44.6126 51.2995ZM45.9062 50.5526L45.7568 50.2939L46.533 49.8458L46.6824 50.1045L45.9062 50.5526ZM47.1998 49.8058L47.0504 49.5471L47.8266 49.0989L47.9759 49.3577L47.1998 49.8058ZM48.4934 49.0589L48.344 48.8002L49.1202 48.3521L49.2696 48.6108L48.4934 49.0589ZM49.787 48.3121L49.6376 48.0533L50.4138 47.6052L50.5631 47.8639L49.787 48.3121ZM51.0806 47.5652L50.9312 47.3065L51.7074 46.8584L51.8568 47.1171L51.0806 47.5652ZM52.3742 46.8183L52.2248 46.5596L53.001 46.1115L53.1503 46.3702L52.3742 46.8183ZM53.6678 46.0715L53.5184 45.8128L53.9492 45.5641C54.06 45.5 54.164 45.4334 54.2611 45.3644L54.4343 45.6078C54.3298 45.6821 54.2179 45.7539 54.0985 45.8228L53.6678 46.0715ZM54.8893 45.2218L54.6758 45.013C54.8735 44.8108 55.0212 44.5948 55.1178 44.3689L55.3924 44.4864C55.2823 44.744 55.1149 44.9912 54.8893 45.2218ZM55.5422 43.9103L55.245 43.8803C55.2701 43.6318 55.2379 43.3777 55.1511 43.1246L55.4338 43.0277C55.5351 43.3234 55.5716 43.6202 55.5422 43.9103ZM55.1762 42.49L54.9221 42.6471C54.7879 42.4301 54.6143 42.217 54.4029 42.0112L54.6112 41.7971C54.8416 42.0213 55.0301 42.2536 55.1762 42.49ZM54.1581 41.4082L53.9771 41.6458C53.7868 41.5008 53.5762 41.3612 53.3456 41.228L53.3851 41.2386C53.3499 41.2252 53.3072 41.2058 53.2586 41.1778L53.408 40.9191L53.495 40.9693C53.5582 41.0058 53.6201 41.0428 53.6805 41.0803C53.6023 41.1866 53.495 41.2681 53.495 41.2681C53.6014 41.2681 53.6973 41.2119 53.7504 41.1243C53.8949 41.2165 54.0308 41.3112 54.1581 41.4082ZM52.8906 40.6203L52.7412 40.879L51.965 40.4309L52.1144 40.1722L52.8906 40.6203ZM51.5969 39.8735L51.4476 40.1322L50.6714 39.6841L50.8208 39.4254L51.5969 39.8735ZM50.3034 39.1266L50.154 39.3854L49.3779 38.9372L49.5272 38.6785L50.3034 39.1266ZM49.0098 38.3798L48.8604 38.6385L48.0842 38.1904L48.2336 37.9317L49.0098 38.3798ZM47.7162 37.6329L47.5668 37.8916L46.7907 37.4435L46.94 37.1848L47.7162 37.6329ZM46.4226 36.8861L46.2732 37.1448L45.497 36.6966L45.6464 36.4379L46.4226 36.8861ZM45.129 36.1392L44.9796 36.3979L44.2035 35.9498L44.3528 35.6911L45.129 36.1392ZM43.8354 35.3923L43.686 35.651L42.9098 35.2029L43.0592 34.9442L43.8354 35.3923ZM42.5418 34.6455L42.3924 34.9042L41.6163 34.4561L41.7656 34.1973L42.5418 34.6455ZM41.2482 33.8986L41.0988 34.1573L40.3227 33.7092L40.472 33.4505L41.2482 33.8986ZM39.9546 33.1517L39.8052 33.4105L39.0291 32.9624L39.1785 32.7037L39.9546 33.1517ZM38.661 32.4049L38.5116 32.6636L37.7355 32.2155L37.8848 31.9568L38.661 32.4049ZM37.3674 31.658L37.218 31.9168L36.4419 31.4686L36.5913 31.2099L37.3674 31.658ZM36.0738 30.9112L35.9836 31.0673C35.977 31.0307 35.97 30.9873 35.9646 30.9415L35.8556 31.1302C35.6109 30.9889 35.3532 30.8605 35.0856 30.7451L35.2039 30.4708C35.4822 30.5909 35.7504 30.7244 36.005 30.8715L36.0738 30.9112ZM35.9836 31.0673C35.9948 31.1285 36.005 31.1702 36.005 31.1702L35.935 31.1516L35.9836 31.0673ZM35.935 31.1516L35.9244 31.1699L35.8563 31.1306L35.935 31.1516ZM34.6474 30.2534L34.5482 30.5352C34.2776 30.4399 33.9995 30.3568 33.7168 30.286L33.7892 29.9962C34.0812 30.0693 34.3682 30.1551 34.6474 30.2534ZM33.2057 29.8682L33.1503 30.1617C32.8651 30.1077 32.5769 30.0659 32.2887 30.0362L32.3191 29.739C32.6159 29.7696 32.9123 29.8126 33.2057 29.8682ZM31.7234 29.6948L31.7097 29.9932C31.4175 29.9798 31.1267 29.979 30.8401 29.9912L30.8274 29.6927C31.1228 29.6802 31.4223 29.681 31.7234 29.6948ZM30.2316 29.7365L30.2631 30.0336C29.971 30.0645 29.6855 30.1095 29.4097 30.1688L29.3469 29.8767C29.6328 29.8152 29.9289 29.7685 30.2316 29.7365ZM28.7685 30.0258L28.8552 30.3117C28.5756 30.3966 28.3097 30.4981 28.0617 30.6167L27.9328 30.3473C28.194 30.2223 28.4739 30.1153 28.7685 30.0258ZM27.4083 30.6329L27.5576 30.8916L26.7815 31.3397L26.6321 31.081L27.4083 30.6329ZM26.1146 31.3798L26.2641 31.6385L25.4879 32.0866L25.3385 31.8279L26.1146 31.3798ZM24.8211 32.1266L24.9704 32.3853L24.1943 32.8335L24.0449 32.5747L24.8211 32.1266ZM23.5274 32.8735L23.6768 33.1322L22.9007 33.5803L22.7513 33.3216L23.5274 32.8735ZM22.2339 33.6203L22.3832 33.8791L21.6071 34.3272L21.4577 34.0684L22.2339 33.6203ZM20.9402 34.3672L21.0896 34.6259L20.3134 35.0741L20.1641 34.8153L20.9402 34.3672ZM19.6466 35.1141L19.796 35.3728L19.0199 35.8209L18.8704 35.5622L19.6466 35.1141ZM18.353 35.8609L18.5024 36.1197L17.7262 36.5678L17.5769 36.309L18.353 35.8609ZM17.0594 36.6078L17.2088 36.8665L16.4327 37.3146L16.2832 37.0559L17.0594 36.6078ZM15.7658 37.3546L15.9152 37.6134L15.139 38.0615L14.9897 37.8028L15.7658 37.3546ZM14.4722 38.1015L14.6216 38.3602L13.8455 38.8083L13.696 38.5496L14.4722 38.1015ZM13.1786 38.8484L13.328 39.1071L12.5518 39.5552L12.4025 39.2965L13.1786 38.8484ZM11.885 39.5952L12.0344 39.8539L11.2583 40.3021L11.1088 40.0434L11.885 39.5952ZM10.5914 40.3421L10.7408 40.6008L9.96462 41.0489L9.81528 40.7902L10.5914 40.3421ZM9.29781 41.089L9.44722 41.3477L9.05082 41.5765C8.92856 41.6471 8.81466 41.7209 8.70921 41.7976L8.53348 41.556C8.64713 41.4734 8.76977 41.3938 8.90148 41.3178L9.29781 41.089ZM8.08307 41.9473L8.29953 42.1533C8.10523 42.3574 7.96131 42.5755 7.8692 42.803L7.59224 42.6909C7.69763 42.4307 7.86095 42.1807 8.08307 41.9473Z" fill="#9E9E9F"/>
<path fill-rule="evenodd" clip-rule="evenodd" d="M46.2734 14.5824C46.2176 14.5344 46.1569 14.4913 46.0919 14.4538C45.7222 14.2403 45.2667 14.2403 44.8969 14.4538L34.108 20.6827C32.6291 21.5366 30.807 21.5366 29.3281 20.6827L15.3782 12.6288L15.6769 12.1113L29.6268 20.1653C30.9209 20.9124 32.5152 20.9124 33.8092 20.1653L44.5982 13.9363C45.1528 13.6161 45.8361 13.6161 46.3906 13.9363C46.6061 14.0607 46.7894 14.2261 46.933 14.4193C46.7076 14.4343 46.4841 14.4887 46.2734 14.5824ZM47.2803 15.3342C47.2847 15.3853 47.2868 15.4368 47.2868 15.4886V26.7991H46.6894V15.4886C46.6894 15.4527 46.6878 15.4171 46.6847 15.3818C46.8752 15.3079 47.0825 15.2921 47.2803 15.3342Z" fill="#9E9E9F"/>
<path fill-rule="evenodd" clip-rule="evenodd" d="M47.8974 15.4973C47.83 15.4334 47.7545 15.3769 47.672 15.3293C47.3024 15.1164 46.8474 15.1166 46.478 15.3299L34.0812 22.4872C32.6022 23.3411 30.7801 23.3411 29.3013 22.4872L13.8024 13.5389L14.1011 13.0215L29.6 21.9698C30.894 22.7168 32.4883 22.7168 33.7824 21.9698L46.1792 14.8125C46.7333 14.4925 47.4159 14.4922 47.9703 14.8116C48.2038 14.9461 48.3998 15.1289 48.5484 15.3432C48.3262 15.3564 48.1058 15.4078 47.8974 15.4973ZM48.8647 16.2555C48.8667 16.2906 48.8679 16.326 48.8679 16.3614L48.8891 27.7241L48.2917 27.7252L48.2705 16.3625C48.2705 16.346 48.2701 16.3295 48.2693 16.3132C48.4591 16.2359 48.6662 16.2167 48.8647 16.2555Z" fill="#9E9E9F"/>
<path fill-rule="evenodd" clip-rule="evenodd" d="M19.237 45.8225H18.6395V24.9129C18.6395 24.0057 19.1236 23.1675 19.9092 22.7138L22.3637 21.2967C23.1493 20.8432 24.1173 20.8432 24.903 21.2967L29.4087 23.8982C30.7027 24.6453 32.297 24.6453 33.5911 23.8982L47.7551 15.7206C48.3091 15.4007 48.9917 15.4004 49.5461 15.7198C50.1005 16.0391 50.4426 16.6297 50.4438 17.2696L50.465 28.6323L49.8675 28.6334L49.8463 17.2707C49.8455 16.8442 49.6174 16.4504 49.2478 16.2375C48.8782 16.0246 48.4232 16.0248 48.0538 16.238L33.8899 24.4156C32.4109 25.2694 30.5889 25.2694 29.11 24.4156L24.6042 21.8142C24.0034 21.4673 23.2632 21.4673 22.6624 21.8142L20.2079 23.2312C19.6072 23.5782 19.237 24.2192 19.237 24.9129V45.8225Z" fill="#9E9E9F"/>
<path fill-rule="evenodd" clip-rule="evenodd" d="M15.8776 37.4909L15.9896 37.2969L16.5717 37.633L16.4597 37.827L15.8776 37.4909ZM16.8477 38.0511L16.9598 37.857L17.5419 38.1931L17.4298 38.3871L16.8477 38.0511ZM17.8179 38.6112L17.9299 38.4172L18.512 38.7533L18.4 38.9473L17.8179 38.6112ZM18.7881 39.1713L18.9002 38.9773L19.4823 39.3134L19.3703 39.5074L18.7881 39.1713ZM19.7583 39.7315L19.8703 39.5375L20.4525 39.8735L20.3404 40.0676L19.7583 39.7315ZM20.7286 40.2916L20.8406 40.0976L21.4227 40.4337L21.3107 40.6277L20.7286 40.2916ZM21.6987 40.8518L21.8108 40.6577L22.3929 40.9938L22.2808 41.1879L21.6987 40.8518ZM22.6689 41.4119L22.7809 41.2179L23.363 41.554L23.251 41.748L22.6689 41.4119ZM23.6391 41.9721L23.7511 41.778L24.3333 42.1141L24.2213 42.3082L23.6391 41.9721ZM24.6093 42.5322L24.7213 42.3382L25.3035 42.6743L25.1914 42.8683L24.6093 42.5322ZM25.5795 43.0924L25.6915 42.8983L26.2737 43.2344L26.1617 43.4284L25.5795 43.0924ZM26.5497 43.6525L26.6618 43.4585L27.2439 43.7946L27.1318 43.9886L26.5497 43.6525ZM27.5199 44.2126L27.6319 44.0186L28.214 44.3547L28.102 44.5487L27.5199 44.2126ZM28.4901 44.7728L28.6021 44.5788L29.1843 44.9148L29.0723 45.1089L28.4901 44.7728ZM29.4614 45.3332L29.5715 45.1382C29.7635 45.2464 29.9617 45.3392 30.1642 45.4163L30.0845 45.6257C29.8715 45.5447 29.6632 45.4471 29.4614 45.3332ZM30.5212 45.7674L30.5796 45.5511C30.7913 45.6082 31.0063 45.6491 31.2228 45.6738L31.1974 45.8964C30.9698 45.8704 30.7438 45.8274 30.5212 45.7674ZM31.6556 45.9256L31.6586 45.7016C31.8769 45.7046 32.0954 45.6912 32.3122 45.6615L32.3426 45.8834C32.1147 45.9147 31.8851 45.9287 31.6556 45.9256ZM32.7938 45.7984L32.7414 45.5806C32.9526 45.5297 33.161 45.4629 33.3646 45.3801L33.4491 45.5875C33.235 45.6747 33.0159 45.745 32.7938 45.7984ZM33.8652 45.3935L33.7604 45.1954C33.8082 45.1701 33.8557 45.1438 33.9029 45.1166L34.3404 44.8641L34.4524 45.0581L34.015 45.3107C33.9654 45.3393 33.9154 45.3668 33.8652 45.3935ZM34.8405 44.834L34.7284 44.64L35.3105 44.3039L35.4226 44.4979L34.8405 44.834ZM35.8106 44.2739L35.6986 44.0798L36.2808 43.7438L36.3928 43.9378L35.8106 44.2739ZM36.7809 43.7137L36.6689 43.5197L37.251 43.1836L37.363 43.3777L36.7809 43.7137ZM37.7511 43.1536L37.639 42.9596L38.2211 42.6235L38.3332 42.8175L37.7511 43.1536ZM38.7213 42.5935L38.6093 42.3994L39.1914 42.0633L39.3034 42.2574L38.7213 42.5935ZM39.6915 42.0333L39.5794 41.8393L40.1615 41.5032L40.2736 41.6972L39.6915 42.0333ZM40.6616 41.4732L40.5496 41.2791L41.1318 40.943L41.2438 41.1371L40.6616 41.4732ZM41.6319 40.913L41.5199 40.719L42.102 40.3829L42.214 40.5769L41.6319 40.913ZM42.6021 40.3529L42.49 40.1588L43.0721 39.8228L43.1842 40.0168L42.6021 40.3529ZM43.5723 39.7927L43.4603 39.5987L44.0424 39.2626L44.1544 39.4566L43.5723 39.7927ZM44.5425 39.2326L44.4304 39.0385L45.0125 38.7025L45.1246 38.8965L44.5425 39.2326Z" fill="#9E9E9F"/>
<path fill-rule="evenodd" clip-rule="evenodd" d="M14.3018 38.4011L14.4138 38.207L14.9959 38.5431L14.8839 38.7372L14.3018 38.4011ZM15.2719 38.9612L15.384 38.7672L15.9661 39.1033L15.8541 39.2973L15.2719 38.9612ZM16.2422 39.5214L16.3542 39.3273L16.9363 39.6634L16.8243 39.8574L16.2422 39.5214ZM17.2123 40.0815L17.3244 39.8875L17.9065 40.2236L17.7944 40.4176L17.2123 40.0815ZM18.1826 40.6416L18.2946 40.4476L18.8767 40.7837L18.7647 40.9777L18.1826 40.6416ZM19.1528 41.2018L19.2648 41.0078L19.8469 41.3438L19.7349 41.5379L19.1528 41.2018ZM20.123 41.7619L20.235 41.5679L20.8171 41.904L20.7051 42.098L20.123 41.7619ZM21.0932 42.3221L21.2052 42.128L21.7873 42.4641L21.6753 42.6582L21.0932 42.3221ZM22.0633 42.8822L22.1754 42.6882L22.7575 43.0243L22.6455 43.2183L22.0633 42.8822ZM23.0336 43.4424L23.1456 43.2483L23.7277 43.5844L23.6157 43.7785L23.0336 43.4424ZM24.0038 44.0025L24.1158 43.8085L24.698 44.1446L24.5859 44.3386L24.0038 44.0025ZM24.974 44.5627L25.086 44.3686L25.6681 44.7047L25.5561 44.8987L24.974 44.5627ZM25.9442 45.1228L26.0562 44.9288L26.6383 45.2649L26.5263 45.4589L25.9442 45.1228ZM26.9143 45.6829L27.0264 45.4889L27.6085 45.825L27.4965 46.019L26.9143 45.6829ZM27.8846 46.2431L27.9966 46.0491L28.5787 46.3851L28.4667 46.5792L27.8846 46.2431ZM28.8548 46.8032L28.9668 46.6092L29.5069 46.921C29.5206 46.9289 29.5343 46.9367 29.548 46.9445L29.4381 47.1397C29.4236 47.1316 29.4093 47.1233 29.3949 47.115L28.8548 46.8032ZM29.8489 47.3447L29.9388 47.1395C30.1403 47.2278 30.3468 47.3001 30.5565 47.3565L30.4983 47.5729C30.2778 47.5136 30.0606 47.4375 29.8489 47.3447ZM30.9471 47.6698L30.9834 47.4487C31.1994 47.4841 31.4175 47.5033 31.6356 47.506L31.6328 47.7301C31.4034 47.7272 31.1741 47.7071 30.9471 47.6698ZM32.0916 47.713L32.0721 47.4898C32.2892 47.4709 32.5053 47.4356 32.7183 47.3841L32.7709 47.6019C32.5469 47.6561 32.3198 47.693 32.0916 47.713ZM33.2112 47.4719L33.1371 47.2605C33.3417 47.1887 33.5423 47.1012 33.737 46.998L33.8418 47.196C33.6372 47.3045 33.4264 47.3964 33.2112 47.4719ZM34.2349 46.9725L34.1229 46.7785L34.7051 46.4424L34.8171 46.6365L34.2349 46.9725ZM35.2052 46.4124L35.0931 46.2184L35.6752 45.8823L35.7873 46.0763L35.2052 46.4124ZM36.1753 45.8523L36.0633 45.6582L36.6454 45.3221L36.7574 45.5162L36.1753 45.8523ZM37.1456 45.2921L37.0335 45.0981L37.6156 44.762L37.7277 44.956L37.1456 45.2921ZM38.1157 44.732L38.0037 44.5379L38.5858 44.2018L38.6978 44.3959L38.1157 44.732ZM39.0859 44.1718L38.9739 43.9778L39.5561 43.6417L39.6681 43.8357L39.0859 44.1718ZM40.0562 43.6117L39.9441 43.4176L40.5262 43.0816L40.6383 43.2756L40.0562 43.6117ZM41.0263 43.0515L40.9143 42.8575L41.4964 42.5214L41.6084 42.7154L41.0263 43.0515ZM41.9965 42.4914L41.8845 42.2974L42.4666 41.9613L42.5787 42.1553L41.9965 42.4914ZM42.9667 41.9312L42.8547 41.7372L43.4368 41.4011L43.5488 41.5952L42.9667 41.9312ZM43.9369 41.3711L43.8249 41.1771L44.407 40.841L44.519 41.035L43.9369 41.3711ZM44.9071 40.811L44.7951 40.6169L45.3772 40.2808L45.4893 40.4749L44.9071 40.811ZM45.8773 40.2508L45.7653 40.0568L46.3474 39.7207L46.4594 39.9147L45.8773 40.2508Z" fill="#9E9E9F"/>
<path fill-rule="evenodd" clip-rule="evenodd" d="M20.8205 47.4532L20.7085 47.2591L21.2906 46.9231L21.4026 47.1171L20.8205 47.4532ZM21.7908 46.893L21.6787 46.699L21.8938 46.5749C22.0213 46.5012 22.1522 46.4364 22.2858 46.3802L22.3726 46.5868C22.2475 46.6393 22.1251 46.7001 22.0059 46.7689L21.7908 46.893ZM22.7819 46.446L22.7233 46.2298C22.9478 46.1689 23.1769 46.1309 23.4073 46.1159L23.4218 46.3395C23.2064 46.3536 22.9919 46.3891 22.7819 46.446ZM23.8548 46.3401L23.87 46.1165C24.1002 46.1322 24.3293 46.1708 24.5536 46.2321L24.4944 46.4483C24.2845 46.3908 24.0702 46.3547 23.8548 46.3401ZM24.9034 46.5902L24.9908 46.3838C25.1214 46.4392 25.2495 46.5028 25.3742 46.5749L25.597 46.7035L25.485 46.8975L25.2622 46.7689C25.1454 46.7015 25.0256 46.6419 24.9034 46.5902ZM25.873 47.1216L25.9851 46.9275L26.5672 47.2636L26.4552 47.4577L25.873 47.1216ZM26.8433 47.6817L26.9553 47.4877L27.5374 47.8238L27.4254 48.0178L26.8433 47.6817ZM27.8134 48.2419L27.9255 48.0478L28.5076 48.3839L28.3955 48.578L27.8134 48.2419ZM28.7837 48.802L28.8957 48.608L29.3161 48.8507C29.3688 48.8811 29.422 48.9104 29.4757 48.9385L29.3718 49.137C29.3154 49.1075 29.2594 49.0767 29.204 49.0447L28.7837 48.802ZM29.7887 49.3292L29.8722 49.1213C30.0761 49.2033 30.2848 49.2692 30.4963 49.3191L30.4449 49.5372C30.2224 49.4847 30.0031 49.4154 29.7887 49.3292ZM30.8964 49.6202L30.9259 49.3981C31.1427 49.4268 31.3613 49.4392 31.5796 49.4353L31.5837 49.6593C31.3542 49.6635 31.1244 49.6504 30.8964 49.6202ZM32.0417 49.6281L32.0153 49.4056C32.2316 49.38 32.4464 49.3382 32.6579 49.2801L32.7172 49.4961C32.4949 49.5572 32.2691 49.6012 32.0417 49.6281ZM33.1533 49.3525L33.0728 49.1435C33.2749 49.0655 33.4727 48.9719 33.6642 48.8627L33.7752 49.0574C33.5738 49.1722 33.3659 49.2705 33.1533 49.3525ZM34.1638 48.8331L34.0518 48.639L34.6339 48.303L34.7459 48.497L34.1638 48.8331ZM35.134 48.2729L35.022 48.0789L35.6041 47.7428L35.7161 47.9369L35.134 48.2729ZM36.1043 47.7128L35.9922 47.5188L36.5743 47.1827L36.6864 47.3767L36.1043 47.7128ZM37.0744 47.1526L36.9624 46.9585L37.5445 46.6225L37.6565 46.8166L37.0744 47.1526ZM38.0446 46.5925L37.9326 46.3985L38.5147 46.0624L38.6268 46.2564L38.0446 46.5925ZM39.0148 46.0324L38.9028 45.8383L39.4849 45.5022L39.5969 45.6962L39.0148 46.0324ZM39.985 45.4721L39.873 45.2781L40.4552 44.942L40.5672 45.1361L39.985 45.4721ZM40.9553 44.912L40.8432 44.718L41.4253 44.3819L41.5374 44.5759L40.9553 44.912ZM41.9254 44.3519L41.8134 44.1578L42.3955 43.8217L42.5075 44.0158L41.9254 44.3519ZM42.8956 43.7918L42.7836 43.5977L43.3657 43.2616L43.4778 43.4557L42.8956 43.7918ZM43.8658 43.2316L43.7538 43.0376L44.3359 42.7015L44.4479 42.8956L43.8658 43.2316ZM44.836 42.6715L44.724 42.4775L45.3061 42.1414L45.4181 42.3354L44.836 42.6715ZM45.8062 42.1113L45.6942 41.9173L46.2763 41.5812L46.3884 41.7753L45.8062 42.1113ZM46.7764 41.5512L46.6644 41.3572L47.2465 41.0211L47.3585 41.2151L46.7764 41.5512ZM47.7466 40.9911L47.6346 40.797L48.2167 40.4609L48.3287 40.655L47.7466 40.9911Z" fill="#9E9E9F"/>
<path fill-rule="evenodd" clip-rule="evenodd" d="M43.917 37.6223L43.9662 37.5368L44.0916 37.4644L44.6111 37.7643L44.499 37.9583L43.917 37.6223ZM44.8871 38.1824L44.9991 37.9883L45.5813 38.3245L45.4693 38.5185L44.8871 38.1824ZM45.8573 38.7425L45.9694 38.5485L46.5514 38.8846L46.4395 39.0787L45.8573 38.7425ZM46.8275 39.3027L46.9396 39.1087L47.5217 39.4447L47.4096 39.6387L46.8275 39.3027ZM47.7978 39.8629L47.9097 39.6688L48.4919 40.0049L48.3798 40.1989L47.7978 39.8629ZM48.7678 40.4229L48.8799 40.2289L49.4621 40.565L49.35 40.7591L48.7678 40.4229ZM49.7381 40.9831L49.8502 40.7891L50.4322 41.1251L50.3203 41.3192L49.7381 40.9831ZM50.7083 41.3819L50.5963 41.1879L51.1785 40.8519L51.2904 41.0458L50.7083 41.3819ZM51.6785 40.8218L51.5665 40.6278L52.0116 40.3708L51.5765 40.1196L51.6886 39.9256L52.2707 40.2617L52.201 40.3824L52.2606 40.4857L51.6785 40.8218ZM51.3004 39.7015L51.1885 39.8956L50.6063 39.5595L50.7184 39.3654L51.3004 39.7015ZM50.3304 39.1414L50.2183 39.3354L49.6361 38.9993L49.7482 38.8053L50.3304 39.1414ZM49.3601 38.5812L49.248 38.7753L48.666 38.4392L48.7779 38.2451L49.3601 38.5812ZM48.3899 38.0211L48.2778 38.2151L47.6958 37.8791L47.8078 37.685L48.3899 38.0211ZM47.4197 37.4609L47.3076 37.6549L46.7255 37.3189L46.8376 37.1249L47.4197 37.4609ZM46.4494 36.9008L46.3375 37.0949L45.7587 36.7607L45.2886 37.0321L45.1765 36.838L45.7586 36.5019L45.8311 36.6274L45.8674 36.5647L46.4494 36.9008ZM44.7884 37.0621L44.9005 37.2561L44.3184 37.5922L44.2063 37.3982L44.7884 37.0621Z" fill="#9E9E9F"/>
<path fill-rule="evenodd" clip-rule="evenodd" d="M50.5165 30.9657V40.8667L44.9202 37.6356V27.6527L46.3214 26.8438L51.9177 30.0747L50.5874 30.8428L45.2692 27.7724L45.1983 27.8953L50.5165 30.9657ZM46.6333 27.7206C46.4373 27.8338 46.4373 28.0175 46.6333 28.1307C46.8293 28.2437 47.1474 28.2437 47.3434 28.1307C47.5393 28.0175 47.5393 27.8338 47.3434 27.7206C47.1474 27.6076 46.8293 27.6076 46.6333 27.7206ZM48.2356 28.6458C48.0396 28.7588 48.0396 28.9426 48.2356 29.0557C48.4315 29.1689 48.7497 29.1689 48.9457 29.0557C49.1416 28.9426 49.1416 28.7588 48.9457 28.6458C48.7497 28.5326 48.4315 28.5326 48.2356 28.6458ZM49.824 29.5628C49.6281 29.676 49.6281 29.8596 49.824 29.9728C50.0199 30.0859 50.3382 30.0859 50.5341 29.9728C50.7301 29.8596 50.7301 29.676 50.5341 29.5628C50.3382 29.4497 50.0199 29.4497 49.824 29.5628ZM51.9886 30.1976V40.0986L50.6583 40.8667V30.9657L51.9886 30.1976Z" fill="#9E9E9F"/>
<path fill-rule="evenodd" clip-rule="evenodd" d="M17.5239 46.8735L18.8407 46.1133L20.3922 47.0091L19.0755 47.7693L17.5239 46.8735ZM18.6233 46.7177C18.4274 46.8309 18.4274 47.0145 18.6233 47.1277C18.8193 47.2408 19.1374 47.2408 19.3334 47.1277C19.5294 47.0145 19.5294 46.8309 19.3334 46.7177C19.1374 46.6046 18.8193 46.6046 18.6233 46.7177ZM20.5173 47.1006V49.1977L19.187 49.9658V47.8687L20.5173 47.1006ZM19.0451 49.9658L17.4395 49.0388V46.9885L19.0451 47.9155V49.9658Z" fill="#9E9E9F"/>
<path d="M13.9534 13.522C14.0706 13.4543 14.1657 13.2897 14.1657 13.1543C14.1657 13.0189 14.0706 12.964 13.9534 13.0317C13.8361 13.0994 13.7411 13.264 13.7411 13.3994C13.7411 13.5348 13.8361 13.5897 13.9534 13.522Z" fill="#9E9E9F"/>
<path d="M15.5277 12.6138C15.645 12.5461 15.74 12.3815 15.74 12.2461C15.74 12.1107 15.645 12.0558 15.5277 12.1235C15.4105 12.1912 15.3154 12.3558 15.3154 12.4912C15.3154 12.6266 15.4105 12.6815 15.5277 12.6138Z" fill="#9E9E9F"/>
<path d="M47.2006 26.9194C47.3178 26.8517 47.3178 26.742 47.2006 26.6743C47.0834 26.6066 46.8933 26.6066 46.776 26.6743C46.6588 26.742 46.6588 26.8518 46.776 26.9194C46.8933 26.9871 47.0834 26.9871 47.2006 26.9194Z" fill="#9E9E9F"/>
<path d="M48.8031 27.8433C48.9204 27.7756 48.9204 27.6658 48.8031 27.5981C48.6859 27.5304 48.4958 27.5304 48.3786 27.5981C48.2613 27.6658 48.2613 27.7756 48.3786 27.8433C48.4958 27.911 48.6859 27.911 48.8031 27.8433Z" fill="#9E9E9F"/>
<path d="M50.3788 28.7554C50.4961 28.6877 50.4961 28.5779 50.3788 28.5102C50.2616 28.4426 50.0715 28.4426 49.9542 28.5102C49.837 28.5779 49.837 28.6877 49.9542 28.7554C50.0715 28.8231 50.2616 28.8231 50.3788 28.7554Z" fill="#9E9E9F"/>
<path d="M19.1509 45.9331C19.2682 45.8654 19.2682 45.7557 19.1509 45.688C19.0337 45.6203 18.8436 45.6203 18.7263 45.688C18.6091 45.7557 18.6091 45.8654 18.7263 45.9331C18.8436 46.0008 19.0337 46.0008 19.1509 45.9331Z" fill="#9E9E9F"/>
</svg>
